<svg xmlns="http://www.w3.org/2000/svg" xmlns:xlink="http://www.w3.org/1999/xlink" width="48.835" height="44.146" viewBox="0 0 48.835 44.146"><defs><clipPath id="a"><rect width="48.835" height="44.146" fill="#1f526c"/></clipPath></defs><g clip-path="url(#a)"><path d="M4.493,42.011v-.675q0-10.463,0-20.925c0-1.1.32-1.42,1.415-1.422H7.5v-.562c0-1.174,0-2.348,0-3.522a1.059,1.059,0,0,1,1.184-1.183c1.555-.007,3.111,0,4.73,0,.009-.2.025-.384.025-.564q0-3.393,0-6.785c0-1.05.344-1.39,1.4-1.394.969,0,1.938,0,2.906,0,.168,0,.336-.015.549-.025,0-1.228,0-2.416,0-3.6C18.3.355,18.644,0,19.637,0Q26.2,0,32.767,0c1.02,0,1.352.343,1.356,1.383,0,1.171,0,2.342,0,3.589h.605c1.021,0,2.042-.011,3.062.005.806.013,1.161.386,1.162,1.192q.006,4.584,0,9.168v.518c.888.253,1.751.431,2.562.743a10.057,10.057,0,0,1,6.438,9.139,9.028,9.028,0,0,1-.97,3.828,62.813,62.813,0,0,1-4.564,8.107c-.795,1.274-1.606,2.537-2.408,3.805-.09.142-.169.292-.307.531h.611q3.633,0,7.266,0c.792,0,1.259.406,1.254,1.064a.99.99,0,0,1-.862,1,4.12,4.12,0,0,1-.621.031q-4.333,0-8.667,0-16.164.017-32.328.034c-1.712,0-3.424-.02-5.136-.037C.51,44.1.085,43.785.012,43.232a1.043,1.043,0,0,1,1.136-1.217c1.088-.015,2.177,0,3.345,0m25.236-.046h6.248c-.82-1.312-1.636-2.547-2.381-3.825-1.572-2.7-3.158-5.384-4.638-8.13a8.87,8.87,0,0,1-1.136-5.47,10.247,10.247,0,0,1,8.553-8.534c.4-.046.515-.159.512-.56-.018-2.642-.009-5.284-.011-7.926,0-.147-.02-.294-.029-.416H15.612V41.96h7.057c0-2.318,0-4.6,0-6.875,0-.909.379-1.283,1.3-1.285q2.258-.006,4.516,0c.9,0,1.244.347,1.246,1.261.005,1.8,0,3.592,0,5.388,0,.5,0,.994,0,1.516M37.844,41c1.317-2.091,2.638-4.073,3.838-6.127,1.234-2.11,2.377-4.275,3.506-6.444a5.667,5.667,0,0,0,.594-3.564,8.027,8.027,0,0,0-9.622-6.708C31.809,19,28.2,24.23,30.638,28.671q2.223,4.056,4.545,8.058c.828,1.43,1.746,2.808,2.662,4.27M13.384,21.1H6.625V41.984h6.759ZM31.985,2.12H20.43V4.9H31.985ZM27.607,41.971V35.921H24.782c0,1.957,0,3.87,0,5.783a2.183,2.183,0,0,0,.036.268ZM13.4,15.854H9.6v3.1h3.8Z" transform="translate(0 0)" fill="#1f526c"/><path d="M140.741,151.53h-3.092c0,.18,0,.361,0,.542,0,.9.016,1.8-.008,2.693a1.061,1.061,0,0,1-1.042,1.077,1.033,1.033,0,0,1-1.042-1.064q-.035-2.148,0-4.3a1.008,1.008,0,0,1,1.073-1.084q2.568-.032,5.136,0a1.04,1.04,0,0,1,1.074,1.145q.018,2.071,0,4.142a1.077,1.077,0,0,1-1.069,1.157,1.058,1.058,0,0,1-1.021-1.142c-.017-.863-.005-1.726-.006-2.589,0-.185,0-.371,0-.582" transform="translate(-116.776 -128.702)" fill="#1f526c"/><path d="M140.839,89.167h-3.092c0,1,0,1.973,0,2.949a2.348,2.348,0,0,1-.078.661.981.981,0,0,1-1.07.708.935.935,0,0,1-.917-.887q-.048-2.3,0-4.6a.941.941,0,0,1,1-.922q2.618-.02,5.237,0a1.008,1.008,0,0,1,1.023,1.027q.034,2.173,0,4.347a1.017,1.017,0,0,1-1.058,1.04,1,1,0,0,1-1.023-1.064c-.023-.879-.009-1.759-.01-2.639,0-.187,0-.374,0-.617" transform="translate(-116.875 -75.011)" fill="#1f526c"/><path d="M246.707,153.574a5.095,5.095,0,0,1-10.189-.02,5.094,5.094,0,0,1,10.189.02m-2.1-.02a2.99,2.99,0,1,0-2.975,3.007,3,3,0,0,0,2.975-3.007" transform="translate(-203.778 -127.928)" fill="#1f526c"/></g></svg>