<svg xmlns="http://www.w3.org/2000/svg" xmlns:xlink="http://www.w3.org/1999/xlink" width="45.417" height="40.634" viewBox="0 0 45.417 40.634"><defs><clipPath id="a"><rect width="45.417" height="40.634" fill="#1f526c"/></clipPath></defs><g clip-path="url(#a)"><path d="M0,102.436c.193-.287.4-.557.791-.56.322,0,.643,0,1.008,0v-.632q0-11.155,0-22.31a3.336,3.336,0,0,1,2.278-3.386A4.09,4.09,0,0,1,5.3,75.369c2.41-.016,4.82-.008,7.23-.008.074,0,.148,0,.222.007a.657.657,0,0,1,.644.654.665.665,0,0,1-.631.673c-.25.021-.5.007-.754.007q-3.349,0-6.7,0A1.969,1.969,0,0,0,3.171,78.82q-.006,11.31,0,22.621c0,.117.011.234.02.4.165.009.321.025.476.025.8,0,1.6-.005,2.4,0,.511.006.772.236.781.651s-.277.7-.787.7c-1.375.007-2.75,0-4.125,0H1.405a1.9,1.9,0,0,0,1.5,2.43,3.829,3.829,0,0,0,.617.048q19.183,0,38.367,0a1.977,1.977,0,0,0,2.154-2.479h-.554q-17.032,0-34.064,0a1.174,1.174,0,0,1-.642-.083,1.079,1.079,0,0,1-.415-.648.557.557,0,0,1,.536-.6,3.983,3.983,0,0,1,.575-.024h32.77v-.62q0-7.629,0-15.258a3.361,3.361,0,0,1,.01-.443.674.674,0,0,1,1.346-.018,3.566,3.566,0,0,1,.013.487q0,7.629,0,15.258v.6c.326,0,.616-.011.905,0a.82.82,0,0,1,.889.925,9.715,9.715,0,0,1-.095,1.763,3.163,3.163,0,0,1-2.971,2.48c-.192.008-.384,0-.576,0-12.6,0-25.193-.017-37.79.019-1.8.005-3.35-.5-3.984-2.674Z" transform="translate(0 -66.427)" fill="#1f526c"/><path d="M39.055,99.225v19.8h33.7v-19.8h-.465q-3.415,0-6.83,0a1.42,1.42,0,0,1-.478-.054.612.612,0,0,1-.431-.693.622.622,0,0,1,.665-.584q4.125,0,8.25,0a.626.626,0,0,1,.664.583,2.861,2.861,0,0,1,.022.486q0,10.179,0,20.358c0,.918-.176,1.1-1.081,1.1H38.742c-.907,0-1.084-.178-1.084-1.093q0-10.179,0-20.358c0-.919.158-1.075,1.084-1.075q3.9,0,7.806,0c.511,0,.824.265.817.669s-.325.658-.832.665c-.1,0-.207,0-.311,0H39.055Z" transform="translate(-33.194 -86.287)" fill="#1f526c"/><path d="M139.645,8.139a8.15,8.15,0,1,1-7.754-8.13,7.9,7.9,0,0,1,4.781,1.869c.392.326.478.722.232,1.036-.271.346-.648.346-1.085,0A6.791,6.791,0,1,0,137.654,5.3a1.656,1.656,0,0,1-.173-.5.616.616,0,0,1,.494-.693.6.6,0,0,1,.765.368,23.559,23.559,0,0,1,.751,2.257,8.988,8.988,0,0,1,.155,1.405" transform="translate(-108.725 0.001)" fill="#1f526c"/><path d="M131.415,219.958q-3.126,0-6.251,0a1.639,1.639,0,0,1-1.879-1.867c0-.576-.012-1.153,0-1.729a1.562,1.562,0,0,1,1.638-1.6c.414,0,.828-.008,1.241,0a.672.672,0,0,1,.723.671.661.661,0,0,1-.729.659c-.354.01-.71.014-1.064,0-.334-.014-.489.1-.473.461a12.919,12.919,0,0,1,0,1.462c-.031.441.107.593.566.586,1.625-.025,3.251-.01,4.877-.01,2.527,0,5.054-.009,7.581.009.44,0,.618-.111.581-.571a9.141,9.141,0,0,1,0-1.373c.03-.426-.119-.579-.55-.568-.99.023-1.98.007-2.97.007-1.847,0-3.695.013-5.542-.017a.95.95,0,0,1-.674-.367.708.708,0,0,1,.067-.672,1.015,1.015,0,0,1,.694-.268c2.158-.02,4.315-.012,6.473-.012.739,0,1.478,0,2.217,0a1.558,1.558,0,0,1,1.619,1.576c.02.62.011,1.241.005,1.862a1.605,1.605,0,0,1-1.764,1.758c-2.128.007-4.256,0-6.384,0" transform="translate(-108.669 -189.302)" fill="#1f526c"/><path d="M149.391,36.36a2.776,2.776,0,0,1,.291-.448q1.574-1.591,3.163-3.168a.9.9,0,0,1,1.431-.022q.732.709,1.441,1.442a.884.884,0,0,1,0,1.367c-1.656,1.666-3.312,3.333-4.986,4.981a1.946,1.946,0,0,1-2.823-.009c-.88-.854-1.742-1.727-2.6-2.6a.886.886,0,0,1,0-1.366q.726-.747,1.473-1.473a.869.869,0,0,1,1.361.011c.39.383.763.782,1.25,1.285m4.148-2.415c-1.123,1.127-2.237,2.247-3.353,3.365-.655.656-1.057.657-1.715-.015-.327-.335-.628-.7-.93-1.031l-.988.977q1.067,1.066,2.128,2.125c.512.51.8.513,1.3.007q2.132-2.129,4.261-4.261c.079-.08.152-.166.241-.263l-.947-.9" transform="translate(-127.802 -28.542)" fill="#1f526c"/><path d="M74.343,139.029a4.228,4.228,0,1,1-4.217-4.245,4.25,4.25,0,0,1,4.217,4.245m-4.229-2.879a2.882,2.882,0,1,0,2.879,2.9,2.857,2.857,0,0,0-2.879-2.9" transform="translate(-58.078 -118.809)" fill="#1f526c"/><path d="M163.725,180.4h-8.242c-.118,0-.237,0-.354,0a.682.682,0,1,1-.032-1.361c.132-.012.266-.005.4-.005q8.242,0,16.484,0a1.165,1.165,0,0,1,.6.065c.2.141.451.393.456.6s-.231.469-.426.626c-.124.1-.367.07-.556.07q-4.165.005-8.331,0" transform="translate(-136.083 -157.807)" fill="#1f526c"/><path d="M275.653,75.335c1.152,0,2.3-.016,3.456,0a3.321,3.321,0,0,1,3.4,3.382c.026,1.27.01,2.54,0,3.81,0,.54-.273.848-.7.837-.41-.011-.661-.31-.664-.829-.007-1.241,0-2.481,0-3.722a1.98,1.98,0,0,0-2.156-2.141q-3.5,0-7,0a3.093,3.093,0,0,1-.354-.005.671.671,0,0,1-.621-.682.636.636,0,0,1,.65-.643c.8-.018,1.595-.009,2.392-.011q.8,0,1.6,0" transform="translate(-238.896 -66.402)" fill="#1f526c"/><path d="M193.437,157.084h-6.295c-.1,0-.207,0-.31,0-.577-.012-.908-.266-.9-.69s.342-.676.916-.676q6.561,0,13.122,0a1.52,1.52,0,0,1,.436.048.616.616,0,0,1,.476.662.609.609,0,0,1-.531.616,2.8,2.8,0,0,1-.528.038q-3.192,0-6.384,0" transform="translate(-163.893 -137.26)" fill="#1f526c"/><path d="M155.614,155.706a3.612,3.612,0,0,1,.529,0,.645.645,0,0,1,.633.665.614.614,0,0,1-.617.669,7.313,7.313,0,0,1-1.1,0,.647.647,0,0,1-.645-.657.685.685,0,0,1,.672-.684c.175-.017.353,0,.529,0v0" transform="translate(-136.11 -137.245)" fill="#1f526c"/></g></svg>