<svg xmlns="http://www.w3.org/2000/svg" xmlns:xlink="http://www.w3.org/1999/xlink" width="127.982" height="122.477" viewBox="0 0 127.982 122.477">
  <defs>
    <clipPath id="clip-path">
      <rect id="Rectangle_227" data-name="Rectangle 227" width="127.982" height="122.477" fill="none"/>
    </clipPath>
  </defs>
  <g id="Group_417" data-name="Group 417" transform="translate(0 0)">
    <g id="Group_416" data-name="Group 416" transform="translate(0 0)" clip-path="url(#clip-path)">
      <path id="Path_266" data-name="Path 266" d="M127.982,60.265v2.249c-.784,4.241-3.811,6.737-7.042,9.089-2.155,1.569-4.243,3.225-6.411,4.777a1.527,1.527,0,0,0-.682,1.962c1.093,3.925,2.434,7.782,3.267,11.779a10.405,10.405,0,0,1-1.061,7.954c-1.9,3.075-4.8,4.34-8.24,4.688-4.074.409-8.159.205-12.239.234a1.176,1.176,0,0,0-1.348.919c-.452,1.425-.992,2.825-1.509,4.23a64.11,64.11,0,0,1-3.645,9.011,9.2,9.2,0,0,1-6.533,4.771c-2.31.459-4.433-.382-6.564-1.1-3.311-1.114-5.85-3.469-8.682-5.352-1.108-.736-2.191-1.95-3.355-2.037-1.179-.089-2.21,1.3-3.312,2.033-1.457.965-2.876,1.989-4.327,2.966a34.756,34.756,0,0,1-5.245,3.132,8.438,8.438,0,0,1-5.1.784c-3.861-.734-6.328-3.12-7.891-6.6-1.658-3.685-2.869-7.539-4.233-11.334a1.545,1.545,0,0,0-1.79-1.207,91.392,91.392,0,0,1-12.6-.448c-6.062-.756-9.5-5.108-8.719-11.128.484-3.733,1.848-7.247,2.821-10.857.3-1.12,1-2.356.749-3.337-.259-1-1.69-1.488-2.6-2.209-3.064-2.427-6.35-4.593-9.047-7.462A9.157,9.157,0,0,1,.282,59a10.909,10.909,0,0,1,3.759-5.616c2.924-2.614,6.093-4.916,9.238-7.247a1.894,1.894,0,0,0,.848-2.437C13,39.827,11.785,35.976,10.885,32.04c-.878-3.849-.342-7.283,2.738-10.037a11.15,11.15,0,0,1,6.668-2.482c3.943-.39,7.91-.161,11.861-.378a1.7,1.7,0,0,0,1.867-1.336c.747-2.379,1.631-4.716,2.491-7.058a30.539,30.539,0,0,1,2.9-6.481A9.009,9.009,0,0,1,47.532,0c2.933.049,5.335,1.5,7.621,3.122C57.765,4.98,60.352,6.87,63,8.682a1.662,1.662,0,0,0,2.274-.076c2.124-1.538,4.294-3.014,6.463-4.489A32.215,32.215,0,0,1,77.1.938,8.316,8.316,0,0,1,81.714.183c4.041.633,6.62,3.058,8.247,6.674,1.659,3.686,2.827,7.557,4.22,11.342a1.488,1.488,0,0,0,1.7,1.157,105.275,105.275,0,0,1,12.355.406c6.354.65,10.024,5.281,9.028,11.583-.7,4.409-2.28,8.6-3.45,12.887a1.326,1.326,0,0,0,.55,1.678c2.415,1.778,4.771,3.632,7.151,5.456,3.036,2.326,5.883,4.79,6.466,8.9m-72.6,29.026a5.592,5.592,0,0,0,4.09-1.835q18.653-18.269,37.33-36.517a5.344,5.344,0,0,0,.311-7.7c-2.158-2.229-5.418-2.177-7.789.134q-16.419,16-32.818,32.017c-.771.756-1.124.691-1.8-.086q-5.446-6.273-11-12.45a5.224,5.224,0,0,0-7.5-.422,5.282,5.282,0,0,0-.426,7.515q7.83,8.836,15.746,17.593a5.08,5.08,0,0,0,3.861,1.755" transform="translate(0 0)" fill="#8dc53f"/>
      <path id="Path_267" data-name="Path 267" d="M44.64,76.3a5.08,5.08,0,0,1-3.861-1.755Q32.89,65.765,25.033,56.953a5.282,5.282,0,0,1,.426-7.515,5.224,5.224,0,0,1,7.5.422q5.573,6.159,11,12.45c.675.776,1.028.842,1.8.086q16.378-16.04,32.818-32.017c2.372-2.311,5.632-2.363,7.789-.134a5.344,5.344,0,0,1-.311,7.7Q67.392,56.206,48.73,74.466A5.592,5.592,0,0,1,44.64,76.3" transform="translate(10.745 12.99)" fill="#fdfefd"/>
    </g>
  </g>
</svg>
