<svg xmlns="http://www.w3.org/2000/svg" xmlns:xlink="http://www.w3.org/1999/xlink" width="44.646" height="33.548" viewBox="0 0 44.646 33.548"><defs><clipPath id="a"><rect width="44.646" height="33.548" fill="#1f526c"/></clipPath></defs><g clip-path="url(#a)"><path d="M44.646,29.53c-.068.251-.129.5-.206.752a4.643,4.643,0,0,1-4.422,3.263q-17.7.006-35.4,0A4.621,4.621,0,0,1,.006,28.939q-.011-12.165,0-24.331A4.62,4.62,0,0,1,4.618,0q17.7-.008,35.4,0A4.634,4.634,0,0,1,44.557,3.73c.02.1.059.192.089.288ZM22.361,1.871q-8.719,0-17.438,0a2.774,2.774,0,0,0-3.05,2.939q-.015,11.968,0,23.937a2.881,2.881,0,0,0,.5,1.729,2.91,2.91,0,0,0,2.565,1.2q7.76-.014,15.52,0,9.635,0,19.269,0a2.777,2.777,0,0,0,3.05-2.94q.016-11.968,0-23.937a2.889,2.889,0,0,0-.5-1.729,2.9,2.9,0,0,0-2.565-1.2q-8.675.013-17.351,0" transform="translate(0 0)" fill="#1f526c"/><path d="M56.394,161.607c-1.22,0-2.44-.007-3.659,0a2.72,2.72,0,0,0-2.785,2.606c-.049.71-.021,1.425-.047,2.137a.848.848,0,0,1-.566.761.815.815,0,0,1-.931-.149.887.887,0,0,1-.32-.542,16.413,16.413,0,0,1,.141-3.166,4.484,4.484,0,0,1,4.363-3.532c2.555-.042,5.112-.047,7.667,0A4.628,4.628,0,0,1,64.8,164.4c0,.6.005,1.193,0,1.79a.929.929,0,1,1-1.854.047c-.029-.712.008-1.427-.046-2.137a2.721,2.721,0,0,0-2.671-2.49l-.131,0h-3.7" transform="translate(-42.478 -141.088)" fill="#1f526c"/><path d="M79.848,68.563A4.651,4.651,0,1,1,84.563,73.2a4.685,4.685,0,0,1-4.715-4.638m4.652-2.8a2.779,2.779,0,1,0,2.789,2.8,2.786,2.786,0,0,0-2.789-2.8" transform="translate(-70.547 -56.428)" fill="#1f526c"/><path d="M230.151,207.843c1.757,0,3.515,0,5.272,0a1.813,1.813,0,0,1,.555.071.923.923,0,0,1,.014,1.746,1.584,1.584,0,0,1-.511.074q-5.381.006-10.762,0a.99.99,0,0,1-1.1-.724.951.951,0,0,1,1.04-1.17c1.83-.007,3.66,0,5.49,0" transform="translate(-197.548 -183.63)" fill="#1f526c"/><path d="M230.119,81.78c-1.844,0-3.688,0-5.532,0a.929.929,0,1,1-.068-1.857c.144-.013.29-.01.435-.01h8.1c.857,0,1.714-.01,2.57.006a.919.919,0,0,1,1,.833.929.929,0,0,1-1.015,1.029q-2.744.006-5.488,0" transform="translate(-197.562 -70.599)" fill="#1f526c"/><path d="M230.143,144.007c1.844,0,3.688,0,5.532,0a.935.935,0,0,1,.954.731.924.924,0,0,1-.53,1.041,1.53,1.53,0,0,1-.552.092q-5.423.008-10.846,0a.935.935,0,0,1-1.056-.762.9.9,0,0,1,.585-1.043,1.624,1.624,0,0,1,.512-.059q2.7-.006,5.4,0" transform="translate(-197.579 -127.231)" fill="#1f526c"/></g></svg>