<svg xmlns="http://www.w3.org/2000/svg" xmlns:xlink="http://www.w3.org/1999/xlink" width="58.477" height="37.451" viewBox="0 0 58.477 37.451"><defs><clipPath id="a"><rect width="58.477" height="37.451" fill="#1d4f68"/></clipPath></defs><g clip-path="url(#a)"><path d="M0,55.985a4.472,4.472,0,0,1,2.874-3c.664-.277,1.289-.649,1.939-.963a1.064,1.064,0,0,0,.673-1.084.345.345,0,0,1,0-.057,2.639,2.639,0,0,0-.968-2.567,5.367,5.367,0,0,1-1.761-4.129,21.815,21.815,0,0,1,.1-3.071A5.883,5.883,0,0,1,5.3,37.084a.582.582,0,0,0,.27-.661A3.479,3.479,0,0,1,7.1,32.758a3.517,3.517,0,0,1,3.975-.013,3.513,3.513,0,0,1,1.558,3.661.572.572,0,0,0,.234.662,6.1,6.1,0,0,1,2.561,4.922c.039,1.611.22,3.27-.628,4.738A13.023,13.023,0,0,1,13.081,48.9a1.038,1.038,0,0,0-.389.875,1.8,1.8,0,0,1,0,.456,1.726,1.726,0,0,0,1.214,2.089.84.84,0,0,1,.533,1.2.877.877,0,0,1-1.264.343c-.38-.171-.745-.378-1.166-.594-.624.63-1.278,1.265-1.894,1.935a1,1,0,0,0-.159.626c-.01,2.607-.006,5.213-.007,7.82a5.651,5.651,0,0,1-.017.57.843.843,0,0,1-1.663.1,2.486,2.486,0,0,1-.04-.623c0-2.607-.01-5.214.008-7.82a1.174,1.174,0,0,0-.4-.941c-.576-.55-1.118-1.135-1.644-1.674L2.278,55.248c.615.587,1.151,1.114,1.7,1.623a4.084,4.084,0,0,1,1.4,3.347c-.052,1.235-.007,2.473-.013,3.71,0,.664-.332,1.064-.852,1.063s-.855-.4-.858-1.064c-.005-1.275-.02-2.55.005-3.824a2.36,2.36,0,0,0-.778-1.88c-.368-.344-.7-.728-1.046-1.093l-.13.071v2.087c0,1.5-.006,3.006,0,4.51,0,.483-.039.921-.566,1.127S.3,64.8,0,64.435ZM4.5,43.963A4.548,4.548,0,0,0,9.1,48.594c2.439,0,4.7-2.132,4.526-4.3-.375.046-.749.113-1.124.133A6.921,6.921,0,0,1,7.6,42.784c-.194-.159-.336-.36-.675-.151C6.161,43.1,5.35,43.5,4.5,43.963m9.174-1.489a4.582,4.582,0,0,0-4.482-4.917A4.531,4.531,0,0,0,4.554,42.1c.635-.421,1.227-.747,1.741-1.168.887-.727,1.139-.726,1.945.084a5.255,5.255,0,0,0,5.437,1.458M9.106,53.792c.641-.66,1.223-1.255,1.8-1.858a.46.46,0,0,0,.139-.29c-.025-.508-.075-1.014-.106-1.41H7.169c0,.389-.015.862.009,1.333a.748.748,0,0,0,.19.437c.544.58,1.107,1.143,1.738,1.788M7.229,35.91h3.727a1.744,1.744,0,0,0-.881-1.745,1.762,1.762,0,0,0-2.037.048,1.78,1.78,0,0,0-.809,1.7" transform="translate(0 -27.54)" fill="#1d4f68"/><path d="M117.559,23.268c.892.887,1.684,1.706,2.51,2.488a4.1,4.1,0,0,1,1.324,3.155c-.014,2.436,0,4.872-.007,7.308,0,.207.03.472-.079.61-.2.247-.477.562-.74.579a1.192,1.192,0,0,1-.8-.484,1.342,1.342,0,0,1-.126-.767c-.008-2.436-.02-4.872,0-7.308a2.356,2.356,0,0,0-.758-1.826,25.043,25.043,0,0,0-2.059-1.908c-.01.19-.028.38-.028.569q0,5.167,0,10.334c0,.209,0,.419-.021.627a.8.8,0,0,1-.813.794.81.81,0,0,1-.858-.687,2.367,2.367,0,0,1-.042-.566q0-5.31,0-10.619a4.618,4.618,0,0,1,2.953-4.579c1.477-.65,2.941-1.33,4.426-1.961a1.269,1.269,0,0,0,.873-1.3,2.107,2.107,0,0,0-.676-1.739,7.111,7.111,0,0,1-2.1-4.972,1.941,1.941,0,0,0-.3-.669,3.593,3.593,0,0,1-.542-1.095,8.729,8.729,0,0,1,1.079-5.824,7.119,7.119,0,0,1,6-3.392,11.462,11.462,0,0,1,4.4.41,7.338,7.338,0,0,1,4.864,6.8,2.089,2.089,0,0,1-.669,1.635,1.085,1.085,0,0,0-.233.64c-.121,1.148-.126,2.317-.346,3.444a6.236,6.236,0,0,1-2.049,3.351,1.793,1.793,0,0,0,.384,2.656c1.522.689,3.05,1.364,4.577,2.042a4.569,4.569,0,0,1,2.912,4.488c.011,3.578,0,7.156,0,10.733,0,.224.022.521-.1.656a1.551,1.551,0,0,1-.84.532.712.712,0,0,1-.755-.7,5.814,5.814,0,0,1-.032-.683q0-5.2,0-10.391a1.1,1.1,0,0,0-.16-.593c-.826.893-1.68,1.762-2.456,2.7a1.76,1.76,0,0,0-.211,1.033c-.017,2.322-.009,4.644-.009,6.965,0,.133,0,.266,0,.4q0,1.289-.861,1.309c-.584.014-.89-.439-.891-1.331q0-2.683,0-5.367c0-.761.007-1.522.024-2.283a3.751,3.751,0,0,1,1.247-2.662c.829-.809,1.646-1.631,2.555-2.533a9.833,9.833,0,0,0-1.038-.644c-1.45-.664-2.914-1.3-4.365-1.958a.519.519,0,0,0-.692.127c-1,1.022-2.027,2.011-3.01,3.045a1.268,1.268,0,0,0-.279.8c-.018,3.806-.012,7.612-.012,11.419q0,1.411-.9,1.382c-.582-.018-.859-.457-.859-1.369,0-3.806-.005-7.612.007-11.418a1.191,1.191,0,0,0-.392-.947c-.985-.952-1.935-1.94-2.923-2.889a.708.708,0,0,0-.611-.155c-1.537.653-3.062,1.337-4.582,2.03a8.239,8.239,0,0,0-.9.568M134.225,7.519a5.461,5.461,0,0,0-3.638-5.439,10.146,10.146,0,0,0-4.178-.266,5.442,5.442,0,0,0-1.9.536c-2.648,1.336-3.412,3.753-3.04,6.737.446-.292.848-.56,1.256-.821a.879.879,0,0,1,1.187.117.855.855,0,0,1-.132,1.221c-.347.291-.763.5-1.107.794a.942.942,0,0,0-.348.606,5.332,5.332,0,0,0,2.023,4.216,5.417,5.417,0,0,0,6.521.347,5.772,5.772,0,0,0,2.416-6.059c-.474,0-.946-.01-1.418,0a11.849,11.849,0,0,1-3.883-.478,7.811,7.811,0,0,1-3.407-1.986,1.188,1.188,0,0,1-.24-.955.923.923,0,0,1,.693-.536,1.515,1.515,0,0,1,.885.413,7.527,7.527,0,0,0,2.859,1.479,12,12,0,0,0,5.449.07m-3.686,10.2a7.418,7.418,0,0,1-5.39-.006c-.141.523-.28,1.009-.4,1.5a.374.374,0,0,0,.068.3c1,1.008,2,2.006,3.03,3.032,1.018-1.02,2-2,2.966-2.984a.5.5,0,0,0,.1-.392c-.1-.475-.241-.942-.375-1.45" transform="translate(-98.605 0)" fill="#1d4f68"/><path d="M297.158,61.5c-.623.633-1.276,1.27-1.889,1.943a1.024,1.024,0,0,0-.141.633q-.012,5.251-.006,10.5c0,.171.009.344-.007.513a.889.889,0,0,1-.877.875.861.861,0,0,1-.831-.907c-.019-1.084-.01-2.169-.01-3.253,0-2.588.009-5.176-.014-7.763a1.313,1.313,0,0,0-.323-.784c-.542-.611-1.134-1.176-1.714-1.768-.2.1-.363.193-.535.259a.782.782,0,0,1-1.035-.342.73.73,0,0,1,.174-1.067c.826-.5.711-1.269.691-2.022a.65.65,0,0,0-.2-.387,5.441,5.441,0,0,1-1.622-4.179c.012-.376.024-.7-.47-.816a.686.686,0,0,1-.392-.5,8.242,8.242,0,0,1,.479-4.363,5.331,5.331,0,0,1,4.929-3.113,12.106,12.106,0,0,1,3.277.247,5.264,5.264,0,0,1,3.952,5c.034.645.009,1.294.011,1.94a.935.935,0,0,1-.585.892.645.645,0,0,0-.312.473,5.739,5.739,0,0,1-1.673,4.45,1.774,1.774,0,0,0,.488,2.284c1.439.732,2.879,1.464,4.333,2.165a3.789,3.789,0,0,1,2.331,3.765c-.038,2.853-.01,5.708-.011,8.562a2.65,2.65,0,0,1-.017.512.848.848,0,0,1-1.674-.006,2.756,2.756,0,0,1-.016-.512q0-4.253,0-8.505c0-.238-.032-.477-.058-.82-1.059.949-2.016,1.74-1.917,3.307.124,1.971.03,3.956.03,5.935,0,.152.007.305,0,.457a.876.876,0,0,1-.882.863.84.84,0,0,1-.817-.861c-.007-2.511-.025-5.023.024-7.534a3.349,3.349,0,0,1,1.168-2.281c.4-.4.818-.788,1.266-1.22L297.158,61.5m-6.6-7.96c0,.273,0,.425,0,.578a3.7,3.7,0,0,0,4.932,3.417c1.634-.564,2.514-2.016,2.5-4.057,0-.4-.153-.5-.508-.572a24.224,24.224,0,0,1-3.52-.876c-.938-.357-1.74-.648-2.523.2a.112.112,0,0,1-.05.026c-.709.211-1.021.659-.831,1.282m-.843-2.255c.732-.517,1.376-.934,1.975-1.408a1.068,1.068,0,0,1,1.348-.144,9.794,9.794,0,0,0,1.333.633,13.94,13.94,0,0,0,4.46.946,3.869,3.869,0,0,0-2.179-4.308,8.191,8.191,0,0,0-3.484-.294,3.767,3.767,0,0,0-3.454,4.574m2.608,7.851c.045.421-.032.813.13,1,.549.645,1.182,1.218,1.816,1.85.522-.529.988-1.056,1.511-1.516a1.048,1.048,0,0,0,.3-1.3,5.719,5.719,0,0,1-3.754-.039" transform="translate(-246.711 -38.522)" fill="#1d4f68"/></g></svg>