<svg xmlns="http://www.w3.org/2000/svg" xmlns:xlink="http://www.w3.org/1999/xlink" width="42.468" height="27.198" viewBox="0 0 42.468 27.198"><defs><clipPath id="a"><rect width="42.468" height="27.198" fill="#1d4f68"/></clipPath></defs><g transform="translate(0 21)"><g transform="translate(0 -21)" clip-path="url(#a)"><path d="M0,49.456A3.247,3.247,0,0,1,2.087,47.28c.483-.2.936-.471,1.408-.7a.773.773,0,0,0,.489-.788.251.251,0,0,1,0-.041,1.917,1.917,0,0,0-.7-1.864,3.9,3.9,0,0,1-1.279-3,15.843,15.843,0,0,1,.073-2.23A4.272,4.272,0,0,1,3.848,35.73a.423.423,0,0,0,.2-.48,2.527,2.527,0,0,1,1.112-2.662,2.554,2.554,0,0,1,2.887-.009,2.552,2.552,0,0,1,1.131,2.659.415.415,0,0,0,.17.481,4.432,4.432,0,0,1,1.86,3.574,6.277,6.277,0,0,1-.456,3.441A9.458,9.458,0,0,1,9.5,44.308a.754.754,0,0,0-.282.635,1.308,1.308,0,0,1,0,.331,1.253,1.253,0,0,0,.882,1.517.61.61,0,0,1,.387.87.637.637,0,0,1-.918.249c-.276-.124-.541-.274-.847-.431-.453.458-.928.918-1.375,1.405a.73.73,0,0,0-.115.455c-.007,1.893,0,3.786-.005,5.679a4.1,4.1,0,0,1-.012.414.613.613,0,0,1-1.208.076,1.805,1.805,0,0,1-.029-.453c0-1.893-.007-3.786.006-5.679a.852.852,0,0,0-.289-.684c-.418-.4-.812-.824-1.194-1.216L1.654,48.921c.447.426.836.809,1.238,1.179a2.966,2.966,0,0,1,1.016,2.43c-.038.9-.005,1.8-.009,2.694,0,.482-.241.773-.619.772s-.621-.293-.623-.772c0-.926-.015-1.852,0-2.777A1.714,1.714,0,0,0,2.1,51.081c-.267-.249-.507-.528-.759-.794l-.095.052v1.516c0,1.092,0,2.183,0,3.275,0,.351-.028.669-.411.818S.216,55.856,0,55.593Zm3.27-8.731a3.3,3.3,0,0,0,3.336,3.363,3.253,3.253,0,0,0,3.287-3.119c-.272.033-.544.082-.817.1a5.026,5.026,0,0,1-3.555-1.2c-.141-.116-.244-.261-.49-.11-.557.343-1.146.633-1.762.966m6.662-1.081a3.328,3.328,0,0,0-3.255-3.571,3.29,3.29,0,0,0-3.37,3.3c.461-.305.891-.542,1.264-.848C5.216,38,5.4,38,5.984,38.585a3.817,3.817,0,0,0,3.948,1.059m-3.32,8.219c.465-.479.888-.911,1.306-1.349a.334.334,0,0,0,.1-.211c-.018-.369-.054-.736-.077-1.024H5.206c0,.283-.011.626.006.968a.543.543,0,0,0,.138.317c.4.421.8.83,1.262,1.3M5.25,34.877H7.957a1.267,1.267,0,0,0-.64-1.267,1.28,1.28,0,0,0-1.479.035,1.293,1.293,0,0,0-.587,1.232" transform="translate(0 -28.798)" fill="#1d4f68"/><path d="M116.876,16.9c.648.644,1.223,1.239,1.823,1.807A2.976,2.976,0,0,1,119.66,21c-.01,1.769,0,3.538-.005,5.307,0,.151.022.342-.057.443-.142.179-.347.408-.537.42a.866.866,0,0,1-.581-.352.974.974,0,0,1-.091-.557c-.006-1.769-.015-3.538,0-5.307a1.711,1.711,0,0,0-.551-1.326,18.186,18.186,0,0,0-1.5-1.385c-.007.138-.021.276-.021.413q0,3.752,0,7.5c0,.152,0,.3-.016.455a.577.577,0,0,1-.59.577.588.588,0,0,1-.623-.5,1.719,1.719,0,0,1-.031-.411q0-3.856,0-7.712a3.354,3.354,0,0,1,2.144-3.325c1.073-.472,2.136-.966,3.214-1.424a.922.922,0,0,0,.634-.946,1.53,1.53,0,0,0-.491-1.263A5.164,5.164,0,0,1,119.041,8a1.409,1.409,0,0,0-.218-.486,2.61,2.61,0,0,1-.394-.795,6.339,6.339,0,0,1,.784-4.23A5.17,5.17,0,0,1,123.569.024a8.324,8.324,0,0,1,3.194.3A5.329,5.329,0,0,1,130.3,5.258a1.517,1.517,0,0,1-.486,1.187.788.788,0,0,0-.169.464c-.088.834-.091,1.683-.251,2.5a4.528,4.528,0,0,1-1.488,2.434,1.3,1.3,0,0,0,.279,1.929c1.105.5,2.215.99,3.324,1.483a3.318,3.318,0,0,1,2.115,3.259c.008,2.6,0,5.2,0,7.8,0,.163.016.379-.076.477a1.126,1.126,0,0,1-.61.387.517.517,0,0,1-.549-.509,4.222,4.222,0,0,1-.023-.5q0-3.773,0-7.546a.8.8,0,0,0-.116-.431c-.6.649-1.22,1.28-1.784,1.958a1.278,1.278,0,0,0-.153.75c-.013,1.686-.007,3.372-.007,5.058,0,.1,0,.194,0,.29q0,.936-.625.95c-.424.01-.646-.319-.647-.967q0-1.949,0-3.9c0-.553,0-1.105.018-1.658a2.724,2.724,0,0,1,.906-1.933c.6-.588,1.2-1.184,1.856-1.84a7.142,7.142,0,0,0-.754-.468c-1.053-.482-2.116-.941-3.17-1.422a.377.377,0,0,0-.5.092c-.723.742-1.472,1.46-2.186,2.211a.921.921,0,0,0-.2.584c-.013,2.764-.009,5.528-.009,8.293q0,1.025-.656,1c-.422-.013-.624-.332-.624-.994,0-2.764,0-5.528.005-8.292a.865.865,0,0,0-.285-.688c-.716-.691-1.406-1.409-2.123-2.1a.514.514,0,0,0-.444-.113c-1.117.474-2.224.971-3.328,1.474a5.983,5.983,0,0,0-.653.412m12.1-11.438a3.966,3.966,0,0,0-2.642-3.95,7.369,7.369,0,0,0-3.035-.193,3.952,3.952,0,0,0-1.378.39c-1.923.97-2.478,2.725-2.208,4.893.324-.212.616-.407.912-.6a.639.639,0,0,1,.862.085.621.621,0,0,1-.1.886c-.252.211-.554.363-.8.577a.684.684,0,0,0-.253.44,3.872,3.872,0,0,0,1.469,3.062,3.934,3.934,0,0,0,4.736.252,4.191,4.191,0,0,0,1.754-4.4c-.344,0-.687-.007-1.03,0a8.605,8.605,0,0,1-2.82-.347,5.673,5.673,0,0,1-2.474-1.442.862.862,0,0,1-.175-.694.67.67,0,0,1,.5-.389,1.1,1.1,0,0,1,.643.3,5.466,5.466,0,0,0,2.076,1.074,8.712,8.712,0,0,0,3.957.051M126.3,12.87a5.387,5.387,0,0,1-3.915,0c-.1.38-.2.733-.289,1.089a.271.271,0,0,0,.049.218c.723.732,1.453,1.457,2.2,2.2.74-.741,1.452-1.449,2.154-2.167a.361.361,0,0,0,.073-.285c-.075-.345-.175-.684-.273-1.053" transform="translate(-103.111 0)" fill="#1d4f68"/><path d="M294.62,56.972c-.452.46-.927.922-1.372,1.411a.744.744,0,0,0-.1.46q-.009,3.814,0,7.628c0,.124.007.249,0,.373a.646.646,0,0,1-.637.636.626.626,0,0,1-.6-.659c-.014-.787-.007-1.575-.007-2.363,0-1.879.007-3.759-.01-5.638a.953.953,0,0,0-.234-.57c-.393-.443-.823-.854-1.245-1.284-.146.072-.264.14-.389.188a.568.568,0,0,1-.752-.248.53.53,0,0,1,.126-.775c.6-.361.516-.922.5-1.468a.472.472,0,0,0-.143-.281,3.952,3.952,0,0,1-1.178-3.035c.008-.273.018-.508-.342-.592a.5.5,0,0,1-.285-.366,5.985,5.985,0,0,1,.348-3.169,3.872,3.872,0,0,1,3.579-2.26,8.791,8.791,0,0,1,2.38.179,3.823,3.823,0,0,1,2.87,3.632c.024.469.007.939.008,1.409a.679.679,0,0,1-.425.648.469.469,0,0,0-.227.344,4.168,4.168,0,0,1-1.215,3.232,1.288,1.288,0,0,0,.354,1.659c1.045.532,2.091,1.063,3.147,1.572a2.752,2.752,0,0,1,1.693,2.734c-.028,2.072-.007,4.145-.008,6.218a1.923,1.923,0,0,1-.012.372.616.616,0,0,1-1.216,0,2,2,0,0,1-.012-.372q0-3.088,0-6.177c0-.173-.024-.346-.042-.6-.769.689-1.464,1.264-1.392,2.4.09,1.431.022,2.873.022,4.31,0,.111.005.222,0,.332a.636.636,0,0,1-.64.627.61.61,0,0,1-.593-.625c-.005-1.824-.018-3.648.017-5.471a2.432,2.432,0,0,1,.848-1.657c.293-.29.594-.572.919-.886l-3.717-1.868m-4.8-5.781c0,.2,0,.309,0,.419a2.684,2.684,0,0,0,3.582,2.481,2.814,2.814,0,0,0,1.816-2.946c0-.288-.111-.36-.369-.416a17.592,17.592,0,0,1-2.557-.636c-.681-.259-1.264-.47-1.833.148a.081.081,0,0,1-.037.019c-.515.153-.742.478-.6.931m-.612-1.638c.532-.376,1-.678,1.434-1.022a.776.776,0,0,1,.979-.1,7.11,7.11,0,0,0,.968.46,10.124,10.124,0,0,0,3.239.687,2.81,2.81,0,0,0-1.582-3.129,5.948,5.948,0,0,0-2.53-.213,2.736,2.736,0,0,0-2.508,3.322m1.894,5.7c.033.306-.023.591.094.728.4.468.859.884,1.319,1.344.379-.385.717-.767,1.1-1.1a.761.761,0,0,0,.216-.942,4.153,4.153,0,0,1-2.726-.029" transform="translate(-257.983 -40.282)" fill="#1d4f68"/></g></g></svg>