<svg xmlns="http://www.w3.org/2000/svg" xmlns:xlink="http://www.w3.org/1999/xlink" width="43.074" height="43.054" viewBox="0 0 43.074 43.054"><defs><clipPath id="a"><rect width="43.074" height="43.054" fill="#1f526c"/></clipPath></defs><g clip-path="url(#a)"><path d="M4.96,3.528c0-.527-.006-1,0-1.463a2.114,2.114,0,0,1,4.228,0c.008.469,0,.937,0,1.437h3.533c0-.452,0-.9,0-1.352a2.115,2.115,0,1,1,4.23.012c0,.438,0,.877,0,1.343h4.238c0-.476,0-.942,0-1.408a2.114,2.114,0,0,1,4.229-.016c.006.467,0,.934,0,1.426h3.532c0-.419,0-.853,0-1.287a2.118,2.118,0,1,1,4.231,0c0,.422,0,.845,0,1.311.507,0,.974,0,1.44,0a3.5,3.5,0,0,1,3.5,3.508q.008,9.677-.005,19.355a.672.672,0,0,0,.417.7A8.459,8.459,0,1,1,27.5,39.157a.682.682,0,0,0-.666-.361c-7.688.009-15.375-.022-23.063.027A3.716,3.716,0,0,1,0,35.056Q.067,21.169,0,7.281a3.632,3.632,0,0,1,3.76-3.756c.379.023.76,0,1.2,0M36.7,12.022H1.428v.465q0,11.243,0,22.486A2.174,2.174,0,0,0,3.85,37.4H26.572a8.633,8.633,0,0,1,3.264-9.882c-.559,0-1.051.007-1.543,0a.675.675,0,0,1-.747-.733q-.012-2.094,0-4.189a.662.662,0,0,1,.719-.714q2.095-.013,4.189,0a.673.673,0,0,1,.729.751c.008.955,0,1.911,0,2.866,0,.231,0,.461,0,.6l3.517.157Zm0-1.459c0-1.265.059-2.514-.019-3.753a1.961,1.961,0,0,0-1.793-1.833,13.38,13.38,0,0,0-1.7-.013c0,.482,0,.949,0,1.415a2.114,2.114,0,0,1-4.229,0c-.006-.466,0-.933,0-1.416H25.423c0,.17,0,.314,0,.458,0,2.094-.67,3.048-2.127,3.044-1.433,0-2.1-.965-2.1-3.022,0-.157,0-.313,0-.475H16.954c0,.469,0,.908,0,1.347a2.115,2.115,0,1,1-4.23,0c0-.45,0-.9,0-1.343H9.191c0,.473,0,.913,0,1.353A2.115,2.115,0,1,1,4.96,6.3c0-.449,0-.9,0-1.366-.491,0-.916-.006-1.341,0A2.136,2.136,0,0,0,1.43,7.148c-.009,1.029,0,2.058,0,3.086,0,.111.021.222.031.327ZM27.541,34.546a7.058,7.058,0,1,0,7.1-7.031,7.1,7.1,0,0,0-7.1,7.031m1.442-8.475h2.772V23.3H28.983ZM6.368,4.234c0,.659-.006,1.319,0,1.978.006.507.294.84.708.838s.7-.335.7-.843q.009-1.978,0-3.956c0-.508-.295-.84-.708-.838s-.7.335-.7.843c-.007.659,0,1.319,0,1.978m9.177,0c0-.659.006-1.319,0-1.978-.006-.508-.293-.841-.706-.841s-.7.332-.705.84q-.009,1.978,0,3.956c0,.509.291.841.7.841s.7-.332.706-.84c.007-.659,0-1.319,0-1.978M22.6,4.186c0,.674-.005,1.348,0,2.022.005.508.291.841.7.842s.7-.331.707-.839q.009-1.978,0-3.956c0-.509-.291-.841-.7-.842s-.7.331-.707.839c-.007.645,0,1.289,0,1.934m9.177.044c0-.659.006-1.319,0-1.978-.006-.508-.294-.84-.707-.839s-.7.334-.7.842q-.008,1.978,0,3.956c0,.508.294.84.707.839s.7-.334.7-.842c.007-.659,0-1.319,0-1.978" transform="translate(-0.001 0)" fill="#1f526c"/><path d="M41.74,122.617c0,.66,0,1.32,0,1.98,0,.561-.248.818-.793.82q-2.025.007-4.05,0c-.549,0-.8-.256-.8-.814q-.005-2,0-4c0-.578.248-.818.836-.82q1.981,0,3.962,0c.606,0,.84.242.843.858,0,.66,0,1.32,0,1.98m-4.2,1.37H40.3V121.2H37.54Z" transform="translate(-31.843 -105.666)" fill="#1f526c"/><path d="M107.638,122.6c0,.66,0,1.32,0,1.98,0,.589-.242.838-.817.84q-2,.006-4.005,0c-.576,0-.817-.25-.818-.839q0-1.98,0-3.961c0-.6.243-.839.86-.84q1.959,0,3.918,0c.633,0,.861.236.863.882s0,1.291,0,1.936m-1.44-1.376h-2.771v2.77H106.2Z" transform="translate(-89.979 -105.668)" fill="#1f526c"/><path d="M170.692,125.417c-.675,0-1.35.005-2.025,0a.692.692,0,0,1-.778-.79q-.007-2.024,0-4.049c0-.552.253-.8.811-.8q2-.006,4.005,0c.579,0,.822.248.823.834q0,1.98,0,3.961c0,.607-.242.843-.857.845-.66,0-1.32,0-1.981,0m-1.365-1.443H172.1V121.2h-2.771Z" transform="translate(-148.108 -105.664)" fill="#1f526c"/><path d="M236.584,125.417c-.66,0-1.321,0-1.981,0-.56,0-.816-.248-.818-.794q-.007-2.024,0-4.049c0-.548.256-.794.815-.8q2-.005,4.006,0c.577,0,.818.249.819.838q0,1.98,0,3.961c0,.6-.245.839-.861.841-.66,0-1.321,0-1.981,0M238,121.208h-2.776v2.768H238Z" transform="translate(-206.242 -105.664)" fill="#1f526c"/><path d="M36.1,188.44c0-.66,0-1.32,0-1.98,0-.55.254-.8.813-.8q2-.006,4.006,0c.578,0,.82.248.822.835q0,1.98,0,3.961c0,.606-.243.843-.858.844q-1.959,0-3.917,0c-.635,0-.864-.236-.866-.88,0-.66,0-1.32,0-1.98m4.2-1.337H37.53v2.77H40.3Z" transform="translate(-31.844 -163.787)" fill="#1f526c"/><path d="M104.836,185.654c.675,0,1.35-.006,2.025,0a.683.683,0,0,1,.764.759q.01,2.068,0,4.137a.672.672,0,0,1-.737.741q-2.091.011-4.182,0a.663.663,0,0,1-.718-.714q-.013-2.09,0-4.181a.672.672,0,0,1,.736-.74c.7-.01,1.409,0,2.113,0M106.2,187.1h-2.787v2.763H106.2Z" transform="translate(-89.968 -163.781)" fill="#1f526c"/><path d="M173.53,188.525c0,.645,0,1.291,0,1.936,0,.588-.243.836-.819.838q-2,.006-4.006,0c-.559,0-.813-.249-.815-.8q-.007-2.024,0-4.049c0-.547.257-.792.818-.793q2-.005,4.005,0c.575,0,.814.25.817.84,0,.675,0,1.35,0,2.024m-1.439-1.424h-2.773v2.77h2.773Z" transform="translate(-148.108 -163.786)" fill="#1f526c"/><path d="M38.951,251.543c.66,0,1.32,0,1.981,0,.554,0,.8.251.8.808q.006,2.024,0,4.049a.692.692,0,0,1-.786.782q-2.025.008-4.05,0c-.553,0-.8-.253-.8-.808q-.006-2.024,0-4.049a.692.692,0,0,1,.785-.781c.69-.006,1.379,0,2.069,0m1.355,1.435H37.534v2.779h2.771Z" transform="translate(-31.841 -221.908)" fill="#1f526c"/><path d="M104.855,251.544c.66,0,1.321,0,1.981,0,.55,0,.8.255.8.813q.006,2,0,4c0,.578-.249.82-.836.821q-1.981,0-3.962,0c-.591,0-.841-.24-.842-.814q-.006-2,0-4c0-.579.248-.818.835-.821.675,0,1.35,0,2.025,0m1.345,1.44h-2.763v2.785H106.2Z" transform="translate(-89.977 -221.909)" fill="#1f526c"/><path d="M167.9,254.365c0-.66,0-1.32,0-1.98,0-.591.24-.839.815-.841q2-.006,4.006,0c.577,0,.818.249.82.837q0,1.981,0,3.961c0,.6-.244.841-.86.842q-1.959,0-3.918,0c-.634,0-.862-.236-.864-.882s0-1.291,0-1.936m1.429,1.381h2.771v-2.772h-2.771Z" transform="translate(-148.115 -221.909)" fill="#1f526c"/><path d="M260.834,254.776l-.888-1.11c.794-.638,1.566-1.245,2.32-1.876a1.344,1.344,0,0,0,.246-.462c.154-.322.305-.645.453-.97a1.729,1.729,0,0,0,.242-.6c.022-1.319.011-2.639.011-3.983h1.408v.458c0,1.176-.012,2.352.011,3.528a.976.976,0,0,0,.251.592,1.446,1.446,0,0,1,.306,1.661,1.477,1.477,0,0,1-1.5.791.9.9,0,0,0-.574.156c-.76.578-1.5,1.184-2.287,1.816" transform="translate(-229.323 -216.821)" fill="#1f526c"/></g></svg>