<svg xmlns="http://www.w3.org/2000/svg" xmlns:xlink="http://www.w3.org/1999/xlink" width="26.901" height="26.901" viewBox="0 0 26.901 26.901"><defs><clipPath id="a"><rect width="26.901" height="26.901" fill="#1d506a"/></clipPath></defs><g clip-path="url(#a)"><path d="M22.7,0h.315a.614.614,0,0,1,.314.613c-.016.389,0,.779,0,1.176.324,0,.6,0,.884,0A2.684,2.684,0,0,1,26.9,4.5q0,9.851,0,19.7a2.669,2.669,0,0,1-2.7,2.7q-10.757,0-21.514,0a2.688,2.688,0,0,1-2.63-2.111c-.015-.067-.038-.132-.057-.2V4.1A.5.5,0,0,0,.043,4,2.688,2.688,0,0,1,2.81,1.789h.769c0-.415.012-.8,0-1.179A.61.61,0,0,1,3.888,0H4.2a.651.651,0,0,1,.288.625c-.011.381,0,.764,0,1.151H6.266c0-.387.011-.76,0-1.132A.652.652,0,0,1,6.568,0h.315a.655.655,0,0,1,.306.643c-.014.372,0,.745,0,1.132H8.963c0-.387.009-.769,0-1.151A.652.652,0,0,1,9.247,0h.315a.613.613,0,0,1,.314.612c-.016.389,0,.778,0,1.16h1.786c0-.391.013-.766,0-1.14A.665.665,0,0,1,11.927,0h.368a.733.733,0,0,1,.266.665c-.021.371-.005.744-.005,1.11h1.79c0-.379.016-.746-.005-1.11A.73.73,0,0,1,14.607,0h.368a.666.666,0,0,1,.273.632c-.017.38,0,.762,0,1.142h1.786c0-.4.012-.78,0-1.163A.611.611,0,0,1,17.339,0h.315a.652.652,0,0,1,.288.624c-.011.381,0,.764,0,1.151h1.778c0-.387.011-.76,0-1.132A.652.652,0,0,1,20.018,0h.315a.655.655,0,0,1,.306.643c-.014.372,0,.745,0,1.132h1.778c0-.387.009-.769,0-1.151A.652.652,0,0,1,22.7,0M3.559,2.69h-.69A1.819,1.819,0,0,0,.9,4.67q0,9.68,0,19.359a1.821,1.821,0,0,0,1.979,1.976H24.02a1.825,1.825,0,0,0,1.986-2q0-5.49,0-10.98,0-4.216,0-8.432a1.78,1.78,0,0,0-1.071-1.747A3.6,3.6,0,0,0,23.321,2.7c0,.169.009.309,0,.448a.445.445,0,0,1-.464.435.434.434,0,0,1-.435-.433c-.013-.145-.014-.292-.021-.439H20.645c-.035.364.091.848-.455.86-.584.012-.438-.508-.491-.86H17.959c-.061.352.1.85-.458.86-.593.011-.429-.512-.49-.856H15.241c0,.155.005.286,0,.417a.43.43,0,0,1-.441.453.439.439,0,0,1-.453-.469c0-.136,0-.272,0-.408H12.555c0,.153.005.291,0,.429a.437.437,0,0,1-.447.45.431.431,0,0,1-.446-.447c-.007-.144,0-.288,0-.428H9.88c-.034.354.1.826-.423.86-.622.039-.451-.506-.512-.859H7.2c-.049.359.089.849-.46.861-.584.013-.441-.506-.492-.86H4.506a3.792,3.792,0,0,1-.05.562.4.4,0,0,1-.431.311c-.312,0-.4-.166-.467-.893" fill="#1d506a"/><path d="M37.152,84.369H26.986a1.363,1.363,0,0,1-1.5-1.5q0-8.826,0-17.651a1.366,1.366,0,0,1,1.481-1.491H47.327a1.366,1.366,0,0,1,1.485,1.488q0,8.839,0,17.678a1.357,1.357,0,0,1-1.468,1.473H37.152m0-19.723H27.113c-.105,0-.21,0-.315.008a.4.4,0,0,0-.391.359,1.69,1.69,0,0,0-.018.314q0,8.721,0,17.443c0,.588.114.7.714.7H47.2c.6,0,.712-.114.712-.7q0-8.708,0-17.417c0-.6-.1-.7-.7-.7H37.148" transform="translate(-23.699 -59.257)" fill="#1d506a"/><path d="M284.518,282.726a1.8,1.8,0,1,1-1.8-1.814,1.816,1.816,0,0,1,1.8,1.814m-2.684-.009a.875.875,0,0,0,.872.887.886.886,0,1,0,.022-1.772.863.863,0,0,0-.894.885" transform="translate(-261.196 -261.194)" fill="#1d506a"/><path d="M52.818,284.518a1.8,1.8,0,1,1,1.778-1.806,1.818,1.818,0,0,1-1.778,1.806m.858-1.8a.864.864,0,0,0-.867-.887.886.886,0,1,0,.867.887" transform="translate(-47.413 -261.196)" fill="#1d506a"/><path d="M282.71,92.886a1.8,1.8,0,1,1,1.808-1.8,1.823,1.823,0,0,1-1.808,1.8m-.876-1.794a.877.877,0,0,0,.878.881.885.885,0,0,0,.894-.9.876.876,0,0,0-.883-.876.864.864,0,0,0-.888.891" transform="translate(-261.197 -83.015)" fill="#1d506a"/><path d="M52.788,217.122a1.8,1.8,0,1,1-1.8,1.808,1.81,1.81,0,0,1,1.8-1.808m.888,1.792a.886.886,0,1,0-.866.89.869.869,0,0,0,.866-.89" transform="translate(-47.412 -201.882)" fill="#1d506a"/><path d="M127.748,282.69a1.794,1.794,0,1,1,1.75,1.824,1.806,1.806,0,0,1-1.75-1.824m1.8-.86a.871.871,0,0,0-.891.867.88.88,0,0,0,.884.905.886.886,0,1,0,.007-1.772" transform="translate(-118.781 -261.192)" fill="#1d506a"/><path d="M127.752,91.053a1.794,1.794,0,1,1,1.735,1.838,1.806,1.806,0,0,1-1.735-1.838m1.789-.846a.871.871,0,0,0-.883.874.881.881,0,0,0,.891.9.886.886,0,1,0-.008-1.772" transform="translate(-118.784 -83.02)" fill="#1d506a"/><path d="M282.733,217.122a1.8,1.8,0,1,1-1.816,1.789,1.808,1.808,0,0,1,1.816-1.789m-.9,1.8a.868.868,0,0,0,.873.884.878.878,0,0,0,.9-.889.886.886,0,1,0-1.771.005" transform="translate(-261.198 -201.881)" fill="#1d506a"/><path d="M207.971,282.753a1.794,1.794,0,1,1-1.763-1.839,1.8,1.8,0,0,1,1.763,1.839m-1.8-.92a.886.886,0,1,0,.892.892.871.871,0,0,0-.892-.892" transform="translate(-190.038 -261.195)" fill="#1d506a"/><path d="M207.971,91.091a1.794,1.794,0,1,1-1.8-1.8,1.8,1.8,0,0,1,1.8,1.8m-1.79-.882a.886.886,0,1,0,.883.9.871.871,0,0,0-.883-.9" transform="translate(-190.037 -83.022)" fill="#1d506a"/><path d="M207.971,218.917a1.794,1.794,0,1,1-1.8-1.794,1.8,1.8,0,0,1,1.8,1.794m-1.8.888a.875.875,0,0,0,.895-.892.9.9,0,0,0-.88-.888.91.91,0,0,0-.9.9.893.893,0,0,0,.888.88" transform="translate(-190.037 -201.883)" fill="#1d506a"/><path d="M52.776,156.912a1.791,1.791,0,1,1,1.819-1.78,1.8,1.8,0,0,1-1.819,1.78m.9-1.786a.878.878,0,0,0-.892-.9.894.894,0,1,0,.892.9" transform="translate(-47.413 -142.567)" fill="#1d506a"/><path d="M127.743,218.884a1.795,1.795,0,1,1,1.765,1.833,1.793,1.793,0,0,1-1.765-1.833m1.79.921a.893.893,0,0,0,.9-.9.908.908,0,0,0-.892-.884.894.894,0,0,0-.89.878.875.875,0,0,0,.884.9" transform="translate(-118.776 -201.882)" fill="#1d506a"/><path d="M282.337,155.794l1.356-2.03a2.927,2.927,0,0,1,.179-.258.449.449,0,0,1,.59-.1.435.435,0,0,1,.154.6c-.106.19-.237.367-.358.549q-.661.994-1.324,1.986c-.334.5-.558.52-.991.087-.229-.229-.46-.456-.686-.688a.451.451,0,0,1-.035-.674.459.459,0,0,1,.675.042c.077.072.153.145.223.223s.131.163.216.27" transform="translate(-261.358 -142.573)" fill="#1d506a"/><path d="M205.657,156.157c.5-.75.959-1.449,1.432-2.138a.638.638,0,0,1,.344-.287.625.625,0,0,1,.457.155.415.415,0,0,1,0,.555c-.285.43-.572.857-.859,1.286s-.569.86-.858,1.287a.465.465,0,0,1-.806.082c-.268-.263-.535-.528-.8-.8a.445.445,0,0,1-.029-.672.451.451,0,0,1,.673.041c.148.146.28.31.441.49" transform="translate(-190.055 -142.939)" fill="#1d506a"/><path d="M129.106,155.733c.19-.283.351-.52.51-.758.32-.479.638-.96.961-1.437a.458.458,0,0,1,.653-.178.447.447,0,0,1,.1.667q-.859,1.3-1.73,2.594a.451.451,0,0,1-.77.084q-.414-.4-.815-.816a.462.462,0,0,1-.034-.675.456.456,0,0,1,.674.042c.149.144.284.3.447.478" transform="translate(-118.88 -142.526)" fill="#1d506a"/></g></svg>