<svg xmlns="http://www.w3.org/2000/svg" xmlns:xlink="http://www.w3.org/1999/xlink" width="32.057" height="22.205" viewBox="0 0 32.057 22.205"><defs><clipPath id="a"><rect width="32.057" height="22.205" fill="#285971"/></clipPath></defs><g clip-path="url(#a)"><path d="M16.026,0H28.75a3.159,3.159,0,0,1,3.3,3.3q0,7.8,0,15.593A3.182,3.182,0,0,1,28.737,22.2q-12.706,0-25.412,0A3.185,3.185,0,0,1,0,18.866Q0,11.088,0,3.31A3.16,3.16,0,0,1,3.3,0H16.026M2.017,20.726a6.988,6.988,0,0,0,1.212.235c2.82.018,5.64.01,8.46.01q8.533,0,17.066,0a1.964,1.964,0,0,0,1.234-.356L21.05,10.433c-.123.1-.226.188-.325.276q-2.1,1.848-4.193,3.7a.634.634,0,0,1-1,0c-.185-.16-.369-.323-.552-.485l-3.938-3.474L2.017,20.726m14.013-7.5L29.493,1.343c-.52-.188-26.545-.167-26.905.017L16.03,13.227M1.3,19.695,10.126,9.638,1.481,2.008a6.286,6.286,0,0,0-.237,1.164q-.022,7.919-.007,15.839c0,.192.035.384.065.684M21.957,9.62l8.809,10.036c.025-.334.055-.558.056-.781q0-5.5,0-10.994,0-2.353,0-4.706a1.666,1.666,0,0,0-.338-1.081L21.957,9.62" transform="translate(0 0)" fill="#285971"/></g></svg>