<svg xmlns="http://www.w3.org/2000/svg" xmlns:xlink="http://www.w3.org/1999/xlink" width="42.468" height="41.473" viewBox="0 0 42.468 41.473"><defs><clipPath id="a"><rect width="42.468" height="41.473" fill="#184f6e"/></clipPath></defs><g clip-path="url(#a)"><path d="M225.249,35.9c-.26.22-.508.456-.783.657-.824.6-1.657,1.2-2.489,1.788-.563.4-.976.283-1.232-.352-.449-1.111-.9-2.223-1.332-3.34-.231-.593.148-1.128.706-.973a1,1,0,0,1,.533.5c.251.511.436,1.053.648,1.583l.121,0c.141-.778.326-1.552.417-2.336a18.956,18.956,0,0,0-15.555-20.994c-.612-.114-.9-.558-.639-1.016a.7.7,0,0,1,.826-.308,18.854,18.854,0,0,1,5.338,1.7,20.024,20.024,0,0,1,11.078,14.1,19.577,19.577,0,0,1-.163,9.067c-.01.039-.014.079-.037.206.471-.338.886-.637,1.3-.934.562-.4.824-.368,1.259.15Z" transform="translate(-182.781 -9.855)" fill="#184f6e"/><path d="M85.034,79.776a13.939,13.939,0,1,1-13.95-13.921,13.955,13.955,0,0,1,13.95,13.921M58.509,79.76A12.588,12.588,0,1,0,71.327,67.186,12.627,12.627,0,0,0,58.509,79.76" transform="translate(-50.825 -58.56)" fill="#184f6e"/><path d="M14.58,1.752c-.492-.163-.877-.29-1.261-.419-.489-.165-.706-.5-.573-.888.139-.4.491-.539.989-.38q1.712.547,3.42,1.105a.677.677,0,0,1,.424,1.122q-.948,1.556-1.918,3.1a.681.681,0,0,1-.976.324c-.362-.219-.421-.6-.151-1.045.349-.575.706-1.146,1.059-1.719l-.059-.109c-.926.337-1.881.612-2.774,1.02A18.659,18.659,0,0,0,1.7,17.58a18.233,18.233,0,0,0,.738,9.989,2.64,2.64,0,0,1,.144.472.629.629,0,0,1-.488.75.627.627,0,0,1-.786-.434c-.274-.822-.562-1.645-.763-2.487A20.278,20.278,0,0,1,13.708,2.048l.872-.3" transform="translate(0.001 -0.001)" fill="#184f6e"/><path d="M44.059,299.568c.612.5,1.2,1.037,1.84,1.509a18.162,18.162,0,0,0,9.617,3.638,18.643,18.643,0,0,0,16.061-6.59c.055-.062.108-.126.164-.187.334-.363.707-.422,1.016-.161a.675.675,0,0,1,0,1.027,38.666,38.666,0,0,1-2.832,2.783,19.085,19.085,0,0,1-9.743,4.32,20.012,20.012,0,0,1-16.631-5.022c-.152-.134-.3-.272-.51-.463.068.646.125,1.2.186,1.76a.68.68,0,1,1-1.335.16q-.215-1.85-.411-3.7a.691.691,0,0,1,.821-.783q1.826.236,3.65.479c.466.062.758.379.713.756-.05.413-.4.638-.889.576-.554-.071-1.109-.137-1.663-.206l-.056.107" transform="translate(-36.884 -264.65)" fill="#184f6e"/><path d="M105.424,103.073A11.039,11.039,0,1,1,94.43,92.037a11.045,11.045,0,0,1,10.994,11.036m-3.017-5.448a9.459,9.459,0,0,0-2.6-2.586c-.289.416-.471,1.039-1.119.738-.795-.369-.294-.933-.068-1.434a9.213,9.213,0,0,0-3.535-.932c-.072.495.087,1.139-.628,1.189-.857.06-.717-.674-.777-1.2a9.2,9.2,0,0,0-3.531.955c.231.471.653.95.066,1.349-.722.49-.939-.262-1.276-.658a9.627,9.627,0,0,0-2.568,2.579c.778.565.933.843.7,1.229s-.5.375-1.412-.012a9.288,9.288,0,0,0-.935,3.549c.556.012,1.217-.077,1.212.676s-.662.663-1.214.675a9.275,9.275,0,0,0,.947,3.55c.87-.409,1.157-.434,1.372-.053.4.718-.231.949-.68,1.253a9.545,9.545,0,0,0,2.576,2.576c.628-.8.855-.921,1.232-.7.4.239.4.541-.014,1.4a8.973,8.973,0,0,0,3.54.935c.022-.525-.076-1.139.623-1.19.839-.062.7.661.773,1.194a9.128,9.128,0,0,0,3.513-.932c-.392-.911-.389-1.189,0-1.413s.61-.1,1.223.7a9.287,9.287,0,0,0,2.575-2.566c-.8-.582-.953-.8-.727-1.175.428-.711.94-.249,1.425-.031a9.407,9.407,0,0,0,.947-3.554c-.527-.02-1.154.093-1.207-.6-.066-.861.675-.711,1.216-.754a9.3,9.3,0,0,0-.966-3.549c-.843.412-1.144.414-1.388.027-.255-.4-.122-.644.7-1.238" transform="translate(-74.114 -81.842)" fill="#184f6e"/><path d="M166.814,128.853c0,.691.009,1.381,0,2.072a.423.423,0,0,0,.271.442,2.113,2.113,0,0,1,1.172,2.072.5.5,0,0,0,.223.362c.732.442,1.478.86,2.218,1.288.273.158.481.4.374.708a1,1,0,0,1-.485.537.835.835,0,0,1-.611-.121c-.727-.395-1.44-.816-2.153-1.236a.4.4,0,0,0-.509-.007,2.09,2.09,0,1,1-2.135-3.586.479.479,0,0,0,.294-.509c-.011-1.312-.005-2.624,0-3.936a2.613,2.613,0,0,1,.007-.331.7.7,0,0,1,.695-.638.649.649,0,0,1,.632.645c.022.745.006,1.491.006,2.237h.01m-.661,3.636a.76.76,0,0,0-.775.747.78.78,0,0,0,.771.76.745.745,0,0,0,.738-.736.722.722,0,0,0-.734-.771" transform="translate(-145.867 -112.017)" fill="#184f6e"/></g></svg>