<svg xmlns="http://www.w3.org/2000/svg" xmlns:xlink="http://www.w3.org/1999/xlink" width="37.333" height="37.328" viewBox="0 0 37.333 37.328"><defs><clipPath id="a"><rect width="37.333" height="37.328" fill="#1e526c"/></clipPath></defs><g clip-path="url(#a)"><path d="M18.691,0A18.664,18.664,0,1,1,0,18.617,18.67,18.67,0,0,1,18.691,0m-17.2,18.66A17.176,17.176,0,1,0,18.68,1.491,17.237,17.237,0,0,0,1.491,18.661" transform="translate(0 -0.001)" fill="#1e526c"/><path d="M50.043,34.346a15.7,15.7,0,1,1-15.6-15.7,15.721,15.721,0,0,1,15.6,15.7m-2.288-4.74c-1.133.4-1.53.371-1.7-.11-.309-.883.462-1,1.016-1.284a12.726,12.726,0,0,0-2.224-3.32c-.812.725-1.14.825-1.517.479-.4-.366-.308-.713.488-1.659L40.5,21.494c-.616,1.127-.852,1.335-1.3,1.111-.827-.411-.363-1.04-.188-1.629a12.48,12.48,0,0,0-3.909-.758c-.09,1.132-.217,1.4-.715,1.4-.989-.006-.757-.813-.827-1.413a13,13,0,0,0-3.932.775c.21.586.667,1.244-.151,1.593-.869.37-.97-.486-1.271-1.01A12.877,12.877,0,0,0,24.9,23.795c.715.808.814,1.144.469,1.527s-.655.31-1.658-.476l-2.219,3.327c.631.316,1.411.437,1.121,1.246-.328.912-1.034.387-1.63.226a12.788,12.788,0,0,0-.761,3.9c.575.082,1.358-.151,1.4.721.043.977-.8.754-1.4.82a13.008,13.008,0,0,0,.766,3.9c1.14-.317,1.458-.295,1.619.182.3.891-.508.971-1.022,1.275A12.877,12.877,0,0,0,23.8,43.757c.8-.726,1.148-.831,1.527-.484.4.366.308.72-.486,1.662l3.317,2.217c.608-1.122.844-1.329,1.306-1.107.847.408.34,1.04.186,1.628a12.549,12.549,0,0,0,3.9.755c.094-1.145.213-1.4.713-1.4.991,0,.762.809.828,1.413a13.03,13.03,0,0,0,3.9-.762c-.3-1.166-.264-1.5.221-1.641.862-.242.948.525,1.239,1.046a13.024,13.024,0,0,0,3.314-2.229c-.725-.811-.851-1.168-.484-1.516.7-.67,1.115.035,1.657.486l2.233-3.342c-.609-.329-1.374-.413-1.125-1.28.139-.485.459-.517,1.641-.218a12.676,12.676,0,0,0,.754-3.873c-1.184-.132-1.424-.251-1.407-.756.032-.951.807-.734,1.509-.8l-.787-3.944" transform="translate(-15.663 -15.66)" fill="#1e526c"/><path d="M111.889,61.89q0-2.517,0-5.034c0-.6.262-.913.747-.912s.742.316.742.917c0,3.216,0,6.432.01,9.648a1.686,1.686,0,0,0,.212.782c.683,1.218,1.412,2.41,2.075,3.638a.994.994,0,0,1-.016.85,1.011,1.011,0,0,1-.752.282c-.163,0-.388-.2-.488-.367q-1.226-2.059-2.406-4.146a1.33,1.33,0,0,1-.119-.624c-.009-1.678-.005-3.356-.005-5.034" transform="translate(-93.968 -46.984)" fill="#1e526c"/></g></svg>