<svg xmlns="http://www.w3.org/2000/svg" xmlns:xlink="http://www.w3.org/1999/xlink" width="56.878" height="56.869" viewBox="0 0 56.878 56.869"><defs><clipPath id="a"><rect width="56.878" height="56.869" fill="#1e526c"/></clipPath></defs><g clip-path="url(#a)"><path d="M28.476,0A28.434,28.434,0,1,1,0,28.363,28.444,28.444,0,0,1,28.476,0M2.271,28.43A26.167,26.167,0,1,0,28.459,2.271,26.261,26.261,0,0,0,2.271,28.43" transform="translate(0 -0.001)" fill="#1e526c"/><path d="M66.478,42.565A23.914,23.914,0,1,1,42.706,18.647,23.951,23.951,0,0,1,66.478,42.565m-3.486-7.221c-1.726.6-2.331.566-2.588-.167-.471-1.345.7-1.525,1.547-1.956a19.387,19.387,0,0,0-3.388-5.058c-1.237,1.1-1.737,1.257-2.312.729-.607-.557-.469-1.086.744-2.528l-5.052-3.379c-.938,1.717-1.3,2.034-1.984,1.692-1.259-.626-.553-1.584-.286-2.482a19.014,19.014,0,0,0-5.955-1.154c-.137,1.725-.331,2.14-1.089,2.136-1.507-.009-1.154-1.239-1.26-2.152a19.8,19.8,0,0,0-5.991,1.181c.319.892,1.016,1.9-.231,2.427-1.324.564-1.478-.741-1.936-1.538a19.618,19.618,0,0,0-5.047,3.395c1.089,1.231,1.24,1.743.714,2.327s-1,.473-2.526-.726L22.972,33.16c.962.482,2.15.666,1.707,1.9-.5,1.389-1.575.59-2.483.344a19.483,19.483,0,0,0-1.16,5.947c.876.126,2.069-.229,2.128,1.1.066,1.489-1.226,1.149-2.137,1.249a19.818,19.818,0,0,0,1.166,5.943c1.737-.484,2.222-.449,2.467.277.457,1.357-.774,1.48-1.556,1.942A19.618,19.618,0,0,0,26.5,56.9c1.217-1.106,1.749-1.266,2.326-.737.608.558.47,1.1-.741,2.532l5.054,3.378c.926-1.71,1.286-2.025,1.989-1.686,1.291.622.518,1.584.284,2.48a19.118,19.118,0,0,0,5.949,1.151c.143-1.745.325-2.138,1.086-2.135,1.51,0,1.161,1.232,1.261,2.152a19.852,19.852,0,0,0,5.935-1.162c-.454-1.776-.4-2.292.337-2.5,1.314-.369,1.445.8,1.887,1.593a19.842,19.842,0,0,0,5.049-3.4c-1.1-1.235-1.3-1.779-.738-2.31,1.073-1.02,1.7.054,2.525.741l3.4-5.092c-.928-.5-2.094-.629-1.714-1.95.212-.739.7-.788,2.5-.332a19.312,19.312,0,0,0,1.149-5.9c-1.8-.2-2.17-.382-2.144-1.152.048-1.448,1.229-1.118,2.3-1.224l-1.2-6.008" transform="translate(-14.099 -14.097)" fill="#1e526c"/><path d="M111.89,65q0-3.834,0-7.669c0-.911.4-1.391,1.138-1.389s1.13.482,1.131,1.4c0,4.9-.007,9.8.015,14.7a2.569,2.569,0,0,0,.322,1.191c1.04,1.855,2.151,3.672,3.162,5.543a1.514,1.514,0,0,1-.024,1.294,1.54,1.54,0,0,1-1.146.43c-.249,0-.591-.3-.743-.56q-1.869-3.137-3.665-6.316a2.026,2.026,0,0,1-.181-.951c-.014-2.556-.008-5.113-.008-7.669" transform="translate(-84.586 -42.293)" fill="#1e526c"/></g></svg>