<svg xmlns="http://www.w3.org/2000/svg" xmlns:xlink="http://www.w3.org/1999/xlink" width="20.651" height="30.994" viewBox="0 0 20.651 30.994"><defs><clipPath id="a"><rect width="20.651" height="30.994" fill="#1d506a"/></clipPath></defs><g clip-path="url(#a)"><path d="M11.17,0a17.87,17.87,0,0,1,1.862.37A10.064,10.064,0,0,1,20.5,8.746a10.732,10.732,0,0,1-1.755,7.747c-1.177,1.876-2.586,3.58-3.939,5.327-.238.308-.478.614-.731.938.686.149,1.338.266,1.977.434a8.609,8.609,0,0,1,3.631,1.715,2.267,2.267,0,0,1,.037,3.658A7.929,7.929,0,0,1,16.478,30.2a23,23,0,0,1-7.769.746,18.922,18.922,0,0,1-5.418-1.036A7.092,7.092,0,0,1,.955,28.6a2.274,2.274,0,0,1,.011-3.7,7.576,7.576,0,0,1,3-1.519c.8-.229,1.628-.376,2.443-.56.046-.01.09-.03.169-.058-.545-.7-1.073-1.367-1.6-2.041A43.814,43.814,0,0,1,1.61,16.027,10.862,10.862,0,0,1,.023,9.706,10.085,10.085,0,0,1,3.493,2.588,10.04,10.04,0,0,1,9.27.053,1.3,1.3,0,0,0,9.472,0Zm-.828,25.662c.041-.051.085-.1.126-.158,1.417-1.85,2.85-3.688,4.244-5.555,1.079-1.445,2.178-2.883,3.145-4.4a9.408,9.408,0,0,0,1.4-6.939A9.094,9.094,0,0,0,1.227,10.126a9.8,9.8,0,0,0,1.428,5.266,42.829,42.829,0,0,0,3.261,4.544c1.472,1.9,2.936,3.8,4.425,5.727m-.034,4.124a20.984,20.984,0,0,0,6.284-.913,5.923,5.923,0,0,0,2.4-1.292.991.991,0,0,0-.015-1.641,6.4,6.4,0,0,0-1.358-.888,13.727,13.727,0,0,0-4.247-1.125.451.451,0,0,0-.329.181c-.71.942-1.41,1.892-2.108,2.842q-.617.839-1.224.007c-.7-.952-1.4-1.9-2.1-2.851-.095-.129-.178-.223-.367-.185-.721.145-1.451.245-2.165.417a8.3,8.3,0,0,0-3.121,1.329c-.97.728-1,1.5,0,2.174a8.74,8.74,0,0,0,1.934.967,19.762,19.762,0,0,0,6.407.979" transform="translate(0)" fill="#1d506a"/><path d="M83.631,79.113a4.244,4.244,0,1,1-4.22-4.245,4.23,4.23,0,0,1,4.22,4.245m-4.255-3.035a3.027,3.027,0,1,0,3.042,3.016,3.055,3.055,0,0,0-3.042-3.016" transform="translate(-69.066 -68.814)" fill="#1d506a"/><path d="M156.318,42.436c0,.071,0,.141,0,.212,0,.438-.237.709-.611.705s-.592-.267-.6-.686a6.722,6.722,0,0,0-.706-2.938,6.6,6.6,0,0,0-3.618-3.264c-.428-.166-.6-.456-.48-.8a.619.619,0,0,1,.891-.346,7.789,7.789,0,0,1,4.329,3.922,7.663,7.663,0,0,1,.794,3.2" transform="translate(-138.114 -32.401)" fill="#1d506a"/><path d="M121.468,31.17a.6.6,0,1,1,.015-1.207.6.6,0,0,1-.015,1.207" transform="translate(-111.093 -27.54)" fill="#1d506a"/></g></svg>