<svg xmlns="http://www.w3.org/2000/svg" xmlns:xlink="http://www.w3.org/1999/xlink" width="24.672" height="24.674" viewBox="0 0 24.672 24.674"><defs><clipPath id="a"><rect width="24.672" height="24.674" fill="#285971"/></clipPath></defs><g clip-path="url(#a)"><path d="M22.744,24.674A10.25,10.25,0,0,0,19.7,17.339a10.076,10.076,0,0,0-6.1-2.986,10.013,10.013,0,0,0-6.922,1.609,10.235,10.235,0,0,0-4.639,7.273c-.072.474-.073.959-.107,1.438H0c.188-5.7,3.078-9.485,8.22-11.7A7.064,7.064,0,0,1,5.214,6.922,6.83,6.83,0,0,1,7.349,2.046,7.135,7.135,0,1,1,16.4,13.009l.267.109a12.276,12.276,0,0,1,7.458,7.913,10.542,10.542,0,0,1,.5,2.615,1.415,1.415,0,0,0,.045.209v.819ZM12.157,1.938a5.2,5.2,0,1,0,5.372,5.028,5.2,5.2,0,0,0-5.372-5.028" transform="translate(0 0.001)" fill="#285971"/></g></svg>