<svg xmlns="http://www.w3.org/2000/svg" xmlns:xlink="http://www.w3.org/1999/xlink" width="21.525" height="37" viewBox="0 0 21.525 37"><defs><clipPath id="a"><rect width="21.525" height="37" fill="#285971"/></clipPath></defs><g clip-path="url(#a)"><path d="M19.436,0A3.16,3.16,0,0,1,20.83.786a2.754,2.754,0,0,1,.7,1.954q0,7.57,0,15.139,0,8.2,0,16.4a2.486,2.486,0,0,1-1.414,2.442A2.648,2.648,0,0,1,19,36.987q-8.239.024-16.479.008A2.507,2.507,0,0,1,0,34.463c0-.072,0-.145,0-.217Q0,18.493,0,2.74A2.569,2.569,0,0,1,1.455.241,6.206,6.206,0,0,1,2.09,0Zm.3,3.988H1.782V32.36H19.738Zm-10.21,30.5a1.235,1.235,0,1,0,2.47.016,1.235,1.235,0,1,0-2.47-.016M10.8,1.805H8.2c-.21,0-.386.094-.339.311a.484.484,0,0,0,.338.264,4.025,4.025,0,0,0,.72.013q2.166,0,4.332,0c.22,0,.435-.015.422-.307-.012-.258-.211-.284-.419-.284-.818,0-1.636,0-2.455,0" transform="translate(-0.001)" fill="#285971"/></g></svg>