<svg xmlns="http://www.w3.org/2000/svg" xmlns:xlink="http://www.w3.org/1999/xlink" width="38.371" height="41" viewBox="0 0 38.371 41"><defs><clipPath id="a"><rect width="38.372" height="41" fill="#1d506a"/></clipPath></defs><g clip-path="url(#a)"><path d="M9.944,214.485c.331,1.075.65,2.1.962,3.131.2.669-.03.981-.73.981q-3.814,0-7.627,0c-.561,0-.757-.159-.823-.7q-.505-4.155-1-8.311c-.237-1.964-.483-3.927-.711-5.892-.077-.658.15-.888.817-.888,1.641,0,3.282.009,4.922-.006a.75.75,0,0,1,.828.625c.161.581.348,1.155.558,1.841.457-.3.879-.547,1.272-.836a20.08,20.08,0,0,1,2.192-1.635,7.6,7.6,0,0,1,7.228-.121,8.224,8.224,0,0,0,3.029.689,7.676,7.676,0,0,0,5.012-1.275,3.494,3.494,0,0,1,4.044.069.506.506,0,0,0,.426.015,2.708,2.708,0,0,1,3.2.436.49.49,0,0,0,.615.074,3.264,3.264,0,0,1,4.006,1.13c.327.48.276.793-.2,1.12-3.735,2.57-7.453,5.167-11.22,7.69a6.6,6.6,0,0,1-4.412,1.018c-1.77-.187-3.522-.554-5.28-.854-.872-.149-1.739-.325-2.609-.486a2.008,2.008,0,0,0-1.522.3c-.977.634-1.967,1.25-2.978,1.89m26.891-10.3a2.106,2.106,0,0,0-2.492-.2q-2.706,1.462-5.415,2.92a.555.555,0,0,0-.368.484.528.528,0,0,1-.6.47c-.458-.01-.915-.031-1.373-.048a28.544,28.544,0,0,0-5.529.029c-.489.078-.812-.145-.866-.539-.05-.364.194-.675.678-.7,1.458-.063,2.919-.085,4.379-.114.655-.013,1.31,0,1.961,0a2.608,2.608,0,0,0-2.6-1.91c-1.463-.009-2.926,0-4.389,0a2.534,2.534,0,0,1-.748-.054c-.838-.268-1.675-.546-2.493-.867a6.543,6.543,0,0,0-6.731.852,9.214,9.214,0,0,1-2.768,1.9l2.083,6.835c.967-.61,1.874-1.187,2.787-1.755a2.952,2.952,0,0,1,2.157-.44c2.407.441,4.807.926,7.225,1.293a6.39,6.39,0,0,0,4.731-1.023q3.1-2.139,6.208-4.264c1.375-.944,2.748-1.891,4.163-2.865m-35.521-.137,1.62,13.285H9.493c-.037-.146-.062-.26-.1-.372Q7.61,211.1,5.82,205.243c-.12-.392-.153-.925-.424-1.123s-.792-.073-1.2-.075c-.942,0-1.884,0-2.879,0m31.306-.558a1.339,1.339,0,0,0-1.438-.3c-1.121.548-2.209,1.164-3.313,1.754l.489.848,4.262-2.3m-6.686,0c.3.158.577.318.867.454a.362.362,0,0,0,.282-.009c.56-.292,1.113-.6,1.738-.937a2.813,2.813,0,0,0-2.887.493" transform="translate(0 -177.598)" fill="#1d506a"/><path d="M75.989,16.245a5.172,5.172,0,0,1,.319-.537c.287-.375.765-.7.839-1.112.068-.374-.365-.811-.447-1.246-.133-.7-.546-.823-1.176-.867-1.229-.085-1.379-.008-1.338-1.431.019-.65,0-1.3,0-1.952,0-.571.18-.769.747-.828.382-.039.764-.084,1.147-.1a.408.408,0,0,0,.441-.325c.168-.486.412-.946.586-1.431a.621.621,0,0,0-.064-.49c-.244-.351-.536-.668-.808-1a.633.633,0,0,1,.041-.946c.636-.639,1.271-1.28,1.914-1.913a.65.65,0,0,1,.982-.032c.335.267.65.561,1,.808a.562.562,0,0,0,.448.055c.5-.179.987-.386,1.467-.609a.527.527,0,0,0,.271-.324c.078-.45.115-.908.162-1.364A.6.6,0,0,1,83.2,0c.916,0,1.833.006,2.749,0a.611.611,0,0,1,.692.589c.055.44.076.884.149,1.32a.564.564,0,0,0,.264.365c.49.236.993.447,1.5.638a.509.509,0,0,0,.413-.051c.347-.251.664-.542,1-.809a.652.652,0,0,1,1.014.036c.629.625,1.248,1.261,1.871,1.892a.64.64,0,0,1,.046.948c-.323.4-.85.774-.914,1.215s.385.923.525,1.412c.127.443.305.68.806.644a4.854,4.854,0,0,1,1.012.094.645.645,0,0,1,.621.719c-.009.9,0,1.8,0,2.706a.624.624,0,0,1-.627.7c-.5.058-1.107-.042-1.465.213s-.385.89-.651,1.3a.816.816,0,0,0,.177,1.209,5.373,5.373,0,0,1,.542.644.651.651,0,0,1-.039.954c-.633.642-1.268,1.283-1.914,1.912a.629.629,0,0,1-.979.036c-.335-.267-.65-.562-1-.809a.565.565,0,0,0-.454-.05c-.5.184-.985.393-1.463.623a.563.563,0,0,0-.283.349c-.074.436-.094.881-.145,1.321a.651.651,0,0,1-.739.647c-.887-.01-1.774,0-2.661,0-.466,0-.665-.185-.721-.652-.054-.44-.079-.884-.159-1.319a.577.577,0,0,0-.288-.354,14.617,14.617,0,0,0-1.423-.6.627.627,0,0,0-.5.049c-.351.243-.667.536-1,.811a.632.632,0,0,1-.947-.028c-.652-.645-1.3-1.291-1.941-1.948a2.494,2.494,0,0,1-.283-.476m15.606-.08c-.292-.356-.587-.724-.892-1.084a.744.744,0,0,1-.064-.9c.34-.732.652-1.478.938-2.233a.766.766,0,0,1,.723-.595c.464-.029.926-.1,1.381-.145V9.5l-1.425-.144a.776.776,0,0,1-.7-.616c-.264-.746-.59-1.472-.927-2.19a.767.767,0,0,1,.067-.936c.308-.355.6-.725.9-1.088l-1.194-1.2c-.343.283-.691.554-1.019.847a.816.816,0,0,1-1.044.084,13.6,13.6,0,0,0-2.069-.872.871.871,0,0,1-.71-.874c-.027-.421-.078-.84-.118-1.256H83.721c-.046.467-.1.918-.133,1.372a.767.767,0,0,1-.6.725c-.742.277-1.483.565-2.192.914a.794.794,0,0,1-1-.088c-.338-.3-.7-.576-.973-.8l-1.236,1.2c.267.325.552.684.851,1.03a.771.771,0,0,1,.068.937c-.337.718-.662,1.445-.928,2.191a.778.778,0,0,1-.7.617L75.453,9.5v1.709c.474.051.927.115,1.381.143a.772.772,0,0,1,.746.619,20.354,20.354,0,0,0,.906,2.151.813.813,0,0,1-.072,1.011c-.3.344-.581.7-.84,1.014l1.217,1.219c.332-.275.69-.561,1.036-.86a.765.765,0,0,1,.934-.085,22.382,22.382,0,0,0,2.187.932.82.82,0,0,1,.645.825c.021.438.084.874.13,1.318h1.719c.041-.464.085-.9.118-1.344a.846.846,0,0,1,.672-.811,18.738,18.738,0,0,0,2.147-.911.774.774,0,0,1,.967.089c.342.3.7.58,1.062.874L91.6,16.165" transform="translate(-65.389 0)" fill="#1d506a"/><path d="M37.737,305.366a1.674,1.674,0,0,1,1.681,1.69,1.684,1.684,0,1,1-3.368-.013,1.656,1.656,0,0,1,1.687-1.677m-.023,2.293c.212-.277.433-.441.423-.588a.616.616,0,0,0-.381-.427.349.349,0,0,0-.443.4c.019.173.2.327.4.615" transform="translate(-31.778 -269.177)" fill="#1d506a"/><path d="M121.918,41.3a6.2,6.2,0,1,1-6.2-6.179,6.218,6.218,0,0,1,6.2,6.179M115.7,46.258a4.943,4.943,0,1,0-4.931-4.889,4.946,4.946,0,0,0,4.931,4.889" transform="translate(-96.533 -30.961)" fill="#1d506a"/><path d="M139.5,72.465c.768-.837,1.534-1.677,2.306-2.51.219-.236.516-.38.782-.16a1.182,1.182,0,0,1,.314.659c.023.115-.123.292-.232.4q-1.4,1.385-2.816,2.753a.638.638,0,0,1-1.037-.006q-.751-.719-1.488-1.453a.632.632,0,1,1,.865-.9c.364.366.7.761,1.045,1.144l.262.074" transform="translate(-120.821 -61.427)" fill="#1d506a"/></g></svg>