<svg xmlns="http://www.w3.org/2000/svg" xmlns:xlink="http://www.w3.org/1999/xlink" width="26.901" height="26.916" viewBox="0 0 26.901 26.916"><defs><clipPath id="a"><rect width="26.901" height="26.916" fill="#1d506a"/></clipPath></defs><g clip-path="url(#a)"><path d="M14.395,26.917H12.5c-.3-.039-.6-.074-.9-.119a13.026,13.026,0,0,1-6.953-3.189A13.1,13.1,0,0,1,.183,11.271,12.841,12.841,0,0,1,5.124,2.914,13.071,13.071,0,0,1,15.645.186a12.98,12.98,0,0,1,7.273,3.737,13.193,13.193,0,0,1,3.777,7.2c.082.463.139.93.207,1.4v1.892c-.058.422-.1.846-.177,1.265A13.536,13.536,0,0,1,15.84,26.7c-.478.089-.963.143-1.445.213m-.94-1.576A11.879,11.879,0,1,0,1.572,13.462,11.913,11.913,0,0,0,13.455,25.341" transform="translate(-0.001 0)" fill="#1d506a"/><path d="M181.858,116.058c0,.674.008,1.349,0,2.023a.57.57,0,0,0,.194.455q2.124,2.111,4.239,4.232a.839.839,0,0,1,.281.827.79.79,0,0,1-1.253.437,1.885,1.885,0,0,1-.192-.179q-2.239-2.238-4.48-4.475a1.147,1.147,0,0,1-.366-.885c.013-1.489,0-2.978.006-4.467a.791.791,0,1,1,1.574.008q0,1.012,0,2.023" transform="translate(-167.623 -105.216)" fill="#1d506a"/><path d="M180.337,47.34c0-.262,0-.524,0-.786a.786.786,0,0,1,1.572,0q.011.8,0,1.6a.786.786,0,0,1-1.572,0c-.006-.271,0-.542,0-.812" transform="translate(-167.676 -42.562)" fill="#1d506a"/><path d="M47.207,180.521c.262,0,.524,0,.786,0a.786.786,0,0,1-.01,1.572c-.533.006-1.066.007-1.6,0a.786.786,0,0,1,.01-1.572c.271-.005.542,0,.812,0" transform="translate(-42.412 -167.847)" fill="#1d506a"/><path d="M294.249,182.083c-.271,0-.542,0-.812,0a.786.786,0,1,1,0-1.573q.786-.007,1.572,0a.786.786,0,1,1,0,1.573c-.253,0-.507,0-.76,0" transform="translate(-272.106 -167.835)" fill="#1d506a"/><path d="M181.883,294.436c0,.262,0,.524,0,.786a.786.786,0,0,1-1.571.011c-.007-.542-.008-1.083,0-1.625a.786.786,0,0,1,1.569-.011c.01.279,0,.559,0,.839" transform="translate(-167.648 -272.295)" fill="#1d506a"/><path d="M277.1,86.033a.8.8,0,0,1-.8.8.818.818,0,0,1-.786-.79.8.8,0,0,1,.8-.793.782.782,0,0,1,.779.784" transform="translate(-256.174 -79.265)" fill="#1d506a"/><path d="M277.1,276.508a.769.769,0,0,1-.763.8.788.788,0,0,1-.817-.776.811.811,0,0,1,.8-.8.786.786,0,0,1,.782.784" transform="translate(-256.181 -256.368)" fill="#1d506a"/><path d="M85.108,86.063a.773.773,0,0,1,.772-.787.788.788,0,0,1,.808.785.812.812,0,0,1-.806.8.788.788,0,0,1-.774-.793" transform="translate(-79.133 -79.29)" fill="#1d506a"/><path d="M85.88,277.294a.781.781,0,0,1-.792-.771.8.8,0,0,1,.783-.812.816.816,0,0,1,.8.8.8.8,0,0,1-.79.779" transform="translate(-79.115 -256.356)" fill="#1d506a"/></g></svg>