<svg id="Group_415" data-name="Group 415" xmlns="http://www.w3.org/2000/svg" xmlns:xlink="http://www.w3.org/1999/xlink" width="40.15" height="30.142" viewBox="0 0 40.15 30.142">
  <defs>
    <clipPath id="clip-path">
      <rect id="Rectangle_226" data-name="Rectangle 226" width="40.15" height="30.142" fill="#fff"/>
    </clipPath>
  </defs>
  <g id="Group_414" data-name="Group 414" clip-path="url(#clip-path)">
    <path id="Path_264" data-name="Path 264" d="M0,99.183V80.722a1.077,1.077,0,0,1,.174.077q8.148,5.442,16.294,10.887a6.036,6.036,0,0,0,7.177.021q8.052-5.372,16.1-10.752c.114-.076.232-.148.4-.254v.32q0,8.8-.005,17.594a4.025,4.025,0,0,1-.117.97,3.7,3.7,0,0,1-3.777,2.8q-8.016,0-16.031,0-8.153,0-16.305,0a3.861,3.861,0,0,1-2.782-1.055A4.161,4.161,0,0,1,0,99.183" transform="translate(0 -72.249)" fill="#fff"/>
    <path id="Path_265" data-name="Path 265" d="M0,3.21c.065-.224.121-.451.2-.672A3.711,3.711,0,0,1,3.749.006C4.52-.006,5.291,0,6.062,0Q21.133,0,36.2,0a3.786,3.786,0,0,1,2.978,1.233,3.572,3.572,0,0,1-.622,5.418C36.122,8.315,33.656,9.94,31.2,11.58q-4.383,2.929-8.767,5.856a3.73,3.73,0,0,1-4.719,0C12.565,14,7.425,10.543,2.258,7.13A4.547,4.547,0,0,1,0,4.231V3.21" transform="translate(0 0)" fill="#fff"/>
  </g>
</svg>
