<svg id="Group_413" data-name="Group 413" xmlns="http://www.w3.org/2000/svg" xmlns:xlink="http://www.w3.org/1999/xlink" width="44.988" height="45" viewBox="0 0 44.988 45">
  <defs>
    <clipPath id="clip-path">
      <rect id="Rectangle_225" data-name="Rectangle 225" width="44.988" height="45" fill="#fff"/>
    </clipPath>
  </defs>
  <g id="Group_412" data-name="Group 412" clip-path="url(#clip-path)">
    <path id="Path_263" data-name="Path 263" d="M23.81,45H21.35c-.638-.071-1.279-.128-1.915-.217A21.982,21.982,0,0,1,10.491,41.5a.814.814,0,0,0-.773-.1c-1.5.5-3,.972-4.506,1.453-1.219.39-2.439.777-3.721,1.186.058-.189.093-.31.133-.43.817-2.439,1.62-4.882,2.464-7.312a1.141,1.141,0,0,0-.164-1.157A21.774,21.774,0,0,1,.1,24.489,21.49,21.49,0,0,1,3.169,11.031,22.009,22.009,0,0,1,21.548.037,21.091,21.091,0,0,1,33.956,3.166,22.163,22.163,0,0,1,44.637,18.629c.158.844.236,1.7.351,2.554v2.637c-.036.316-.072.632-.108.949a22.237,22.237,0,0,1-5.619,12.7,22.063,22.063,0,0,1-12.893,7.181c-.846.15-1.7.235-2.557.349m6.039-9.8.025-.1a5.714,5.714,0,0,0,1.811-.29c3.181-1.1,4.267-2.631,4.362-5.562a.939.939,0,0,0-.573-.983c-1.676-.8-3.341-1.618-5.024-2.4a1.34,1.34,0,0,0-1.933.529c-.437.587-.863,1.182-1.314,1.758a1.539,1.539,0,0,1-2.211.565,17.747,17.747,0,0,1-8.523-7.485,1.057,1.057,0,0,1,.134-1.571c.421-.488.856-.962,1.276-1.451a1.62,1.62,0,0,0,.309-2.009,6.31,6.31,0,0,1-.272-.646c-.64-1.507-1.267-3.019-1.933-4.513a1.083,1.083,0,0,0-.594-.585,3.915,3.915,0,0,0-3.437.494,6.212,6.212,0,0,0-2.024,2.816,8.421,8.421,0,0,0,.351,6.485,21.684,21.684,0,0,0,2.649,4.282,31.123,31.123,0,0,0,5.862,6.085,23.955,23.955,0,0,0,8.033,3.919c.987.3,2.017.451,3.027.67" transform="translate(0 0)" fill="#fff"/>
  </g>
</svg>
