<svg xmlns="http://www.w3.org/2000/svg" xmlns:xlink="http://www.w3.org/1999/xlink" width="234.403" height="234.234" viewBox="0 0 234.403 234.234"><defs><clipPath id="a"><rect width="234.403" height="234.234" fill="none"/></clipPath></defs><g transform="translate(0 -0.001)"><g transform="translate(0 0.001)" clip-path="url(#a)"><path d="M173.749,234.235h-7.334a24.3,24.3,0,0,0-4.112-12.683,22.64,22.64,0,0,0-18.9-9.872c-18.269-.4-32.954-12.469-36.847-30.34-.249-1.144-.407-2.309-.647-3.689-1.082,0-2.085.008-3.086,0-3.245-.032-4.5-1.309-4.516-4.617-.013-3.858.041-7.717-.033-11.575a6.775,6.775,0,0,0-.666-2.908c-4.928-9.485-9.956-18.919-14.861-28.417a2.8,2.8,0,0,0-2.973-1.647q-23.745.06-47.491.025c-4.7,0-5.493-.712-6.228-5.4-.8-5.122-1.643-10.238-2.489-15.353a18.8,18.8,0,0,0-.538-1.922c-6.093,0-12.15.006-18.207,0-3.608,0-4.812-1.2-4.813-4.793Q0,63.828.017,26.621A26.3,26.3,0,0,1,26.688.015q90.493-.03,180.986,0a26.286,26.286,0,0,1,26.708,26.569q.057,37.207.008,74.413c0,3.613-1.2,4.826-4.78,4.831-6.058.009-12.115,0-18.4,0-.8,4.728-1.573,9.356-2.357,13.983-.276,1.626-.543,3.255-.861,4.873-.579,2.942-1.643,3.82-4.663,3.821-16.067.008-32.133.038-48.2-.042a3.632,3.632,0,0,0-3.8,2.263c-4.67,9.09-9.507,18.093-14.195,27.174a9.8,9.8,0,0,0-.993,4.008c-.136,3.538-.043,7.085-.047,10.629,0,3.965-1.08,5.069-4.974,5.112-.542.006-1.084,0-1.64,0,.475,4.932,5.463,9.943,11.088,10.886,4.018.673,8.157.663,12.154,1.42a45.118,45.118,0,0,1,35.854,38.159c.244,1.943.384,3.9.593,6.052h-7.4c-.539-3.12-.864-6.323-1.662-9.4a37.72,37.72,0,0,0-35.7-28.2c-12.118-.3-20.348-6.932-23.157-18.775h-7.41a28.016,28.016,0,0,0,6.322,14.959c6.022,7.405,13.94,11.327,23.415,11.3a30.585,30.585,0,0,1,30.148,26.563,27.9,27.9,0,0,1,.02,3.623m53.1-136.04v-2.6q0-33.777,0-67.554c0-12.539-7.959-20.486-20.508-20.488q-89.18-.006-178.361,0c-12.4,0-20.417,7.984-20.422,20.332q-.015,33.894,0,67.79v2.42h15.14V95.073q0-25.982,0-51.964c0-4.27,1.02-5.3,5.247-5.3q89.3,0,178.6,0c4.086,0,5.17,1.079,5.17,5.146q0,26.336,0,52.673v2.567ZM30.347,52.763H203.976V45.472H30.347Zm0,15.118H203.973V60.594H30.344ZM204.06,75.759H30.43V83.04H204.06ZM103.213,90.815a1.627,1.627,0,0,0-.086.51q6.543,31.11,13.127,62.212c.108.511.6.939.917,1.406a5.638,5.638,0,0,0,.993-1.584q3-13.927,5.916-27.873c2.427-11.513,4.846-23.027,7.3-34.671Zm5.477,64.005c-4.354-20.644-8.723-41.128-12.926-61.645-.445-2.172-1.323-2.531-3.243-2.5-6.451.1-12.9.033-19.357.043-.735,0-1.469.084-2.441.143.548,1.094.948,1.927,1.378,2.745q15.3,29.093,30.6,58.183c1.8,3.414,1.794,3.415,5.987,3.033m17.022-.006c4.186.4,4.184.4,5.981-3.016q15.359-29.19,30.717-58.382c.42-.8.8-1.619,1.326-2.7-8.013,0-15.634-.03-23.253.066-.533.007-1.4.882-1.532,1.478-4.446,20.791-8.821,41.6-13.239,62.558m30.915-33.972h44.3c.819-4.97,1.628-9.876,2.475-15.01-12.876,0-25.376-.008-37.875.027a1.78,1.78,0,0,0-1.356.644c-2.513,4.673-4.952,9.385-7.542,14.338m-123.149-.065H77.738c-2.391-4.564-4.7-8.831-6.858-13.175a2.909,2.909,0,0,0-3.1-1.81c-11.408.069-22.818.038-34.227.038h-2.58c.871,5.2,1.695,10.12,2.5,14.947m-3.1-30.067v7.45H65.853c-1.055-2.014-2.088-3.758-2.894-5.6a2.8,2.8,0,0,0-3.055-1.89c-7.474.093-14.95.042-22.425.042Zm173.681,0c-10.322,0-20.457-.009-30.591.029a1.785,1.785,0,0,0-1.346.673c-1.21,2.163-2.31,4.388-3.527,6.747h35.464ZM128.445,162.7h-22.4v7.284h22.4Z" transform="translate(0 -0.001)" fill="#1a1818"/><path d="M95.117,239.811c-7.563-.025-13.295-7.346-10.62-14.38,1.9-4.993,4.86-9.618,7.659-14.217a3.6,3.6,0,0,1,6.181.108c2.721,4.47,5.591,8.96,7.485,13.8,2.832,7.238-2.9,14.716-10.7,14.691m.548-19.076h-.945a59.8,59.8,0,0,0-3.1,7.649c-.237.885.815,2.617,1.748,3.173a4.191,4.191,0,0,0,3.642,0c.933-.557,1.987-2.29,1.749-3.175a59.631,59.631,0,0,0-3.1-7.644" transform="translate(-30.922 -77.283)" fill="#1a1818"/><path d="M262.953,239.812c-7.786.009-13.493-7.5-10.645-14.737,1.9-4.835,4.778-9.319,7.5-13.786a3.6,3.6,0,0,1,6.182-.042c2.773,4.528,5.69,9.086,7.591,14,2.761,7.134-2.961,14.554-10.632,14.564m.446-19.076h-.945a59.662,59.662,0,0,0-3.1,7.645c-.237.886.812,2.619,1.744,3.175a4.193,4.193,0,0,0,3.642,0c.935-.557,1.991-2.288,1.753-3.173a59.6,59.6,0,0,0-3.1-7.647" transform="translate(-92.795 -77.283)" fill="#1a1818"/><path d="M53.265,269.758c-7.683,0-13.423-7.392-10.677-14.53,1.891-4.917,4.816-9.47,7.573-14.007a3.6,3.6,0,0,1,6.181-.013c2.766,4.532,5.685,9.09,7.58,14.007,2.752,7.137-2.978,14.541-10.657,14.544m.459-19.08-.944,0a59.835,59.835,0,0,0-3.093,7.657c-.236.884.822,2.615,1.756,3.168a4.191,4.191,0,0,0,3.642-.01c.932-.559,1.98-2.294,1.741-3.18a59.586,59.586,0,0,0-3.1-7.639" transform="translate(-15.453 -88.329)" fill="#1a1818"/><path d="M304.782,269.758c-7.564-.023-13.3-7.342-10.625-14.376,1.9-4.993,4.859-9.619,7.657-14.219a3.6,3.6,0,0,1,6.181.1c2.722,4.47,5.592,8.96,7.486,13.8,2.833,7.24-2.894,14.719-10.7,14.695m.546-19.076h-.945a59.761,59.761,0,0,0-3.1,7.645c-.237.886.812,2.619,1.744,3.175a4.191,4.191,0,0,0,3.642,0c.935-.557,1.991-2.288,1.753-3.173a59.607,59.607,0,0,0-3.1-7.647" transform="translate(-108.26 -88.33)" fill="#1a1818"/><path d="M119.039,329.651c-7.552-.037-13.264-7.385-10.575-14.418,1.909-4.99,4.869-9.615,7.679-14.207a3.6,3.6,0,0,1,6.179.164c2.684,4.4,5.5,8.826,7.4,13.584,2.932,7.344-2.763,14.916-10.681,14.877m.609-19.011-.966-.031a51.511,51.511,0,0,0-2.974,7.239,3.941,3.941,0,0,0,1.5,3.433,4.591,4.591,0,0,0,4-.09,3.978,3.978,0,0,0,1.339-3.486,50.668,50.668,0,0,0-2.9-7.066" transform="translate(-39.76 -110.422)" fill="#1a1818"/></g></g></svg>