<svg xmlns="http://www.w3.org/2000/svg" xmlns:xlink="http://www.w3.org/1999/xlink" width="186.076" height="190.616" viewBox="0 0 186.076 190.616"><defs><clipPath id="a"><rect width="186.076" height="190.616" fill="none"/></clipPath></defs><g clip-path="url(#a)"><path d="M143.29,190.616a19.011,19.011,0,0,1-2.649-2.524c-2.916-4.071-5.969-8.075-8.5-12.383a24.174,24.174,0,0,1-2.994-12.325c-.022-11.29-.118-22.582.045-33.869.048-3.3.871-6.581,1.366-10.069H24.639c-.62,0-1.243.027-1.861-.014-2.49-.167-3.885-1.522-3.959-4.015-.076-2.53-.016-5.063-.016-7.84H16.646c-4.157,0-8.315.023-12.472-.01-2.566-.02-4.2-1.5-4.173-3.976C.22,84.925.263,66.253.883,47.6c.2-6.062,1.8-12.1,3.047-18.1a9.367,9.367,0,0,1,9.58-7.5Q41.8,21.983,70.1,22c2.352,0,3.906,1.151,4.253,3.072a3.61,3.61,0,0,1-2.24,4.053,8.467,8.467,0,0,1-2.736.306q-26.9.025-53.8.012c-3.992,0-3.954.172-4.9,4.139C7.888,45.266,7.634,57.151,7.527,69.058c-.028,3.092,0,6.184,0,9.427H145.68V76.309c0-12.9-.09-25.807.061-38.708.04-3.4-2.244-5.364-3.809-7.8-.239-.371-1.245-.341-1.9-.342q-18.056-.028-36.112-.02c-2.793,0-4.357-1.533-4.2-4.017.135-2.139,1.7-3.417,4.267-3.42q16.474-.014,32.948,0h1.518c2.824-6.862,5.434-13.455,8.313-19.928A4.336,4.336,0,0,1,150,.122c5.017-.209,10.048-.084,15.073-.094a3.531,3.531,0,0,1,3.5,2.29c2.324,5.534,4.653,11.067,6.857,16.649a9.588,9.588,0,0,1-.882,8.573,7.32,7.32,0,0,1-.91,1.4c-3.711,3.978-4.528,8.669-4.373,14.011.325,11.157.1,22.329.1,33.5v1.989c4.474.736,5.1,1.544,5.16,6,.066,5.015-.075,10.062.465,15.031.3,2.733,1.64,5.411,2.816,7.973,1.159,2.524,2.709,4.868,4.077,7.3a32.351,32.351,0,0,1,4.194,16.177q-.013,15.446,0,30.893a31.985,31.985,0,0,1-6.41,19.6q-2.719,3.657-5.57,7.215a19.563,19.563,0,0,1-2.136,1.993Zm4.833-104.287c0,3.127-.011,6.152,0,9.177a30.78,30.78,0,0,1-3.933,15.108c-1.158,2.119-2.331,4.232-3.558,6.312a28.846,28.846,0,0,0-4.1,15.4c.138,10.047.011,20.1.052,30.147A23.276,23.276,0,0,0,141,176.219c1.408,1.965,2.837,3.926,4.424,5.744a3.71,3.71,0,0,0,2.43,1.162c5.024.106,10.078-.273,15.067.151,4.377.373,7.035-1.107,9.61-4.667a29.262,29.262,0,0,0,6.066-18.106c-.115-8.807-.194-17.621.025-26.424.17-6.788-1.2-13.023-4.994-18.691-.688-1.026-1.2-2.166-1.847-3.223a32.87,32.87,0,0,1-4.827-18.235c.055-2.514.009-5.03.009-7.6ZM7.607,100.083c3.822,0,7.527.016,11.23-.026a1.407,1.407,0,0,0,1.012-.6c2.278-3.882,5.774-4.971,10.078-4.963q54.164.1,108.33.038h2.3V86.394H7.607Zm18.735,11.779H104.37q14.332,0,28.664-.019c.693,0,1.777-.052,2.015-.463,1.708-2.953,3.244-6,5.02-9.378H29.233c-.372,0-.861-.141-1.094.041-.655.511-1.669,1.122-1.716,1.755-.194,2.58-.081,5.183-.081,8.064M161.918,78.55V76.412c0-11.22-.034-22.439.009-33.659.043-11.056-.937-8.605,5.491-18,.07-.1.122-.218.2-.314a3.5,3.5,0,0,0,.458-3.823c-1.689-3.985-3.291-8.006-5.04-11.963a2.353,2.353,0,0,0-1.7-1.14c-2.411-.13-4.836.008-7.251-.081a1.927,1.927,0,0,0-2.2,1.43c-1.033,2.715-2.245,5.362-3.307,8.066-2.634,6.707-2.976,4.579,1.158,10.8.308.464.607.938.949,1.377a12.943,12.943,0,0,1,2.608,8.325c-.05,12.955-.021,25.911-.021,38.866V78.55Z" transform="translate(0 0)" fill="#1a1818"/><path d="M146.042,91.916a14.626,14.626,0,1,1,14.547,14.656,14.8,14.8,0,0,1-14.547-14.656m14.542-7a7.032,7.032,0,1,0,7.105,6.994,6.963,6.963,0,0,0-7.105-6.994" transform="translate(-73.431 -38.877)" fill="#1a1818"/><path d="M213.854,291.314a13.194,13.194,0,0,1,3.325-8.266c3.024-3.48,3.032-6.581.058-10.083a13.818,13.818,0,0,1-.782-17.168c1.541-2.148,3.766-2.748,5.589-1.506,1.87,1.273,2.113,3.486.629,5.721-2.013,3.032-1.832,5.708.573,8.44a14.17,14.17,0,0,1,.141,18.977,9.826,9.826,0,0,0-1.971,4.422c-.472,2.649-1.8,4.2-4.131,4.056-2.279-.137-3.594-1.9-3.432-4.594" transform="translate(-107.518 -127.538)" fill="#1a1818"/><path d="M90.029,252.518a17.053,17.053,0,0,1,3.12,2.524,3.287,3.287,0,0,1-.306,4.135c-1.34,1.784-2.036,3.728-1.239,5.9a9.77,9.77,0,0,0,1.685,2.83c4.85,5.784,4.8,13.193.051,19.033a11.648,11.648,0,0,0-2.038,4.8c-.487,2.254-1.79,3.692-3.933,3.608a3.664,3.664,0,0,1-3.563-3.944,13.49,13.49,0,0,1,3.532-9.132c2.862-3.266,2.839-6.481-.044-9.783a13.637,13.637,0,0,1-.544-17.573,17.468,17.468,0,0,1,3.28-2.395" transform="translate(-42.136 -126.968)" fill="#1a1818"/><path d="M148.858,291.431a13.192,13.192,0,0,1,3.375-8.426c3.006-3.438,2.994-6.563-.03-10.066a13.8,13.8,0,0,1-.482-17.463c1.464-1.874,3.67-2.337,5.369-1.128,1.752,1.246,2.06,3.43.766,5.425-2.254,3.478-2.111,5.8.548,8.878a14.262,14.262,0,0,1,.058,18.712,10.073,10.073,0,0,0-2.075,4.394c-.5,2.73-1.693,4.256-3.987,4.176s-3.594-1.748-3.543-4.5" transform="translate(-74.839 -127.552)" fill="#1a1818"/><path d="M46.109,84.861c-1.8,0-3.593.055-5.386-.011-2.583-.1-4.14-1.573-4.125-3.8.015-2.2,1.653-3.722,4.182-3.755q5.385-.069,10.772,0c2.521.03,4.22,1.56,4.27,3.719S54.2,84.752,51.68,84.847c-1.855.07-3.714.014-5.571.015" transform="translate(-18.402 -38.849)" fill="#1a1818"/><path d="M172.307,51.7a3.713,3.713,0,1,1,.131-7.424,3.847,3.847,0,0,1,3.688,3.71,3.737,3.737,0,0,1-3.819,3.715" transform="translate(-84.781 -22.26)" fill="#1a1818"/><path d="M300.545,269.558q0,9.11,0,18.22c0,1.667-.551,3.246-2.183,3.749a4.514,4.514,0,0,1-3.588-.292,5.551,5.551,0,0,1-1.73-3.6c-.244-3.017-.082-6.067-.082-9.1q0-13.479.007-26.958c.006-2.88,1.245-4.48,3.479-4.633,2.472-.17,4.08,1.514,4.093,4.394.025,6.073.007,12.146.007,18.22" transform="translate(-147.275 -124.159)" fill="#1a1818"/><path d="M325.662,269.344q0-9.016,0-18.031c0-2.74,1.38-4.36,3.684-4.384,2.334-.024,3.753,1.569,3.755,4.3q.016,18.217,0,36.435c0,2.642-1.539,4.386-3.761,4.35s-3.674-1.792-3.678-4.45q-.013-9.108,0-18.217" transform="translate(-163.744 -124.157)" fill="#1a1818"/></g></svg>