<svg xmlns="http://www.w3.org/2000/svg" xmlns:xlink="http://www.w3.org/1999/xlink" width="176.898" height="176.834" viewBox="0 0 176.898 176.834"><defs><clipPath id="a"><rect width="176.898" height="176.834" fill="none"/></clipPath></defs><g clip-path="url(#a)"><path d="M17.718,170.9h8.843v-2.128q0-29.1,0-58.2c0-3.675.774-4.465,4.374-4.466q22.934,0,45.869,0c3.476,0,4.288.828,4.288,4.371q0,29.008,0,58.016v2.319h78V82.579a15.326,15.326,0,0,1-11.587-5.862c-7.492,8.443-17.928,6.967-23.712-.028A14.748,14.748,0,0,1,112.046,82.5c-4.777,0-8.63-2.047-11.774-5.876-3.068,3.709-6.926,5.868-11.75,5.876a14.549,14.549,0,0,1-11.76-5.8C69.576,84.9,59.141,83.959,53.044,76.7A14.717,14.717,0,0,1,41.289,82.5c-4.775-.007-8.624-2.059-11.87-6a19.528,19.528,0,0,1-1.272,1.61A14.678,14.678,0,0,1,3,68.159c-.07-4.91-.039-9.821-.055-14.731a1.437,1.437,0,0,0-.077-.27c-2.347-.469-2.93-2.11-2.86-4.342.1-3.312.008-6.63.033-9.945.018-2.409,1.083-3.46,3.494-3.492,1.708-.023,3.416,0,5.342,0,0-2.752.066-5.372-.022-7.987a3.67,3.67,0,0,1,2.615-3.913C29.448,15.948,47.4,8.347,65.378.824a10.484,10.484,0,0,1,3.9-.782q19.249-.086,38.5,0a9.509,9.509,0,0,1,3.551.688Q138.3,12,165.241,23.37c.226.095.455.186.676.292,1.843.883,2.557,2.413,1.871,4-.7,1.616-2.278,2.206-4.164,1.43-4.024-1.657-8.023-3.377-12.034-5.066Q131,15.355,110.395,6.719a35.167,35.167,0,0,0-5.058-1.22c.5,1.034.7,1.515.96,1.96,5.156,8.851,10.339,17.686,15.454,26.559a2.424,2.424,0,0,0,2.456,1.383q24.223-.062,48.448-.027c3.38,0,4.233.855,4.235,4.239,0,3.315.02,6.63-.006,9.945-.019,2.4-1.094,3.483-3.5,3.49-6.939.02-13.878.007-20.816.008h-2.075c0,5.519-.338,10.924.1,16.264.378,4.574,4.809,7.649,9.346,7.285a8.876,8.876,0,0,0,8.1-8.744c.045-2.025-.045-4.055.045-6.076a2.87,2.87,0,0,1,2.841-2.821,2.8,2.8,0,0,1,2.961,2.679,59.344,59.344,0,0,1-.319,8.988,12.857,12.857,0,0,1-6.705,9.63,3.169,3.169,0,0,0-1.784,3.318q.05,44.387.025,88.774c0,3.728-.765,4.481-4.551,4.481H16.311c-3.74,0-4.489-.757-4.489-4.54q0-39.875,0-79.749a16.147,16.147,0,0,1,.03-1.84,2.851,2.851,0,0,1,2.979-2.658,2.8,2.8,0,0,1,2.844,2.6,11.219,11.219,0,0,1,.04,1.839q0,38.033,0,76.066Zm14.817-.092H75.049V112.1H32.535Zm83.023-135.5a6.239,6.239,0,0,0-.28-.749c-5.368-9.209-10.722-18.427-16.159-27.6A2.736,2.736,0,0,0,97.1,5.948c-5.7-.081-11.408-.01-17.111-.075a2.407,2.407,0,0,0-2.454,1.381C72.425,16.117,67.248,24.942,62.1,33.782c-.264.453-.466.942-.751,1.525ZM6.012,47.034H170.845V41.362H6.012Zm8.819-11.728c.458.029.755.063,1.053.063,12.4,0,24.8-.011,37.2.031a2.008,2.008,0,0,0,1.978-1.233Q62.81,20.8,70.617,7.466c.261-.449.464-.932.975-1.97a36.5,36.5,0,0,0-5.046,1.232c-8.1,3.337-16.16,6.777-24.235,10.177Q28.589,22.683,14.831,28.466ZM8.875,53.143c0,4.845-.023,9.6.006,14.364a8.84,8.84,0,1,0,17.671.039c.034-4.349.012-8.7,0-13.047,0-.462-.087-.925-.13-1.356Zm23.716-.01a4.273,4.273,0,0,0-.124.658c-.006,4.716-.06,9.434.008,14.149a8.827,8.827,0,0,0,8.133,8.668c4.6.341,9.011-2.86,9.351-7.484.388-5.278.09-10.607.09-15.99Zm23.449-.011c0,5.029-.044,9.862.012,14.694a8.828,8.828,0,0,0,17.656-.029c.057-4.226.014-8.453.015-12.679V53.123Zm41.225.067H79.618c0,.619,0,1.1,0,1.588.006,4.532-.1,9.069.05,13.6a8.753,8.753,0,0,0,8.538,8.25c4.612.115,8.785-3.344,9-7.928.243-5.124.056-10.268.056-15.506m5.94-.062c0,5.047-.055,9.937.016,14.826a8.822,8.822,0,0,0,8.146,8.654c4.6.333,9-2.875,9.34-7.5.383-5.278.089-10.6.089-15.982Zm23.576.009c0,4.926-.023,9.64.006,14.354a8.839,8.839,0,1,0,17.671.071c.036-4.349.012-8.7,0-13.047,0-.464-.085-.927-.129-1.378Z" transform="translate(0 0)"/><path d="M191.861,250.386h46.56c0-1.715.06-3.4-.013-5.084-.126-2.881-.33-5.76-.511-8.639-.143-2.273.867-3.748,2.686-3.9s3.034,1.09,3.186,3.439q.534,8.269.945,16.545c.117,2.389-1.024,3.566-3.392,3.569q-26.066.023-52.131,0c-2.417,0-3.505-1.208-3.368-3.773q.958-17.835,1.981-35.667c.3-5.27.612-10.539.9-15.81.152-2.774,1.075-3.671,3.895-3.681,2.568-.009,5.136,0,7.943,0-.395-5.783.959-10.827,5.627-14.5a14.176,14.176,0,0,1,9.948-3.141,14.425,14.425,0,0,1,10.746,5.639c2.758,3.462,3.39,7.514,3.108,12,2.776,0,5.393-.008,8.012,0,2.782.011,3.7.923,3.85,3.728q.6,10.94,1.221,21.878c.129,2.29-.887,3.735-2.719,3.848-1.749.109-3-1.1-3.137-3.314-.359-5.574-.63-11.153-.938-16.73-.06-1.095-.127-2.189-.2-3.4H230v5.909c0,.675.005,1.351,0,2.026-.023,2.339-1.078,3.687-2.9,3.717-1.887.03-2.979-1.354-2.988-3.813-.009-2.57,0-5.141,0-7.836H206.423c0,2.647.009,5.267,0,7.886-.01,2.381-1.024,3.7-2.857,3.762-1.886.061-3.023-1.34-3.033-3.768-.011-2.575,0-5.149,0-7.865h-6.063c-.864,15.581-1.729,31.186-2.6,46.963M224,197.318c.509-4.395-.321-8.14-4.257-10.472a8.308,8.308,0,0,0-9.516.369c-3.534,2.456-4.188,6.046-3.674,10.1Z" transform="translate(-94.381 -91.283)"/><path d="M245.289,269.369a11.787,11.787,0,1,1-11.814-11.806,11.814,11.814,0,0,1,11.814,11.806m-11.724-5.9a5.885,5.885,0,1,0,5.825,5.9,5.911,5.911,0,0,0-5.825-5.9" transform="translate(-112.619 -130.827)"/><path d="M131.738,272.4c0,1.9.041,3.807-.012,5.708a2.936,2.936,0,1,1-5.861,0q-.07-5.708,0-11.417a2.936,2.936,0,1,1,5.861,0c.053,1.9.012,3.806.012,5.708" transform="translate(-63.914 -133.881)"/></g></svg>