<svg xmlns="http://www.w3.org/2000/svg" xmlns:xlink="http://www.w3.org/1999/xlink" width="199.449" height="213.442" viewBox="0 0 199.449 213.442"><defs><clipPath id="a"><rect width="199.449" height="213.442" fill="none"/></clipPath></defs><g clip-path="url(#a)"><path d="M152.658,0c3.579,1.67,4.888,4.459,4.723,8.39-.218,5.2-.006,10.418.006,15.629.007,3.044-.994,4.46-3.119,4.478-2.1.017-3.22-1.507-3.224-4.415-.007-5.833,0-11.666,0-17.667h-7.99V163.725h8.391c0-.847,0-1.72,0-2.593q-.182-59.608-.359-119.217a11.8,11.8,0,0,1,.182-2.684,3.092,3.092,0,0,1,6.065.171,15.687,15.687,0,0,1,.159,2.7q.139,59.4.263,118.8c0,.9,0,1.793,0,2.776.8.143,1.473.214,2.12.387a4.616,4.616,0,0,1,3.657,4.694c.065,2.978.016,5.958.016,9.168.867.039,1.6.1,2.328.1,7.295.007,14.59.028,21.884-.007a6.506,6.506,0,0,1,6.6,4.42c1.484,3.661,3.018,7.3,4.407,11a11.471,11.471,0,0,1,.633,3.652c.087,3.054.048,6.113.024,9.17-.038,4.689-2.546,7.183-7.213,7.183q-73.26,0-146.521,0-20.529,0-41.059,0c-3.435,0-4.614-1.16-4.618-4.619C0,196.037.016,183.254,0,170.471a19.572,19.572,0,0,1,7.518-15.777,3.114,3.114,0,0,0,.98-2.053c.107-2.984.026-5.974.052-8.961.037-4.1,1.441-6.053,5.306-7.476,0-1.3.043-2.6-.012-3.895s-.206-2.594-.317-3.919c-1.219-.153-2.253-.216-3.259-.422a6.52,6.52,0,0,1-5.065-6.33c-.1-2.776-.1-5.56,0-8.335.12-3.224,1.974-5.346,5.062-6.391a4.021,4.021,0,0,0,2.01-1.689c4.4-7.72,11.055-11.453,19.886-11.266a1.954,1.954,0,0,0,2.164-1.314C40.465,80.382,55.218,77,66.3,85.224a2.708,2.708,0,0,0,2.012.566c8.38-2.555,15.573-.422,21.957,5.454,5.481-3.141,11.321-4.05,17.364-2.01,7.631,2.576,12.379,7.906,14.179,15.785a3.215,3.215,0,0,0,1.838,2.676,5.782,5.782,0,0,1,3.318,5.393c.091,2.914.159,5.84,0,8.748a6.212,6.212,0,0,1-6.241,6.268c-1.888.1-2.228.854-2.3,2.507-.233,5.132-.671,10.254-.918,15.385a3.674,3.674,0,0,0,.836,2.337,52.94,52.94,0,0,0,4.1,4.15c3.262,3.055,4.818,6.653,3.248,11.043-1.583,4.427-4.991,6.463-9.885,6.644-.181,2.525-.362,5.049-.564,7.856h15.846c0-2.659,0-5.136,0-7.612.006-4.522,1.186-5.938,5.764-6.742,0-.859,0-1.75,0-2.643q-.21-76.073-.481-152.147c-.018-3.982.986-7,4.611-8.882ZM95.288,207.125a9.022,9.022,0,0,0,.088-1.407c-.852-7.627,1.242-14.591,4.263-21.513,1.8-4.127,4.084-6.665,8.808-6.241.106.009.226-.133.444-.271.193-2.831.286-5.746.633-8.63a3.334,3.334,0,0,0-1.129-3.09C96.237,153.868,84.13,141.711,71.94,129.638a5.134,5.134,0,0,0-3.207-1.355c-6.6-.124-13.2-.058-19.8-.067a14.369,14.369,0,0,1-2.283-.114,2.941,2.941,0,0,1-2.76-3.1,3.016,3.016,0,0,1,2.776-3.117,10.885,10.885,0,0,1,2.078-.069c5.124,0,10.249,0,15,0-.291-2.962-.567-5.772-.846-8.606H11.722v8.5c.723.039,1.331.1,1.939.1,6.043.007,12.087-.015,18.13.015,2.322.012,3.651,1.153,3.725,3.043.08,2.032-1.193,3.243-3.644,3.335-1.8.068-3.612.02-5.417.021h-6.54c.218,2.852.406,5.31.606,7.93,1.111,0,2-.015,2.9,0,4.522.088,7.062,2.654,7.077,7.154.01,3.057-.067,6.115.052,9.167a3.356,3.356,0,0,0,1.055,2.213,20.2,20.2,0,0,1,7.605,16.4q-.026,16.88,0,33.759v2.28ZM18.83,106.646h96.784a12.888,12.888,0,0,0-.242-1.528,14.731,14.731,0,0,0-21.295-8.727C90.06,98.6,88.46,98.382,85.2,95.284c-4.123-3.922-9.053-5.21-14.41-3.514A8.253,8.253,0,0,1,62.2,90.184a14.534,14.534,0,0,0-22.3,5.393c-2.1,4.482-3.055,5.029-8.036,4.756-5.328-.292-9.5,1.846-13.039,6.313m84.486,85.718h88.193c-.887-2.23-1.749-4.115-2.381-6.075a2.58,2.58,0,0,0-2.956-2.081c-14.793.087-29.587.05-44.38.05-11.113,0-22.225-.017-33.337.038-.747,0-1.905.348-2.166.88-1.118,2.283-1.971,4.7-2.971,7.188m-70.63-22.529H6.436v24.2H32.685Zm39.782-57.188a14.924,14.924,0,0,0-2.81,2.571c-.981,1.525-.167,2.913.992,4.072q21.562,21.567,43.136,43.124c1.757,1.754,3.66,1.822,5.14.339,1.388-1.392,1.3-3.529-.344-5.181q-21.544-21.584-43.144-43.113a16.578,16.578,0,0,0-2.97-1.812m10.663.532c2.693,2.7,5,5.142,7.472,7.41a4.7,4.7,0,0,0,2.867,1.17c8.4.09,16.8.055,25.205.046.6,0,1.2-.082,1.838-.128v-8.5ZM32.7,200.64H6.461V207.1H32.7Zm124.5-30.3h-19.56v7.538H157.2ZM30.921,163.379c-3.1-4.559-7.047-6.629-12.17-6.353-4.5.242-7.873,2.39-10.567,6.353Zm80.513-22.5q.427-6.276.849-12.494h-13.4l12.55,12.494m.134,58.14h-9.653v8.129h9.653Zm16.355-.04h-9.747V207.1h9.747Zm16.262.018h-9.778V207.1h9.778Zm16.263,0h-9.769v8.115h9.769Zm16.335-.082H166.99v8.137h9.794Zm16.271-.033h-9.77v8.168h9.77ZM15.087,150.755h9.045v-8.123H15.087Z" transform="translate(0)" fill="#1a1818"/></g></svg>