<svg xmlns="http://www.w3.org/2000/svg" xmlns:xlink="http://www.w3.org/1999/xlink" width="168.8" height="174.393" viewBox="0 0 168.8 174.393"><defs><clipPath id="a"><rect width="168.8" height="174.393" fill="none"/></clipPath></defs><g clip-path="url(#a)"><path d="M129.348,254.772c0,3.508,0,6.9,0,10.286,0,7.273-3.821,11.578-11.249,12.495,0,2.476.008,4.981,0,7.487-.011,2.737-.947,3.66-3.714,3.67-2.285.008-4.572-.046-6.854.017a3.387,3.387,0,0,1-3.485-2.115c-1.284-2.693-2.684-5.331-3.963-8.025a1.778,1.778,0,0,0-1.887-1.146q-25.047.044-50.093,0a1.893,1.893,0,0,0-2.021,1.222c-1.243,2.648-2.638,5.224-3.883,7.871a3.474,3.474,0,0,1-3.612,2.2c-2.341-.073-4.687,0-7.03-.022-2.426-.019-3.427-1-3.446-3.4-.021-2.568,0-5.136,0-7.279-2.308-.928-4.505-1.475-6.328-2.618a10.356,10.356,0,0,1-4.9-9.028c-.071-3.8-.015-7.608-.015-11.328a63.36,63.36,0,0,1-6.127-2.286A19.545,19.545,0,0,1,.661,230.254a19.626,19.626,0,0,1,38.376,1.9,31.281,31.281,0,0,1,.3,4.194c.045,2.8.014,5.609.014,8.547a144.139,144.139,0,0,1,67.5-.013c0-2.948-.217-5.86.061-8.724a30.509,30.509,0,0,1,1.689-8.519,19.369,19.369,0,0,1,21.863-11.652,19.686,19.686,0,0,1-.01,38.582c-.285.062-.573.108-1.1.207m-95.625-8.128c0-3.768.039-7.57-.008-11.372a14.055,14.055,0,1,0-14.6,14.05c2.433.137,3.344,1.07,3.353,3.513.015,4.276-.007,8.551.008,12.827.013,3.828,2.3,6.167,6.091,6.168q44.543.015,89.087,0c3.724,0,6.036-2.316,6.058-6.025.025-4.217,0-8.434.008-12.651,0-2.833.79-3.674,3.561-3.839a14.068,14.068,0,0,0,.683-28.04,13.816,13.816,0,0,0-15.1,11.494c-.622,4.369-.321,8.873-.344,13.316,0,.36.643.861,1.092,1.062,1.9.851,3.844,1.614,5.885,2.456-.554,1-.97,1.761-1.393,2.516-.449.8-.905,1.6-1.166,2.058-29.378-10.333-58.4-10.357-87.694.017l-2.568-4.578,7.039-2.971m.075,36.442a19.787,19.787,0,0,0,2.448-.024c.57-.076,1.384-.206,1.616-.6.911-1.527,1.634-3.167,2.485-4.882H33.8Zm78.611-5.516h-6.571c.859,1.72,1.6,3.285,2.429,4.8a1.531,1.531,0,0,0,1.041.681c1.015.093,2.044.032,3.1.032Z" transform="translate(0 -114.339)"/><path d="M233.619,163.288c0,2.49.01,5,0,7.509-.014,2.612-.982,3.56-3.636,3.572-2.344.01-4.688-.038-7.031.016a3.307,3.307,0,0,1-3.352-2.042c-1.3-2.686-2.692-5.327-3.956-8.029a1.839,1.839,0,0,0-2.027-1.213c-1.687.078-3.381.021-5.189.021V157.5h2.261q11.074,0,22.147,0c4.191,0,6.408-2.21,6.409-6.389q.006-69.516,0-139.034c0-4.2-2.208-6.44-6.352-6.442q-17.05-.01-34.1,0H197.12V64.552h-5.652V5.628H189.4c-11.015,0-22.033.142-33.043-.066-4.816-.092-7.619,2.865-7.112,7.165.041.346.006.7.006,1.338h-5.359A11.378,11.378,0,0,1,155.145.013q39.109-.037,78.217,0a12.951,12.951,0,0,1,2.781.315,11.17,11.17,0,0,1,8.705,10.4c.033.76.019,1.523.019,2.284,0,45.583-.068,91.166.08,136.748.021,6.321-2.646,12.467-11.329,13.528M221.45,163.2c3.22,6.666,1.761,5.618,6.451,5.376V163.2Z" transform="translate(-76.148 0)"/><path d="M64.044,35.689V30.165h5.525v5.524h2.047q9.664,0,19.328,0c3.081,0,3.829.689,4.085,3.7q1.336,15.75,2.68,31.5c.265,3.1-.708,4.169-3.841,4.17q-11.069.006-22.139,0H69.711v5.493h-5.65V75.062H61.988q-11.245,0-22.49,0c-2.681,0-3.754-1.129-3.534-3.792Q37.318,54.9,38.724,38.54c.165-1.925,1.226-2.838,3.3-2.844,6.618-.018,13.237-.007,19.855-.008h2.168M41.792,69.333H91.9c-.779-9.361-1.548-18.6-2.324-27.921H44.115c-.776,9.329-1.545,18.57-2.323,27.921" transform="translate(-19.059 -15.998)"/><path d="M41.339,174.943H35.981c0-5.269-.369-10.5.1-15.646.512-5.63,5.373-9.57,11.029-9.575q45-.042,90,0a11.149,11.149,0,0,1,11.235,11.139c.065,4.394.015,8.789.013,13.183,0,.232-.027.464-.051.835h-5.57v-7.452c0-2.05.02-4.1-.005-6.152a5.636,5.636,0,0,0-5.971-5.936q-15.732-.029-31.464-.007-28.563,0-57.126,0c-4.541,0-6.673,2.125-6.68,6.645q-.008,6.239-.021,12.479a2.7,2.7,0,0,1-.126.486" transform="translate(-19.009 -79.394)"/><rect width="5.368" height="5.461" transform="translate(56.369 87.316)"/><rect width="5.427" height="5.458" transform="translate(84.464 87.287)"/><rect width="5.408" height="5.44" transform="translate(42.287 101.358)"/><rect width="5.394" height="5.469" transform="translate(70.418 101.321)"/><rect width="5.394" height="5.469" transform="translate(98.511 101.334)"/><rect width="5.44" height="5.408" transform="translate(56.302 115.435)"/><rect width="5.412" height="5.407" transform="translate(84.44 115.449)"/><path d="M23.93,247.881a8.427,8.427,0,1,1,8.236,8.527,8.465,8.465,0,0,1-8.236-8.527m11.223.106a2.8,2.8,0,1,0-2.764,2.8,2.829,2.829,0,0,0,2.764-2.8" transform="translate(-12.691 -127.049)"/><path d="M268.34,248.008a8.427,8.427,0,1,1-8.31-8.453,8.463,8.463,0,0,1,8.31,8.453m-5.631-.043a2.8,2.8,0,1,0-2.743,2.818,2.828,2.828,0,0,0,2.743-2.818" transform="translate(-133.376 -127.049)"/></g></svg>