<svg xmlns="http://www.w3.org/2000/svg" xmlns:xlink="http://www.w3.org/1999/xlink" width="205.93" height="207.388" viewBox="0 0 205.93 207.388"><defs><clipPath id="a"><rect width="205.93" height="207.388" fill="none"/></clipPath></defs><g clip-path="url(#a)"><path d="M105.393,0c4.7,1.5,8.088,4.978,11.834,7.893,9.369,7.292,18.681,14.659,28.015,22,.372.292.765.561,1.106.885a3.05,3.05,0,0,1-3.81,4.764c-1.487-1.046-2.881-2.226-4.312-3.351q-15.351-12.072-30.7-24.142c-3.341-2.623-5.786-2.612-9.1,0q-45.1,35.452-90.2,70.908c-.21.166-.411.345-.782.658l7.414,9.467c5.044-3.956,10.018-7.851,14.985-11.756Q65,49.68,100.159,22.037c2.423-1.9,3.206-1.9,5.68.048Q147.524,54.85,189.21,87.613c.582.458,1.183.891,1.892,1.423l7.43-9.454c-9.107-7.159-18.119-14.244-27.132-21.328q-8.753-6.878-17.507-13.752c-.053-.042-.1-.085-.157-.128-2.094-1.681-2.535-3.415-1.268-4.973,1.232-1.513,2.941-1.5,4.99.09,2.4,1.859,4.78,3.744,7.166,5.62q19.643,15.446,39.283,30.9c2.479,1.952,2.634,3.322.712,5.78q-5.048,6.458-10.136,12.885c-1.706,2.155-3.183,2.335-5.344.684-1.492-1.139-2.962-2.307-4.728-3.685V201.268c4.1,0,8.2-.03,12.3.011,2.622.026,4.2,2.242,2.99,4.3a5.344,5.344,0,0,1-2.312,1.688,4.485,4.485,0,0,1-1.8.062H9.93c-.4,0-.81.009-1.215,0-2.046-.061-3.314-1.2-3.332-2.994a2.967,2.967,0,0,1,3.265-3.052c3.576-.036,7.154-.011,10.73-.012h1.809v-2.524q0-24.3,0-48.592a11.156,11.156,0,0,1,.052-2.02,2.9,2.9,0,0,1,3.085-2.631,2.812,2.812,0,0,1,2.922,2.774c.065.737.043,1.483.043,2.226q0,24.093,0,48.186v2.474H177.964v-2.141q0-55.272.016-110.546a3.227,3.227,0,0,0-1.275-2.926q-36.241-28.4-72.4-56.9c-1.09-.859-1.75-.72-2.755.072Q65.071,57.458,28.58,86.184a3.844,3.844,0,0,0-1.234,2.664c-.075,14.914-.053,29.829-.054,44.744,0,3.288-.936,4.784-3,4.81-2.082.027-3.106-1.532-3.106-4.734q0-19.538,0-39.076V91.985c-1.695,1.3-3.094,2.407-4.522,3.472-2,1.49-3.544,1.33-5.067-.59Q6.317,88.208,1.1,81.5c-1.621-2.085-1.457-3.608.569-5.2Q48.512,39.453,95.4,2.662A30.472,30.472,0,0,1,100.534,0Z" transform="translate(0)" fill="#1a1818"/><path d="M133.726,214.907c-2.385,2.459-4.417,4.436-6.282,6.561a3.593,3.593,0,0,0-.534,2.32c.144,3.545.56,7.086.536,10.627a13.323,13.323,0,0,1-1.277,4.846c-4.77,11.378-19.444,19.1-31.454,16.489a4.454,4.454,0,0,1-2.88-2.309c-.321-.882.344-2.463,1.066-3.318a45.9,45.9,0,0,1,5.7-5.736,17.336,17.336,0,0,0,5.612-9.3,2.7,2.7,0,0,0-.649-2.662c-2.036-2.855-4.332-3.363-7.54-1.851a14.989,14.989,0,0,0-4.842,3.077c-2.412,2.547-4.92,5-7.432,7.455-2.262,2.206-4.886,1.455-5.606-1.594-2.053-8.7.675-16.171,5.885-23.04,6.627-8.737,15.158-12.21,25.931-9.483a2.539,2.539,0,0,0,2.817-.81c3.534-3.615,7.136-7.164,10.829-10.854L97.92,169.456c-4.722,3.728-5.319,3.613-8.284-1.331q-5.667-9.45-11.332-18.9c-1.443-2.413-1.326-3.337.644-5.32q3.711-3.734,7.443-7.445c2.061-2.051,2.914-2.149,5.48-.612q10.06,6.021,20.11,12.059c3.374,2.028,3.574,3.478.909,6.308-.272.288-.515.6-.874,1.027,3.109,3.085,6.234,6.063,9.186,9.2a4.709,4.709,0,0,1,1.26,3.162,3.108,3.108,0,0,1-1.94,2.22,4.227,4.227,0,0,1-3.268-.815c-2.762-2.471-5.32-5.172-7.918-7.822a14.433,14.433,0,0,1-1.328-1.867l-5.406,5.784,36.12,36.149L144,195.826c-2.814-2.8-5.731-5.691-8.641-8.591-2.772-2.763-5.559-5.513-8.294-8.312-1.5-1.53-1.56-3.4-.278-4.659,1.347-1.32,3.032-1.242,4.645.349,2.111,2.083,4.149,4.242,6.357,6.511,3.946-3.946,7.768-7.726,11.511-11.584.342-.352.268-1.2.229-1.812-.219-3.412-.923-6.857-.648-10.224.595-7.274,5.15-12.266,10.691-16.425,6.59-4.947,13.854-7.384,22.18-5.538,1.43.317,2.828.857,2.865,2.367a5.494,5.494,0,0,1-1.268,3.5c-2.478,2.756-5.129,5.368-7.838,7.9-2.348,2.2-2.515,5.272-3.491,8.014-.144.406.663,1.162,1.048,1.743,1.849,2.782,4.09,3.235,7.179,1.79a15.213,15.213,0,0,0,5.02-3.167c2.355-2.506,4.764-4.978,7.327-7.268.835-.746,2.411-1.44,3.3-1.139a4.493,4.493,0,0,1,2.374,2.832,22.859,22.859,0,0,1-.862,13.907,33.6,33.6,0,0,1-11.363,15.186c-5.883,4.451-12.551,4.827-19.458,3.193a2.746,2.746,0,0,0-3.028.82c-1.816,1.9-3.758,3.678-5.766,5.62.585.635,1.013,1.132,1.475,1.595q17.09,17.124,34.188,34.238c7.659,7.66,7.648,16.641-.054,24.335-6.188,6.182-13.917,7.371-20.506,3.067a22.78,22.78,0,0,1-3.531-3.012q-17.123-17.09-34.2-34.231a19.552,19.552,0,0,1-1.448-1.925m-31.907,34.929.243.719c2.545-.964,5.271-1.614,7.6-2.956,5.2-3,9.956-6.61,11.533-12.88.946-3.761.3-7.521-.7-11.176a4.759,4.759,0,0,1,1.5-5.415c2.068-1.83,3.933-3.888,5.9-5.838,2.093-2.078,4.2-4.145,6.058-5.982l-6.13-6.529c-3.7,3.709-7.492,7.251-10.958,11.09-2.267,2.51-4.481,3.217-7.816,2.273-5.026-1.424-10.186-1.646-14.71,1.74A27.34,27.34,0,0,0,84.4,228.56a31.5,31.5,0,0,0-.708,3.324l.521.212c1.547-1.583,3.043-3.223,4.664-4.726a8.333,8.333,0,0,1,2.683-1.7c2.648-.981,5.377-1.743,8.033-2.706a3.518,3.518,0,0,1,4.045.914c2.142,2.152,4.406,4.2,6.374,6.5a4.43,4.43,0,0,1,.965,3.4c-1.482,5.822-3.209,11.583-8.489,15.334a4.694,4.694,0,0,0-.667.721M148.6,191.607c3.768-3.776,7.635-7.348,11.125-11.255,2.251-2.52,4.492-3.041,7.661-2.122,8.144,2.361,14.883.088,19.906-6.818a36.951,36.951,0,0,0,3.623-5.807,49.208,49.208,0,0,0,2.032-6.165c-.711,0-1.009.165-1.2.415-3.358,4.489-8.059,6.736-13.338,8.03a9.812,9.812,0,0,0-1.536.489,3.38,3.38,0,0,1-4.047-.861q-3.213-3.222-6.437-6.435a3.511,3.511,0,0,1-.874-4.053c.833-2.271,1.376-4.658,2.337-6.869a18.426,18.426,0,0,1,2.946-4.676,36.313,36.313,0,0,1,4.19-3.616l-.544-.6a4.728,4.728,0,0,0-.987.009A26.205,26.205,0,0,0,156.8,152.81a9.773,9.773,0,0,0-1.713,5.073,63.974,63.974,0,0,0,.975,10.366,4.749,4.749,0,0,1-1.368,4.722c-3.156,3.039-6.183,6.213-9.33,9.262a41.332,41.332,0,0,1-3.472,2.735l6.7,6.639m26.533,25.734L159.61,232.629c5.044,5.045,10.116,10.259,15.378,15.275a9.619,9.619,0,0,0,4.6,2.261c5.518,1.078,12.248-3.962,13.205-9.6.491-2.9.023-5.652-2-7.729-5.209-5.347-10.6-10.513-15.66-15.492m-29.188,1.183L161,203.654l-7.633-7.663-15.02,15.023,7.592,7.51M106.412,151.74c-3.81-2.287-7.648-4.612-11.509-6.9-1.666-.987-3.486-2.782-5.04-2.594s-2.811,2.454-4.29,3.7c-1.082.911-1.147,1.661-.384,2.883,2.846,4.559,5.561,9.2,8.334,13.8.262.434.593.828.833,1.159l12.056-12.053m44.238,71.767,4.163,4.188,15.148-15.143-3.917-4.454L150.65,223.506" transform="translate(-35.495 -61.873)" fill="#1a1818"/></g></svg>