<svg xmlns="http://www.w3.org/2000/svg" xmlns:xlink="http://www.w3.org/1999/xlink" width="190.504" height="190.573" viewBox="0 0 190.504 190.573"><defs><clipPath id="a"><rect width="190.504" height="190.573" fill="none"/></clipPath></defs><g clip-path="url(#a)" style="isolation:isolate"><path d="M95.236,92.211v2.053c0,15.11.018,30.22-.03,45.329,0,1.452.283,2.016,1.879,2.324,11.868,2.284,19.9,12.712,19.651,25.28-.225,11.192-9.1,21.27-20.521,22.99-10.262,1.546-18.42-2.132-24.452-10.546-.57-.794-1-1.417-2.212-1.411-12.738.064-25.477.041-38.216.044-.252,0-.5.038-.857.067a15.65,15.65,0,0,1-7.808,10.375,15.305,15.305,0,0,1-19.693-4.437,15.189,15.189,0,0,1,1.78-20.088,4.049,4.049,0,0,0,1.4-3.3Q6.114,97.6,6.137,34.314c0-16.695,10.857-30.149,27.2-33.643a28.671,28.671,0,0,1,5.7-.619q11.618-.1,23.237-.021C78.394.123,92.772,12.867,94.859,28.9a42.5,42.5,0,0,1,.361,5.35q.046,18.63.016,37.262v2.036A15.568,15.568,0,0,0,113.662,58.4c.111-5.248.062-10.5.018-15.75-.109-13.276,10-25.248,23.709-26.4a25.967,25.967,0,0,1,28.426,23.161,30.7,30.7,0,0,1,.094,3.645q.006,54.069,0,108.138v2.5c.95,0,1.758-.009,2.566,0,2.521.032,3.562,1.086,3.576,3.655.015,2.8,0,5.608,0,8.637,3.005,0,5.863-.005,8.722,0,5.889.012,9.7,3.83,9.714,9.731.008,3.778.017,7.555,0,11.333-.014,2.41-1.106,3.5-3.533,3.5q-30.246.015-60.492,0c-2.439,0-3.539-1.084-3.552-3.481-.022-4.033-.04-8.067,0-12.1a9.1,9.1,0,0,1,9.1-8.981c3.006-.029,6.012-.005,9.323-.005v-7.46c0-4.171.612-4.8,4.7-4.835.383,0,.765,0,1.443,0V151.61q0-54.069-.022-108.138a12.037,12.037,0,0,0-.533-3.767,7.662,7.662,0,0,0-8.127-5.077,7.742,7.742,0,0,0-6.674,7.724c-.074,5.313-.014,10.628-.024,15.941A33.735,33.735,0,0,1,98.25,92.21c-.942,0-1.885,0-3.014,0M68.278,172.055c-.063-.337-.1-.585-.155-.832a24.466,24.466,0,0,1,19.054-29.307c1.5-.307,1.969-.711,1.962-2.253-.058-15.174-.034-30.349-.039-45.524,0-.613-.054-1.227-.088-1.928a19.377,19.377,0,0,1-2.084-.011,4.963,4.963,0,0,0-5.076,2.281A18.1,18.1,0,0,1,58.735,99.22a18.323,18.323,0,0,1-8.723-22c2.461-7.165,7.632-11.5,15.116-12.5,7.16-.96,13.019,1.753,17.426,7.526.435.57.979,1.386,1.55,1.457a39.4,39.4,0,0,0,4.842.069V55.438H12.381V160.014a16.075,16.075,0,0,1,11.481,2.374,15.882,15.882,0,0,1,6.608,9.666ZM12.583,30.657H88.747a15.9,15.9,0,0,0-.128-1.748A27.685,27.685,0,0,0,62.125,6.2c-7.608-.162-15.229-.233-22.832.02-9.653.321-17.25,4.674-22.6,12.744a24.414,24.414,0,0,0-4.109,11.7m147.2,122.951c0-.988,0-1.754,0-2.52q0-53.68,0-107.36c0-.64.009-1.281-.013-1.92a20.1,20.1,0,0,0-20.542-19.521c-10.4.244-19.15,9.226-19.373,20.025-.113,5.44,0,10.883-.042,16.324A21.428,21.428,0,0,1,98.538,79.906c-8.769.049-17.538.011-26.307.011-.512,0-1.025-.019-1.536.006-1.964.1-3.345,1.3-3.408,2.958a3.346,3.346,0,0,0,3.233,3.178c.381.037.768.019,1.151.019,8.705,0,17.41.032,26.115-.024a29.388,29.388,0,0,0,5.717-.541,27.647,27.647,0,0,0,22.472-27.492c.032-5.441-.049-10.884.026-16.324a13.815,13.815,0,0,1,27.617.775q.014,54.352,0,108.7v2.432ZM12.352,49.059H88.947V36.993H12.352ZM92.13,184.415a18.438,18.438,0,1,0-18.4-18.521,18.586,18.586,0,0,0,18.4,18.521m92-.023a2.1,2.1,0,0,0,.2-.506c.017-2.432.034-4.864.034-7.3,0-3.487-.97-4.466-4.425-4.467q-16.419,0-32.838,0c-4.8,0-9.6.008-14.4,0-1.816,0-3.371.722-3.509,2.557-.241,3.213-.067,6.456-.067,9.717ZM24.558,175.179A9.342,9.342,0,0,0,15.371,166a9.21,9.21,0,1,0,.052,18.42,9.368,9.368,0,0,0,9.135-9.236M75.245,92.211c-1.636,0-3.077.008-4.517,0a9.4,9.4,0,0,1-9.645-9.318c.043-5.174,4.163-9.084,9.6-9.106,1.472-.006,2.944,0,4.823,0A12.21,12.21,0,0,0,59.265,92.018c4.73,4.35,12.174,4.128,15.98.192m90.577,67.737H147.615V165.9h18.207Z" transform="translate(0 0)" fill="#1a1818"/><path d="M170.907,305.555a9.21,9.21,0,1,1-9.212,9.055,9.151,9.151,0,0,1,9.212-9.055m3.053,9.137a3.059,3.059,0,1,0-2.982,3.133,3.2,3.2,0,0,0,2.982-3.133" transform="translate(-78.735 -148.785)" fill="#1a1818"/></g></svg>