<svg xmlns="http://www.w3.org/2000/svg" xmlns:xlink="http://www.w3.org/1999/xlink" width="265" height="256" viewBox="0 0 265 256">
  <defs>
    <style>
      .cls-1 {
        fill: none;
      }

      .cls-2 {
        clip-path: url(#clip-Artboard_2_12);
      }

      .cls-3 {
        clip-path: url(#clip-path);
      }

      .cls-4 {
        fill: #1a1818;
      }
    </style>
    <clipPath id="clip-path">
      <rect id="Rectangle_190" data-name="Rectangle 190" class="cls-1" width="234.687" height="155.107"/>
    </clipPath>
    <clipPath id="clip-Artboard_2_12">
      <rect width="265" height="256"/>
    </clipPath>
  </defs>
  <g id="Artboard_2_12" data-name="Artboard 2 – 12" class="cls-2">
    <g id="Group_361" data-name="Group 361" transform="translate(15.821 50.446)">
      <g id="Group_360" data-name="Group 360" class="cls-3">
        <path id="Path_180" data-name="Path 180" class="cls-4" d="M234.687,137.071c-2.1,4.621-5.743,6.1-10.69,5.98-9.543-.236-19.1-.108-28.645-.007a3.873,3.873,0,0,0-2.722,1.39c-10.082,14.117-29.933,14.156-39.807-.041a3.127,3.127,0,0,0-3.021-1.43q-19.938.049-39.877.02c-.611,0-1.224.026-1.833-.01-2.279-.131-3.684-1.5-3.655-3.55.028-2,1.288-3.289,3.55-3.359,2.976-.092,5.957-.04,8.937-.041,5.653,0,11.309-.109,16.958.053,2.2.063,2.759-.7,2.614-2.729-.157-2.2-.035-4.428-.036-6.644,0-3.248,0-3.25-3.145-3.25H62.585c.226,4.224.443,8.267.673,12.568h2.192q12.031,0,24.064,0c.687,0,1.377-.02,2.062.024,2.248.143,3.765,1.6,3.705,3.523a3.583,3.583,0,0,1-3.872,3.394c-4.888.05-9.778.017-14.667.018-2.827,0-5.67.2-8.476-.043-4.96-.425-8.543.657-12.292,4.825-9.954,11.069-27.746,9.264-36.4-2.991a3.6,3.6,0,0,0-3.525-1.828c-2.589.141-5.193.073-7.789.028A7.986,7.986,0,0,1,.02,134.729C0,131.445.06,128.159,0,124.875a8.426,8.426,0,0,1,3.375-6.925,3.759,3.759,0,0,0,1.21-2.353c.166-2.2.027-4.427.065-6.642.07-3.971,2.345-6.221,6.291-6.249,2.575-.018,5.151,0,7.94,0,0-1.145,0-2.042,0-2.939,0-13.445.091-26.891-.053-40.335-.046-4.363,2.286-8.4,8.138-8.123,5.772.272,11.567.059,17.587.059V48.451q0-20.167,0-40.335c0-5.684,2.405-8.107,8.046-8.11q21.2-.012,42.4,0c5.515,0,7.945,2.417,7.954,7.968q.032,20.168.008,40.335v3.057h2.572c5.424,0,10.848-.023,16.271.009a6.381,6.381,0,0,1,6.687,5.88,19.539,19.539,0,0,1,.141,2.74q.012,19.823.006,39.648v2.9h7.819V99.794c0-15.279.18-30.56-.078-45.834-.122-7.239,4.338-11.309,11.3-11.178,12.677.238,25.362.144,38.042.028a15.778,15.778,0,0,1,12.081,4.907c8.265,8.37,16.668,16.606,25.1,24.8a16.249,16.249,0,0,1,5.353,12.865c-.118,2.975.01,5.958-.032,8.937-.034,2.451-1.414,3.926-3.529,3.894-2.06-.03-3.317-1.388-3.356-3.789q-.076-4.7-.007-9.4a9.3,9.3,0,0,0-2.928-7.167q-13.2-12.889-26.281-25.9a6.79,6.79,0,0,0-5.106-2.095c-13.445.044-26.89.016-40.335.028-2.722,0-3.258.527-3.259,3.191q-.013,40.45,0,80.9c0,.592.083,1.184.136,1.9h4.895c.316-3.7.152-7.348,1.01-10.739,2.427-9.6,8.752-15.718,18.4-17.668,9.949-2.011,18.21,1.435,24.3,9.587a4.233,4.233,0,0,0,3.927,1.97c7.486-.086,14.973-.037,22.459-.037h2.777c0-2.66-.025-5.074.006-7.487.034-2.61,1.431-4.229,3.519-4.155,2.02.071,3.347,1.655,3.376,4.111.03,2.517.007,5.033.007,7.653,3.315.824,5.2,3.094,6.446,6.03ZM51.706,51.246H95.751V7.011H85.659c0,3.85.024,7.575-.007,11.3-.03,3.59-1.754,5.34-5.353,5.382-4.048.047-8.1.016-12.145.011-4.862-.006-6.243-1.4-6.245-6.3,0-3.477,0-6.954,0-10.379h-10.2ZM36.24,58.417H26.06v44.156H70.082V58.347H59.987c0,3.914.035,7.71-.011,11.5-.039,3.3-1.782,5.14-5.073,5.2-4.5.084-9.005.076-13.506,0-3.447-.054-5.134-1.852-5.152-5.314-.021-3.731,0-7.463,0-11.328M77.473,58.3v44.287h43.95V58.353H111.332c0,3.774.013,7.423,0,11.071-.018,3.883-1.706,5.611-5.574,5.646-4.048.037-8.1.018-12.146.006-4.516-.013-6.024-1.541-6.028-6.081,0-3.555,0-7.109,0-10.7Zm-26.447,51.38c2.035,1.783,4.133,3.4,5.948,5.3a4.393,4.393,0,0,0,3.522,1.55q36.658-.063,73.315-.03h2.473v-6.815Zm-11.551,4.282a17.088,17.088,0,0,0-17.417,16.648,17.1,17.1,0,1,0,34.189.622,17.035,17.035,0,0,0-16.773-17.27m116.182,16.92a17.079,17.079,0,0,0,16.862,17.2,17.271,17.271,0,0,0,17.255-16.885,17.072,17.072,0,0,0-17.058-17.229,16.9,16.9,0,0,0-17.06,16.914m40.8,5.142h8.7c6.646,0,13.293-.057,19.937.033,2.1.028,2.929-.7,2.75-2.81a30.175,30.175,0,0,1,0-4.808c.147-1.955-.7-2.478-2.553-2.463-9.09.071-18.18.029-27.271.039a14.477,14.477,0,0,0-1.561.152ZM15.733,123.463c-2.295,0-4.653-.007-7.01,0-1.319.006-1.9.641-1.867,2,.06,2.9-.071,5.8.09,8.695a2.383,2.383,0,0,0,1.476,1.753c2.323.2,4.674.084,6.674.084.218-4.269.42-8.252.638-12.538m62.8-116.4H68.987v9.5h9.546ZM43.282,67.888H52.8v-9.6h-9.52Zm60.9-9.535H94.621v9.516h9.562ZM11.765,116.48c2.6,0,5.094.017,7.585-.02a1.644,1.644,0,0,0,.982-.437c2.309-2.126,4.592-4.279,6.822-6.369H11.765Z" transform="translate(0 0)"/>
        <path id="Path_181" data-name="Path 181" class="cls-4" d="M351.277,123.745c3.972,0,7.944.051,11.914-.019a7.59,7.59,0,0,1,5.747,2.333q11.073,10.96,22.191,21.875a8.393,8.393,0,0,1,2.675,6.332c-.012,1.986.045,3.973-.014,5.957-.133,4.441-2.807,6.866-7.178,7.265-5.966.544-11.089-.622-15.268-5.3a51.533,51.533,0,0,0-7.11-6.119,5.837,5.837,0,0,0-3.239-1.2c-7.025-.106-14.052-.046-21.079-.057-5.4-.008-8.034-2.578-8.081-7.968-.045-5.117-.052-10.235,0-15.352.057-5.241,2.578-7.725,7.751-7.746,3.895-.016,7.79,0,11.685,0M386.732,160.3a32.858,32.858,0,0,1,.028-3.9c.265-2.173-.58-3.667-2.139-5.165-6.6-6.345-13.04-12.855-19.637-19.2a5.475,5.475,0,0,0-3.35-1.346c-4.726-.149-9.459-.062-14.19-.062h-8.463v17.125h2.568c6.638,0,13.276.029,19.914-.014a9.4,9.4,0,0,1,6.685,2.425c2.892,2.6,6.125,4.862,8.779,7.676,2.823,2.992,6.066,2.867,9.8,2.467" transform="translate(-179.419 -66.903)"/>
        <path id="Path_182" data-name="Path 182" class="cls-4" d="M343.625,198.83a13.509,13.509,0,0,1,2.508.026,3.273,3.273,0,0,1,3.011,3.438,3.08,3.08,0,0,1-3.017,3.366,30.941,30.941,0,0,1-5.015.031,3.361,3.361,0,0,1-3.311-3.4,3.579,3.579,0,0,1,3.311-3.468,23.743,23.743,0,0,1,2.513-.015Z" transform="translate(-182.664 -107.489)"/>
        <path id="Path_183" data-name="Path 183" class="cls-4" d="M72.25,261.209a11.1,11.1,0,0,1,11.031,11.062A11.082,11.082,0,1,1,72.25,261.209m-.149,6.982a3.9,3.9,0,0,0-3.895,4.136,4.01,4.01,0,1,0,8.016-.221,3.911,3.911,0,0,0-4.121-3.915" transform="translate(-33.049 -141.247)"/>
        <path id="Path_184" data-name="Path 184" class="cls-4" d="M363.328,261.237A11.068,11.068,0,0,1,374.1,272.6a11.236,11.236,0,0,1-11.479,10.713A11.09,11.09,0,0,1,352.023,272a10.928,10.928,0,0,1,11.3-10.764m-.373,15.062a4.086,4.086,0,0,0,4.127-4.006,4.046,4.046,0,1,0-4.127,4.006" transform="translate(-190.353 -141.259)"/>
      </g>
    </g>
  </g>
</svg>
