<svg xmlns="http://www.w3.org/2000/svg" xmlns:xlink="http://www.w3.org/1999/xlink" width="177.941" height="169.09" viewBox="0 0 177.941 169.09"><defs><clipPath id="a"><rect width="177.941" height="169.09" fill="none"/></clipPath></defs><g clip-path="url(#a)"><path d="M0,99.11c.982-3.14,3.2-5.092,5.875-6.92,9.266-6.337,18.35-12.938,27.575-19.336,1.372-.952,3.129-1.351,5.109-2.172V69.122c0-12.8.044-25.6-.026-38.4-.022-4.1,1.677-6.87,5.086-9.178C52.964,15.222,62.139,8.647,71.332,2.1a10.171,10.171,0,0,1,6.1-2.1q27.793.026,55.586.017c5.478.005,9.289,3.6,9.31,9.065q.108,27.973-.04,55.945c-.013,1.979-.967,3.953-1.546,6.162h1.411q12.941,0,25.882,0c6.335.009,9.882,3.573,9.883,9.914,0,18.127-.022,36.255.024,54.382a10.3,10.3,0,0,1-3.18,7.766q-11.354,11.249-22.6,22.606a10.269,10.269,0,0,1-7.759,3.181q-29.878-.076-59.755,0c-2.744.006-5.307-.32-7.554-2.313-2.346,2.174-5.182,2.319-8.134,2.312-19.224-.044-38.448-.14-57.67.052-5.544.055-9.4-1.713-11.287-7.069Zm114.158,63.98q15.115,0,30.23,0c2.866,0,3.9-1.005,3.9-3.851q.014-28.759,0-57.518c0-2.834-1.047-3.875-3.9-3.876q-30.23-.014-60.46,0c-2.853,0-3.885,1.03-3.887,3.88q-.015,28.759,0,57.518c0,2.883.995,3.846,3.882,3.848q15.115.008,30.23,0m-74.022,0q15.029,0,30.057,0c3,0,3.906-.911,3.907-3.951q.007-28.674,0-57.348c0-3.017-.928-3.949-3.952-3.95Q40,97.828,9.859,97.84c-2.96,0-3.937,1.007-3.937,3.991q0,28.674,0,57.348c0,2.964.966,3.909,3.983,3.909q15.116.006,30.231,0M78.591,91.9q15.028,0,30.056,0c3.148,0,4-.861,4-4.022q0-28.585,0-57.171c0-3.14-.865-4-4.033-4Q78.56,26.7,48.5,26.7c-3.133,0-4.023.9-4.024,4.028q0,28.585,0,57.171c0,3.1.9,3.992,4.055,3.994q15.028.008,30.056,0M136.414,9.71c-6.312,5.516-12.2,10.647-18.048,15.814a1.62,1.62,0,0,0-.254,1.178c.12,1.49.447,2.975.449,4.462q.05,25.452.021,50.9v2.109c5.522-5.5,10.648-10.678,15.874-15.755a6.061,6.061,0,0,0,1.988-4.739c-.052-17.2-.03-34.4-.03-51.6Zm17.81,145.575c5.866-5.845,11.43-11.325,16.881-16.914a4.448,4.448,0,0,0,.856-2.865q.075-26.491.031-52.981c0-.423-.077-.846-.142-1.508-5.6,4.892-10.967,9.642-16.409,14.308-1.317,1.13-2.269,2.114-1.466,4.028a7.842,7.842,0,0,1,.241,2.917q.018,25.362.008,50.723Zm12.9-78.02c-.622-.08-.842-.133-1.062-.133-10.3,0-20.594-.024-30.89.037a3.337,3.337,0,0,0-2.047.973c-3.725,3.637-7.379,7.347-11.07,11.02-.8.794-1.651,1.532-2.479,2.3l.26.44h1.846c7.4,0,14.809-.037,22.213.03a45.906,45.906,0,0,1,4.607.613,1.973,1.973,0,0,0,1.353-.216c5.682-4.912,11.329-9.865,17.269-15.06M89.2,20.379q.042.188.084.376h1.827c5.84,0,11.681-.03,17.521.023,1.313.012,2.619.387,3.935.447a3.244,3.244,0,0,0,2.078-.43c5.314-4.551,10.559-9.182,15.837-13.776a4.738,4.738,0,0,1,1.052-.528L131.165,6a6.273,6.273,0,0,0-.629-.06c-7.286,0-14.572-.021-21.858.027a3.36,3.36,0,0,0-1.845.713c-3.224,2.446-6.4,4.95-9.6,7.437q-4.018,3.129-8.034,6.263m-33.7.2a10.09,10.09,0,0,0,1.076.171c7.17.006,14.339.027,21.508-.03a3.659,3.659,0,0,0,1.993-.814c4.136-3.155,8.232-6.363,12.339-9.557,1.754-1.364,3.5-2.734,5.651-4.413-5.882,0-11.246.186-16.591-.065a13.462,13.462,0,0,0-9.383,2.937c-5.265,4.032-10.808,7.7-16.594,11.771M16.883,91.783H38.657V77.3l-.516-.421-21.258,14.9" transform="translate(0 0)"/><path d="M197,318.088c-1.907,0-3.814.027-5.72-.006a5.756,5.756,0,0,1-5.989-5.5,50.253,50.253,0,0,1,0-6.755,5.717,5.717,0,0,1,5.99-5.489q5.807-.056,11.615,0a5.851,5.851,0,0,1,6.054,5.833c.1,2.018.1,4.049,0,6.067a5.885,5.885,0,0,1-6.055,5.846c-1.964.034-3.929.006-5.895.007m5.962-11.693H191.275v5.658h11.683Z" transform="translate(-99.228 -160.924)"/><path d="M282.1,331.753c-1.448,0-2.9.045-4.342-.011a2.942,2.942,0,1,1,.018-5.883q4.341-.087,8.684,0a2.938,2.938,0,0,1,3.087,3.042,2.988,2.988,0,0,1-3.105,2.857c-.116.006-.232,0-.347,0h-4Z" transform="translate(-147.239 -174.594)"/><path d="M282.18,300.34c1.447,0,2.9-.038,4.342.011a2.942,2.942,0,1,1,.044,5.882q-4.426.1-8.857,0a2.941,2.941,0,1,1,.129-5.88c1.446-.045,2.894-.009,4.342-.008" transform="translate(-147.24 -160.934)"/><path d="M37.237,318.08c-1.965,0-3.93.039-5.894-.01a5.85,5.85,0,0,1-5.85-5.682c-.1-2.134-.1-4.28,0-6.413a5.816,5.816,0,0,1,5.879-5.638q5.98-.076,11.961,0a5.708,5.708,0,0,1,5.809,5.668c.089,2.135.09,4.279,0,6.413a5.762,5.762,0,0,1-5.836,5.654c-2.021.047-4.045.009-6.067.008m-5.745-6.027H43.1v-5.727H31.492Z" transform="translate(-13.62 -160.919)"/><path d="M122.424,331.75c-1.447,0-2.9.045-4.341-.011a2.941,2.941,0,1,1,.006-5.882c2.951-.058,5.9-.066,8.855.006a2.936,2.936,0,0,1-.006,5.872c-1.5.065-3.009.013-4.514.014" transform="translate(-61.682 -174.591)"/><path d="M122.449,306.245c-1.389,0-2.779.036-4.167-.007a2.932,2.932,0,0,1-3.175-2.944,2.863,2.863,0,0,1,3.132-2.955q4.253-.059,8.507,0a2.837,2.837,0,0,1,3.086,2.822,2.907,2.907,0,0,1-3.042,3.069c-1.444.059-2.893.012-4.34.013" transform="translate(-61.682 -160.925)"/><path d="M120.309,164.645c-1.965,0-3.93.045-5.894-.008a5.827,5.827,0,0,1-5.848-5.843c-.058-2.021-.064-4.047,0-6.068a5.862,5.862,0,0,1,5.894-5.827q5.979-.1,11.961,0a5.757,5.757,0,0,1,5.8,5.7c.078,2.135.08,4.279,0,6.414a5.7,5.7,0,0,1-5.673,5.618c-2.078.067-4.16.013-6.24.014m5.923-11.739H114.6V158.6h11.635Z" transform="translate(-58.153 -78.69)"/><path d="M205.624,152.8c-1.505,0-3.012.045-4.515-.011a2.865,2.865,0,0,1-2.959-2.958,2.829,2.829,0,0,1,2.841-2.91q4.511-.123,9.027,0a2.935,2.935,0,0,1-.053,5.869c-1.444.059-2.894.013-4.34.013" transform="translate(-106.181 -78.696)"/><path d="M205.41,178.329c-1.446,0-2.895.047-4.339-.013a2.926,2.926,0,0,1-.194-5.843c3.062-.116,6.134-.111,9.2-.013a2.931,2.931,0,0,1-.152,5.86c-1.5.055-3.008.011-4.512.01" transform="translate(-106.19 -92.375)"/></g></svg>