<svg xmlns="http://www.w3.org/2000/svg" xmlns:xlink="http://www.w3.org/1999/xlink" width="511.014" height="512" viewBox="0 0 511.014 512"><defs><clipPath id="a"><rect width="511.014" height="512" fill="none"/></clipPath></defs><g clip-path="url(#a)"><path d="M295.423,0c11.591,4.421,16.513,13.008,17.328,25.259.894,13.433,3.15,26.773,4.654,40.171.374,3.335,1.552,5.442,4.907,6.636a147.09,147.09,0,0,1,15.611,6.52c3.207,1.579,5.464,1.025,8.1-1.088,11.426-9.149,22.991-18.125,34.479-27.2,11.682-9.226,22.342-8.694,32.808,1.767q22.955,22.942,45.848,45.948,15.3,15.378,1.832,32.5c-8.819,11.272-17.5,22.661-26.577,33.721-3,3.651-3.29,6.664-1.189,10.735a104.851,104.851,0,0,1,5.74,13.8c1.134,3.271,3,4.794,6.428,5.173,14.862,1.638,29.708,3.426,44.552,5.221,13.59,1.644,21.033,10.08,21.048,23.836q.037,32.986,0,65.973c-.015,13.755-7.456,22.2-21.042,23.849q-22.265,2.7-44.551,5.231c-3.148.353-5.126,1.573-6.277,4.681-2.02,5.451-4.239,10.843-6.7,16.106-1.411,3.014-.882,5.192,1.11,7.69,9.131,11.45,18.1,23.025,27.148,34.545,9.381,11.952,8.816,22.531-1.866,33.258q-22.723,22.821-45.5,45.59c-10.458,10.452-21.138,10.985-32.817,1.764-11.489-9.072-23.06-18.039-34.478-27.2-2.66-2.134-4.876-2.614-8.079-1.034a155.746,155.746,0,0,1-15.637,6.464,6.614,6.614,0,0,0-4.847,6.148c-1.641,14.723-3.65,29.409-5.085,44.151-1.076,11.052-7.071,17.821-16.947,21.777H215.579c-9.869-3.954-15.869-10.716-16.947-21.762-1.438-14.735-3.444-29.414-5.085-44.131a6.633,6.633,0,0,0-4.811-6.173c-5.287-1.951-10.533-4.078-15.6-6.532-3.167-1.533-5.454-1.065-8.11,1.064-11.546,9.256-23.222,18.349-34.854,27.5q-16.982,13.354-32.408-2-22.947-22.931-45.835-45.921c-10.274-10.316-10.913-21.06-1.985-32.457,9.129-11.655,18.2-23.354,27.437-34.926,2.121-2.659,2.6-4.945,1.051-8.127A166.266,166.266,0,0,1,71.908,322.9a6.586,6.586,0,0,0-6.144-4.831c-12.051-1.313-24.056-3.12-36.13-4.111C16.611,312.893,4.908,310.236,0,296V216c4.895-14.276,16.639-16.882,29.657-17.962,12.082-1,24.1-2.8,36.156-4.117,3.214-.352,5-1.812,6.11-4.884A130.643,130.643,0,0,1,78.24,173.85c1.823-3.571,1.155-6.036-1.2-8.976-9.063-11.3-17.912-22.764-26.852-34.158-9.2-11.728-8.625-22.3,1.828-32.867,3.279-3.314,6.514-6.676,9.9-9.877,3.817-3.609,7.849-3.746,11.051-.591,3.047,3,2.952,7.484-.468,11.128-3.3,3.519-6.816,6.838-10.2,10.283-4.6,4.684-4.771,6.939-.761,12.088,9.1,11.689,18.112,23.458,27.457,34.952,6.149,7.565,7.3,15.286,2.923,24.067a133.8,133.8,0,0,0-6.1,14.744c-3.078,8.631-9.123,13.126-18.1,14.146-14.7,1.669-29.373,3.514-44.067,5.208-6.842.789-8.669,2.664-8.675,9.539q-.026,32.5,0,64.992c.006,6.841,1.837,8.685,8.743,9.48,14.694,1.692,29.371,3.537,44.067,5.208,8.992,1.022,14.961,5.583,18.061,14.2,2.024,5.625,4.48,11.1,6.884,16.581,3.258,7.428,2.375,14.236-2.619,20.594Q76.232,372.262,62.4,389.978c-5.09,6.495-5.033,8.29.645,13.984Q85.619,426.6,108.217,449.2c5.1,5.1,7.2,5.247,12.82.855,11.795-9.227,23.632-18.4,35.3-27.784,6.961-5.6,14.163-6.577,22.276-2.776,5.857,2.744,11.957,4.964,17.91,7.507,6.273,2.68,10.328,7.349,11.235,14.174,2.061,15.513,3.944,31.051,5.774,46.594.892,7.576,2.51,9.219,10.039,9.222q32.183.016,64.367,0c6.836-.006,8.692-1.845,9.484-8.739,1.69-14.723,3.535-29.428,5.2-44.153,1.018-9.01,5.542-15.015,14.154-18.1a169.115,169.115,0,0,0,15.631-6.5c8.107-3.859,15.346-2.791,22.287,2.765,11.43,9.151,23.005,18.12,34.5,27.193,6.444,5.088,8.331,5.054,13.975-.594q22.419-22.434,44.8-44.9c5.651-5.672,5.707-7.505.619-14-8.933-11.4-17.739-22.9-26.835-34.172-5.855-7.255-7.014-14.712-2.872-23.176a144.776,144.776,0,0,0,6.285-15.207c3.066-8.634,9.071-13.164,18.059-14.185,14.7-1.67,29.374-3.517,44.068-5.211,6.884-.793,8.724-2.654,8.731-9.5q.029-32.5,0-64.992c-.006-6.86-1.841-8.731-8.7-9.522-14.694-1.693-29.372-3.533-44.068-5.207-8.978-1.023-14.982-5.544-18.088-14.165-2.026-5.625-4.477-11.1-6.886-16.581-3.263-7.421-2.431-14.217,2.584-20.588q14.052-17.856,28.014-35.785c4.771-6.1,4.664-8.027-.9-13.606Q425.424,85.419,402.82,62.817c-5.217-5.216-7.267-5.279-13.213-.6-11.508,9.053-23.113,17.987-34.495,27.2-7.237,5.856-14.674,7.01-23.139,2.9-5.517-2.68-11.317-4.777-17-7.116-6.687-2.753-10.9-7.582-11.835-14.827q-3-23.281-5.712-46.6c-.816-6.914-2.638-8.752-9.466-8.758q-32.433-.029-64.866,0c-6.86.005-8.727,1.834-9.516,8.694-1.691,14.723-3.528,29.429-5.2,44.154-1.02,8.988-5.5,15.029-14.113,18.143-5.614,2.029-11.081,4.485-16.55,6.894-7.4,3.261-14.2,2.449-20.56-2.566Q139.327,76.26,121.45,62.25c-6.077-4.781-8.01-4.67-13.576.869-3.186,3.171-6.282,6.436-9.557,9.512-3.646,3.424-8.1,3.529-11.105.474-3.149-3.2-3.018-7.25.6-11.067,3.547-3.746,7.231-7.366,10.921-10.974,9.218-9.014,20.292-9.683,30.554-1.713,11.7,9.084,23.376,18.191,34.873,27.525,3.245,2.635,5.947,3.353,9.821,1.339a119.7,119.7,0,0,1,14.689-6.152,6.583,6.583,0,0,0,4.876-6.119c1.645-14.728,3.655-29.417,5.088-44.164C199.7,10.723,205.684,3.943,215.579,0Z"/><path d="M222.365,369.592c0-4.438-.091-8.092.022-11.74.154-4.989,2.741-7.837,7.046-8,4.5-.167,7.525,2.756,7.831,7.841a47.486,47.486,0,0,1-.022,9.485c-.779,5.463,1.7,7.209,6.646,6.85,1.129-.082,2.269-.012,4.121-.012,0-3.17,0-6.107,0-9.044,0-10.5-.076-21,.047-31.5.067-5.688,2.815-8.657,7.489-8.631,4.637.027,7.345,3.02,7.4,8.728.115,11.5.041,23,.045,34.5,0,1.8,0,3.608,0,6.144l10.372-.832V304H237.3c0,5.259.181,11.379-.05,17.482-.244,6.431-6.079,10.4-10.836,7.129-2.058-1.415-3.656-4.753-3.877-7.353a156.682,156.682,0,0,1-.114-19.481c.137-3.437-1.029-5.23-4.069-6.968-48.427-27.673-50.77-97-4.344-127.561a20.477,20.477,0,0,1,8.137-3.372c8.061-1.075,14.283,4.858,14.358,13.423.112,12.831-.128,25.668.175,38.493a12.443,12.443,0,0,0,3.062,7.263c4.713,5.347,9.9,10.271,15.163,15.626,6.386-6.14,12.472-11.8,18.265-17.741,1.046-1.073,1.215-3.325,1.228-5.037.1-12.5.146-25,.015-37.5-.061-5.847,1.838-10.544,7.107-13.278,5.045-2.617,9.842-1.571,14.572,1.445,46.943,29.926,45.492,99.8-2.819,127.97-3.494,2.037-4.764,4.087-4.724,8.086.2,20.5.094,41,.094,61.495v5.605c2.6-.772,4.651-1.275,6.628-1.981,72.974-26.079,101.673-114.516,57.991-178.653a35.534,35.534,0,0,1-2.737-4.167c-1.777-3.628-1.039-6.939,2.138-9.335,3.418-2.577,6.868-2.081,9.871.93a23.478,23.478,0,0,1,2.435,3.159c55.848,79.574,8.6,192.365-87.194,208.147A133.857,133.857,0,0,1,122.963,271.47c-8.631-73.044,44.407-140.181,117.513-148.242,34.837-3.842,66.642,4.715,94.771,25.874a12.6,12.6,0,0,1,4.686,8.021c.372,4.918-5.485,8.092-10.059,6.027a26.691,26.691,0,0,1-4.577-2.98c-72.812-53.232-176.3-8.252-187.384,81.451-6.869,55.6,26.867,109.117,79.961,126.832,1.224.408,2.506.641,4.491,1.139m-.791-188.927c-21.762,13.166-31.536,43.626-22.781,68.937,9.01,26.048,36.356,43.467,62.808,40.008,29.347-3.837,51.491-26.255,53.7-54.367,1.74-22.136-11.4-49.638-25.881-53.818,0,12.705.375,25.375-.222,38a19.938,19.938,0,0,1-4.789,11.425c-6.073,6.809-12.976,12.887-19.676,19.116-6.521,6.063-13.426,5.9-19.842-.371-5.946-5.817-11.672-11.862-17.684-17.608a17.448,17.448,0,0,1-5.7-13.762c.216-12.277.067-24.561.067-37.559"/></g></svg>