<svg xmlns="http://www.w3.org/2000/svg" xmlns:xlink="http://www.w3.org/1999/xlink" width="201.103" height="223.753" viewBox="0 0 201.103 223.753"><defs><clipPath id="a"><rect width="201.103" height="223.753" fill="none"/></clipPath></defs><g clip-path="url(#a)"><path d="M89.162,223.753c-4.117-1.138-7.907-2.785-10.8-6.147a18.228,18.228,0,0,1-4.421-12.233q-.081-25.229-.014-50.457c0-3.141,1.045-5.654,4.257-6.909a2.364,2.364,0,0,0,1.04-1.789c.122-2.4.046-4.8.051-7.206.014-6.2,2.154-8.928,8.263-10.342,0-6.564-.048-13.174.018-19.782a29.126,29.126,0,0,1,2.483-12.5c4.344-9.109,11.7-13.985,21.5-15.445Q133.318,77.7,155.1,74.52c9.274-1.364,18.54-2.779,27.826-4.057,6.085-.838,9.372-4.378,9.389-10.478.016-5.9-.1-11.8.031-17.692.132-6.148-4.2-10.488-11.867-9.505a1.745,1.745,0,0,0-1.068.865c-2.668,4.992-6.973,7.045-12.44,6.8-2.067-.094-3.027.492-3.641,2.6-1.954,6.717-5.934,11.621-13.157,13.1a23.194,23.194,0,0,1-4.555.308c-9.465.026-18.931.013-28.4.013h-2.469a37.87,37.87,0,0,1-.583,4.649C112.45,67.93,107.082,72,99.76,72.081c-4.659.053-9.32,0-13.98.013-3.746.007-4.889,1.172-4.9,4.992-.011,3.2.015,6.408-.006,9.611-.056,8.461-5.815,14.635-13.708,14.715-7.97.082-13.992-6.089-14.186-14.546-.03-1.31.028-2.623-.036-3.931a6.257,6.257,0,0,0-12.366-1.088,14.489,14.489,0,0,0-.274,3.03c-.034,6.917.107,13.837-.082,20.749A15.551,15.551,0,0,1,24.34,121.073a15.713,15.713,0,0,1-15.5-15.687C8.7,95.85,8.8,86.31,8.8,76.772c0-7.281.047-14.563-.056-21.842a4.764,4.764,0,0,0-1.232-2.963C3.573,47.893,2.132,42.7,1,37.445a44.3,44.3,0,0,1,2.5-26.5C6.337,3.929,11.872.082,19.514.081,61.307.074,103.1.179,144.894,0c9.487-.041,15.672,4.434,18.358,13.224.707,2.313,1.673,3.082,4.039,2.942a12.191,12.191,0,0,1,12.1,6.607,3.052,3.052,0,0,0,2.284,1c4.451.084,8.691.8,12.319,3.6,4.318,3.334,6.91,7.677,7.01,13.2.129,7.057.121,14.119.018,21.175C200.9,70.2,194.093,77.825,184.5,79.166c-17.414,2.433-34.8,5.1-52.186,7.7-7.686,1.15-15.412,2.122-23.024,3.652-7.066,1.421-12.541,8.34-12.707,15.6-.171,7.491-.038,14.991-.038,22.307a34.629,34.629,0,0,1,4.885,2.674c2.239,1.722,2.827,4.317,2.856,7.029.03,2.693-.056,5.391.058,8.08a2.356,2.356,0,0,0,1.029,1.8,6.37,6.37,0,0,1,4.249,6.472c.051,17.111.135,34.222-.024,51.332-.082,8.81-5.473,15.276-13.966,17.525-.416.11-.817.282-1.225.425ZM8.831,28.762a35.514,35.514,0,0,0,3.428,14.81,7.162,7.162,0,0,0,6.687,4.13c2.038.039,4.077.008,6.116.008q60.286,0,120.572.023c3.967,0,6.944-1.333,8.5-5.141a36.336,36.336,0,0,0,.537-27.217c-1.885-5.1-4.088-6.575-9.489-6.576q-32.983,0-65.966,0-29.488,0-58.976,0c-2.806,0-5.577.473-7.125,2.969-1.457,2.348-2.332,5.058-3.669,8.074h3.261q19,0,38.007,0c4.217,0,6.509,1.621,6.441,4.538-.067,2.886-2.227,4.383-6.363,4.383q-19.549.006-39.1,0Zm8.76,27.819c0,16.417-.08,32.576.112,48.732a8.806,8.806,0,0,0,2.523,5.276c1.944,2.055,4.644,2.285,7.266,1.024a6.737,6.737,0,0,0,4.016-6.475c.027-7.28-.06-14.561.037-21.84a15.132,15.132,0,0,1,27.313-8.979c2.36,3.1,2.965,6.7,3.027,10.482a16.694,16.694,0,0,0,.5,4.728,4.817,4.817,0,0,0,5.241,2.995,5.156,5.156,0,0,0,4.478-5.347C72.21,83.393,72,79.6,72.2,75.821a15.209,15.209,0,0,1,1.308-5.653c2.4-5,6.71-6.957,12.1-6.951,5.094,0,10.2.09,15.278-.166,3.482-.175,5.252-2.874,4.635-6.47ZM82.85,156.564c-.036.782-.1,1.49-.1,2.2q-.009,22.8.006,45.6A21.378,21.378,0,0,0,83,207.616,8.868,8.868,0,0,0,93.267,214.8c4.9-.968,7.537-4.471,7.545-10.177q.032-23.017,0-46.032c0-.639-.073-1.277-.118-2.026Zm12.381-18.795H88.383v9.793h6.848ZM165.937,31.476c2.029.155,4.172.66,5.273-1.495a4.273,4.273,0,0,0,0-3.416c-1.106-2.123-3.241-1.686-5.269-1.524Z" transform="translate(0 0)" fill="#1a1818"/><path d="M154.836,54.27a4.369,4.369,0,0,1,.139-8.736,4.591,4.591,0,0,1,4.339,4.335,4.544,4.544,0,0,1-4.478,4.4" transform="translate(-84.672 -25.601)" fill="#1a1818"/></g></svg>