<svg xmlns="http://www.w3.org/2000/svg" xmlns:xlink="http://www.w3.org/1999/xlink" width="209.485" height="210.376" viewBox="0 0 209.485 210.376"><defs><clipPath id="a"><rect width="209.485" height="210.376" fill="none"/></clipPath></defs><g clip-path="url(#a)"><path d="M37.8,29.585c0-5.184-.049-10.312.012-15.439A13.767,13.767,0,0,1,48.5.415,17.685,17.685,0,0,1,52.535.039C58.678,0,64.824-.023,70.968.033c8.9.081,14.707,5.906,14.757,14.822.047,8.427.012,16.855.01,25.282,0,8.772-3.049,13.1-11.368,16.042v7.9c2.892,0,5.728.115,8.551-.022A14.354,14.354,0,0,1,97.994,79.038c-.293,8.421-.1,16.86-.019,25.29a7.369,7.369,0,0,0,1,3.578q4.541,7.51,9.368,14.846a4.59,4.59,0,0,0,2.621,1.737c4.312.954,8.68,1.647,13,2.568a3.112,3.112,0,0,1,2.508,3.671,3.177,3.177,0,0,1-3.527,2.742,13.651,13.651,0,0,1-1.693-.225q-5.147-.926-10.291-1.869c-.98,5.665-.98,5.665-6.976,5.665H97.93c0,2.887-.15,5.581.027,8.254.632,9.553-6.37,15.963-15.485,15.535-1.486-.07-2.979-.01-4.6-.01v15.432c2.718.178,5.489.174,8.2.574a16.216,16.216,0,0,1,13.593,15.833,7.7,7.7,0,0,1-7.65,8.071c-1.915.087-3.836.014-5.872.014,0,.743.026,1.3,0,1.845-.263,4.788-3.358,7.708-8.442,7.748-8.431.065-16.862.02-25.293.02-1.5,0-3,.044-4.5-.023-6.1-.272-9.618-3.828-9.644-9.941q-.08-18.54.029-37.081c.014-1.9-.419-2.616-2.4-3.08a13.763,13.763,0,0,1-10.431-13.517c-.032-4.768-.006-9.536-.006-14.524-3.468,0-6.734.014-10,0-8.749-.044-15.319-6.238-15.364-15Q-.091,81.075.084,44.958C.125,36.14,6.722,29.886,15.594,29.82c7.145-.053,14.29-.026,21.434-.041a5.139,5.139,0,0,0,.775-.194m53.534,91.423c0-5.06,0-9.834,0-14.607,0-9.359.073-18.718-.017-28.076-.045-4.637-3.122-7.5-7.808-7.507q-21.859-.03-43.718,0c-4.683.008-7.6,2.93-7.608,7.637q-.038,24.326-.009,48.651v9.72H91.347c0-2.756.041-5.381-.042-8a1.572,1.572,0,0,0-.9-1.181c-5.014-.977-10.045-1.867-15.129-2.789-.415,1.341-.725,2.507-1.138,3.636-.608,1.666-1.889,2.8-3.606,2.32-3.684-1.039-7.526-1.949-10.849-3.749-5.95-3.222-11.611-6.992-17.28-10.705a6.7,6.7,0,0,1-2.522-3.423c-1.285-4.294-2.26-8.681-3.356-13.032-1.01-4.006-2.094-7.994-3-12.023a3.168,3.168,0,0,1,2.43-3.922,3.336,3.336,0,0,1,3.971,2.407c.2.607.322,1.241.48,1.863,1.763,6.974,3.51,13.952,5.313,20.916A3.805,3.805,0,0,0,46.84,111.3c4.3,2.785,8.685,5.439,13.172,8.215.521-1.285.885-2.447,1.446-3.506.807-1.522.449-2.536-.845-3.648a68.281,68.281,0,0,1-6.478-6.238,8.114,8.114,0,0,1-1.988-4.046c-.934-7.07-1.624-14.173-2.422-21.262-.27-2.4.736-4.067,2.7-4.334,2.163-.293,3.583,1,3.867,3.526.727,6.451,1.432,12.9,2.2,19.35a4.478,4.478,0,0,0,.846,2.549c4.328,4.182,8,9.534,15.131,9.063a2.977,2.977,0,0,1,.834.184c2.236.537,3.239,2.049,2.76,4.264-.206.953-.539,1.879-.867,3l14.139,2.59m-53.4-84.3c-.728-.084-1.07-.158-1.413-.159q-10.818-.007-21.636.013A7.366,7.366,0,0,0,13,36.829c-4.14,1.129-6.38,4.349-6.383,9.223q-.015,31.811,0,63.623c0,2.427-.064,4.858.022,7.283.154,4.342,2.98,8.03,6.858,8.347s7.809.07,11.963.07v-2.567q0-21.85,0-43.7c0-9.1,5.907-15.017,14.976-15.031,2.833,0,5.666,0,8.53,0V56.086C39.11,53.141,36.918,45.894,37.939,36.712M45.05,160.938a3.677,3.677,0,0,0-.209.768c-.012,12.923-.038,25.845,0,38.768.007,2.363,1.047,3.267,3.536,3.273,9.638.026,19.277-.018,28.915.036,1.883.01,2.386-.781,2.109-2.495A9.675,9.675,0,0,0,70.836,193c-3.044-.294-6.129-.161-9.2-.218-3.029-.057-4.07-1.1-4.074-4.165q-.018-12.637,0-25.274v-2.4ZM78.843,15.768c.6-5.393-2.442-9.071-7.413-9.126q-9.752-.108-19.506,0c-4.262.047-7.435,2.971-7.5,7.216q-.2,14.248,0,28.5c.059,4.377,3.257,7.143,7.68,7.14,6.572,0,13.147.107,19.715-.058a8.425,8.425,0,0,0,4.49-1.585c2.868-2.1,3-5.265,2.587-8.718H76.549q-11.36,0-22.721,0c-3.073,0-4.248-1.171-4.266-4.294q-.041-7.4,0-14.79c.019-3.066,1.209-4.236,4.332-4.274,3.215-.04,6.43-.01,9.645-.01h15.3M32.179,143.807c0,1.108-.014,1.962,0,2.816a7.221,7.221,0,0,0,7.59,7.472q21.833.014,43.667,0c5.839-.006,9.151-4.521,7.562-10.288Zm32.078,42.41c2.021,0,3.8,0,5.581,0,4.276-.009,8.332,1.262,10.925,4.515,2.47,3.1,5.255,3.6,8.683,3.281a12.738,12.738,0,0,1,1.926,0c1.5.09,1.814-.688,1.658-2.009a9.841,9.841,0,0,0-9.689-8.8c-2.711-.047-5.424,0-8.136-.021-2.828-.025-4.041-1.178-4.068-4.031-.05-5.281-.017-10.562-.018-15.843V161H64.258ZM56.415,32.269H78.9V22.513H56.415Zm-.441,31.624h11.4V56.346h-11.4ZM66.1,122.467l2.577.8,1.8-6.08-2.219-.371L66.1,122.467m37.154,7.97c.019-.126.039-.253.059-.38-1.413-.291-2.82-.63-4.245-.835-.328-.047-.721.366-1.084.567.372.216.736.6,1.119.618,1.38.075,2.767.03,4.152.03" transform="translate(0 0)" fill="#1a1818"/><path d="M316.883,31.968c-1.649-.557-2.413-.133-2.874,1.524a69.454,69.454,0,0,1-2.559,6.609c.514.956,1.15,1.637,2.768.65a2.861,2.861,0,0,1,3.824.924,2.937,2.937,0,0,1,.1,3.945c-1.837,2.183-3.767,4.3-5.805,6.3a2.925,2.925,0,0,1-4.261.013,3.038,3.038,0,0,1-.771-4.046c.232-.432.534-.826.884-1.362l-1.424-1.53-8.5,3.6v1.675c.575.166,1.128.284,1.648.486a3.091,3.091,0,0,1,2.119,3.54,2.92,2.92,0,0,1-2.787,2.79,77.51,77.51,0,0,1-8.351.01,3.029,3.029,0,0,1-2.848-2.771c-.272-1.589.574-2.674,1.9-3.526a8.637,8.637,0,0,0,1.505-1.632,9.391,9.391,0,0,0-1.74-1.419c-2.043-.981-4.142-1.845-6.41-2.838l-1.753,1.643a16.327,16.327,0,0,1,.879,1.461,3.079,3.079,0,0,1-.757,3.886c-1.266,1.127-2.851,1.367-4.087.192a75.777,75.777,0,0,1-6.121-6.579c-1.086-1.311-.761-2.848.4-4.087,1.247-1.33,2.861-1.266,5.158.213l1.508-1.442c-1.028-2.639-1.914-5.028-2.911-7.371a1.777,1.777,0,0,0-1.243-.99,1.691,1.691,0,0,0-1.237.994c-.581,1.9-1.753,2.967-3.746,2.791-1.877-.166-2.873-1.674-2.888-4.084-.013-2,.037-4-.014-6-.05-1.943.634-3.385,2.607-3.879,1.837-.46,3.151.473,3.99,2.643.077.2.179.385.308.659h1.9c.079-.177.169-.357.241-.544a51.085,51.085,0,0,1,2.342-5.936c.751-1.4.671-2.2-.828-2.956-.4.261-.843.6-1.326.854a3.019,3.019,0,0,1-3.893-.679,2.878,2.878,0,0,1-.312-4.081c1.877-2.235,3.862-4.39,5.947-6.432a2.9,2.9,0,0,1,3.942-.109,3.135,3.135,0,0,1,1.091,3.992,16.428,16.428,0,0,1-.845,1.565l1.5,1.257c2.53-1.072,4.891-2.045,7.221-3.088.424-.19,1.042-.712,1-1a1.859,1.859,0,0,0-.965-1.234c-1.644-.7-2.618-1.871-2.352-3.638C288.348.954,289.71.029,291.7.035c2.21.008,4.422-.041,6.631.012,2.291.054,3.584,1.142,3.724,3.006.145,1.932-.888,3.1-3.143,3.572-.2.041-.385.131-1.217.422.757.732,1.186,1.418,1.8,1.69,2.329,1.033,4.717,1.932,7.393,3.005L308.12,10.6c-.316-.5-.607-.892-.828-1.321a3.058,3.058,0,0,1,.795-4.047,2.987,2.987,0,0,1,4.278.041,78.658,78.658,0,0,1,5.789,6.282,2.955,2.955,0,0,1-.25,4.108,3.049,3.049,0,0,1-3.889.737,14.22,14.22,0,0,1-1.242-.788c-1.25.61-1.356,1.309-.727,2.55,1.083,2.137,1.881,4.418,2.865,6.8h1.627a12.268,12.268,0,0,1,1.976-2.8,3.143,3.143,0,0,1,5.018,2.436c.157,2.273.078,4.564.063,6.846-.018,2.571-1.063,4.016-2.99,4.22-1.856.2-3.176-1.086-3.72-3.688m-13.12-12.936c-2.129-4.16-8.756-4.75-13.015-3.254a13.178,13.178,0,0,0-8.6,15.348,13.376,13.376,0,0,0,14.49,10.611c6.882-.7,10.978-6.209,11.185-15.055-1.614,2.517-3.883,3.159-5.58,1.389a21.707,21.707,0,0,1-3.61-4.753,3.821,3.821,0,0,1,.189-3.33c.553-.8,1.972-1.1,3.071-1.387.52-.138,1.18.254,1.871.43" transform="translate(-114.142 -0.01)" fill="#1a1818"/><path d="M193.744,311.747l1.231-2.963a16.29,16.29,0,0,1-2.038-.274,3.256,3.256,0,0,1-1.666-5.417,23.459,23.459,0,0,1,4.5-3.935,3.714,3.714,0,0,1,3.308-.2c1.058.715,1.586,2.212,2.529,3.664l2.948-.986a10.293,10.293,0,0,1-1.773-1.611,3.207,3.207,0,0,1,2.542-5.007c1.421-.1,2.858.039,4.282-.04,1.927-.107,3.69.18,4.337,2.26.624,2.007-.372,3.436-2.315,4.387l3.611,1.452a13,13,0,0,1,.531-2.674,3.113,3.113,0,0,1,4.988-1.184,45.793,45.793,0,0,1,3.383,3.267c1.2,1.185,1.92,2.5,1.072,4.209-.737,1.489-1.925,2.02-4.349,1.821l1.532,3.909c.92-2.067,2.407-2.934,4.389-2.336,1.956.592,2.392,2.236,2.289,4.112a30.707,30.707,0,0,0,0,3.212c.092,1.856-.289,3.463-2.253,4.138s-3.284-.283-4.383-2.037l-1.458,3.716a12.973,12.973,0,0,1,3.345,1.1c1.608,1.084,1.691,3.1.341,4.7-.869,1.035-1.915,1.92-2.833,2.917-1.2,1.3-2.586,2.128-4.357,1.407-1.876-.764-2.276-2.392-1.987-4.463l-2.424,1.048c.281,1.781.969,3.407.651,4.8-.426,1.869-2.344,2.009-4.064,1.961-.995-.028-1.992-.019-2.987,0-1.71.028-3.307-.149-4.129-1.98s.076-3.143,1.377-4.442l-2.812-1.038.432.508c-.883,1.214-1.528,2.807-2.707,3.548-1.589,1-3.1-.126-4.337-1.338-.765-.748-1.564-1.466-2.4-2.133-1.434-1.146-2.133-2.579-1.412-4.322.773-1.869,2.4-2.239,4.451-1.853l-1.139-2.823c-1.736.216-3.485.955-4.8.485-2.543-.906-1.959-3.567-1.965-5.608-.007-1.973-.437-4.344,1.965-5.463,1.816-.846,3.323-.143,4.561,1.5m14.19,12.181c5.1-.27,8.289-3.5,8.087-8.189a7.992,7.992,0,0,0-8.473-7.789c-4.783.334-7.9,3.941-7.587,9.038.285,4.568,4.819,7.6,7.973,6.94" transform="translate(-80.167 -126.337)" fill="#1a1818"/><path d="M219.945,130.357l.936-2.252c-1.387-1.188-3.08-1.973-3.632-3.251-1.121-2.588,4.449-8.26,7.22-7.61,2.272.532,2.711,2.249,2.6,4.372l3.562-1.35c-1.617-1.118-2.782-2.343-2.057-4.346.7-1.922,2.256-2.409,4.126-2.339,1,.037,2,.034,3,0,1.909-.074,3.652.251,4.375,2.288.709,2-.324,3.373-2.228,4.464l3.647,1.429a13.408,13.408,0,0,1,.216-2.256,3.3,3.3,0,0,1,5.362-1.49c.986.817,1.833,1.8,2.757,2.693,1.273,1.232,2.412,2.5,1.618,4.479-.741,1.844-2.278,2.191-4.228,2.06l1.4,3.336c1.224-1.466,2.554-2.609,4.556-1.732s2.151,2.649,2.1,4.507c-.023.856-.035,1.715,0,2.571.067,1.819-.235,3.44-2.129,4.27-1.841.807-3.136-.145-4.417-1.586l-1.2,2.977.513-.415c1.136.889,2.577,1.576,3.333,2.717,1.029,1.553-.074,2.957-1.191,4.162-.724.781-1.41,1.6-2.1,2.415-1.188,1.412-2.587,2.35-4.482,1.578-1.789-.729-2.179-2.306-1.955-4.412L238.6,148.84c.321.4.615.733.88,1.092a3.282,3.282,0,0,1-2.254,5.447,24.7,24.7,0,0,1-5.772,0c-3.133-.38-3.856-3.228-1.626-6.412l-2.7-1.158c-.034.568.087,1.1-.115,1.44-.587.98-1.122,2.326-2.019,2.693a3.872,3.872,0,0,1-3.311-.511,21.932,21.932,0,0,1-4.117-4.593c-1.628-2.379-.127-4.639,3.361-5.219l-.966-2.518a13.6,13.6,0,0,1-2.9,1.33,3.259,3.259,0,0,1-3.615-3.132c-.143-1.415-.037-2.853-.071-4.281-.043-1.832.34-3.45,2.232-4.222,1.84-.751,3.133.262,4.334,1.561m14.222,12.316a7.984,7.984,0,0,0,8.286-8.121c-.047-4.37-3.808-7.7-8.431-7.877-3.718-.142-8.375,3.795-7.945,8.672a7.955,7.955,0,0,0,8.089,7.326" transform="translate(-91.392 -48.644)" fill="#1a1818"/><path d="M350.136,222.773c-.01,5.994-4.706,10.872-10.393,10.795a10.847,10.847,0,0,1,.077-21.663c5.7-.013,10.326,4.865,10.316,10.868m-13.922-.1c-.025,2.356,1.555,4.173,3.626,4.17a4.129,4.129,0,0,0,.115-8.2c-2.111-.069-3.716,1.662-3.742,4.033" transform="translate(-141.137 -90.764)" fill="#1a1818"/><path d="M318.207,279.638a10.747,10.747,0,1,1,10.469-10.726,10.611,10.611,0,0,1-10.469,10.726m-3.579-11.031a3.855,3.855,0,0,0,3.437,4.336,3.792,3.792,0,0,0,3.9-3.9,4.011,4.011,0,0,0-3.568-4.3,3.886,3.886,0,0,0-3.768,3.857" transform="translate(-131.876 -110.573)" fill="#1a1818"/><path d="M227.432,230.493c-.01-6.057,4.54-10.824,10.315-10.806a10.8,10.8,0,1,1-10.315,10.806m13.933-.013a3.956,3.956,0,0,0-3.672-4.179,4.066,4.066,0,0,0-3.665,4.225,3.866,3.866,0,0,0,3.608,3.992,3.744,3.744,0,0,0,3.73-4.038" transform="translate(-97.415 -94.097)" fill="#1a1818"/><path d="M273.344,222.824c-.058-5.871,4.7-10.888,10.348-10.916s10.424,4.946,10.418,10.844a10.764,10.764,0,0,1-10.24,10.814c-5.582.131-10.467-4.855-10.526-10.742m6.746-.185a3.894,3.894,0,0,0,3.6,4.21,4.131,4.131,0,0,0,.2-8.2,3.8,3.8,0,0,0-3.8,3.992" transform="translate(-117.079 -90.765)" fill="#1a1818"/><path d="M286.538,317.955c0-5.971,4.705-10.87,10.376-10.814a10.843,10.843,0,0,1-.022,21.657c-5.676.043-10.358-4.86-10.354-10.844m13.929.1c.036-2.375-1.5-4.157-3.6-4.169a3.96,3.96,0,0,0-3.75,4.108,4.047,4.047,0,0,0,3.578,4.09,3.818,3.818,0,0,0,3.77-4.029" transform="translate(-122.731 -131.556)" fill="#1a1818"/><path d="M258.92,268.964c-.026-6.1,4.487-10.816,10.329-10.8a10.749,10.749,0,1,1-10.329,10.8m13.927-.025a3.952,3.952,0,0,0-3.643-4.188,4.036,4.036,0,0,0-3.693,4.186,3.92,3.92,0,0,0,3.587,4.021,3.759,3.759,0,0,0,3.748-4.019" transform="translate(-110.902 -110.578)" fill="#1a1818"/><path d="M176.665,227.254c-1.385,0-2.771.046-4.152-.03-.384-.021-.747-.4-1.119-.618.363-.2.757-.615,1.084-.567,1.426.205,2.832.544,4.245.835-.019.126-.039.253-.059.38" transform="translate(-73.412 -96.816)" fill="#fff"/><path d="M309.37,52.664c-.294,3.053-3.228,3.218-5.315,4.357a3.369,3.369,0,0,1-4.325-.425,3.225,3.225,0,0,1,.81-5.238,29.671,29.671,0,0,1,4.489-1.975,3.354,3.354,0,0,1,4.34,3.28" transform="translate(-127.95 -21.078)" fill="#1a1818"/><path d="M320.3,64.212c-2.288.025-3.815-1.323-3.793-3.348a3.726,3.726,0,0,1,7.418.065c-.013,1.983-1.423,3.259-3.625,3.283" transform="translate(-135.566 -24.637)" fill="#1a1818"/></g></svg>