<svg xmlns="http://www.w3.org/2000/svg" xmlns:xlink="http://www.w3.org/1999/xlink" width="197.236" height="197.592" viewBox="0 0 197.236 197.592"><defs><clipPath id="a"><rect width="197.236" height="197.592" fill="none"/></clipPath></defs><g clip-path="url(#a)"><path d="M2.726,264.137C.661,263.08-.01,261.4,0,259.09c.072-16.013.036-32.026.038-48.039,0-3.513,1.256-4.813,4.695-4.815q18.2-.011,36.392.008a3.823,3.823,0,0,1,4.137,3.845c-.005,2.222-1.7,3.8-4.154,3.861-.513.013-1.027,0-1.54,0H7.869v12.662c4.036.793,7.477,2.924,10.98,5.1,5.981,3.712,12.088,3.366,17.853-.675a24.291,24.291,0,0,1,14.552-4.717A23.262,23.262,0,0,1,64.428,230.5c7.189,4.931,12.926,5,20.3.223,9.282-6.007,19.15-5.829,28.216.5a16.111,16.111,0,0,0,13.685,2.334v-19.6h-2.27q-24.261,0-48.522-.006c-3.329,0-5.368-2.748-4.068-5.463a3.9,3.9,0,0,1,3.9-2.266c5.455.042,10.911.014,16.367.014h34.723v-2.342q0-27.492,0-54.984a11.916,11.916,0,0,1,8.25-11.35c7.316-2.175,14.542,3.359,14.8,11.34.03.958,0,1.917,0,3.017h24.287c0-1.1-.015-2.108,0-3.118a11.572,11.572,0,0,1,22.722-3.2,5.955,5.955,0,0,0,.405.828V264.137ZM189.489,234.08c-2.576,1.491-4.776,2.735-6.948,4.026-8.837,5.251-17.673,5.251-26.278-.36-7.546-4.92-13.262-5.038-20.76.069a23.383,23.383,0,0,1-26.733-.032c-7.266-5.005-13.367-5.021-20.587-.054a23.654,23.654,0,0,1-26.922.026c-7.271-4.972-13.283-4.95-20.595.02a23.3,23.3,0,0,1-15.672,4.043,24.592,24.592,0,0,1-11.9-4.494,59.035,59.035,0,0,0-5.231-2.886v21.8H189.489Zm-.039-7.792c.022-.439.069-.945.069-1.451q0-37.5-.019-75.006a9.012,9.012,0,0,0-.127-1.725,3.7,3.7,0,0,0-3.762-3.184,3.943,3.943,0,0,0-3.765,3.478,14.308,14.308,0,0,0-.031,1.734q0,38.371.005,76.741v2.089l7.63-2.676m-54.966,2.641a49.567,49.567,0,0,1,5.63-1.923c1.557-.337,1.98-.963,1.976-2.544q-.084-37.015-.049-74.032a12.832,12.832,0,0,0-.234-2.483,3.612,3.612,0,0,0-6.989-.485,9.51,9.51,0,0,0-.339,2.839q-.017,38.27,0,76.538v2.09m39.491,4.642V214.11H149.94v12.459a25.62,25.62,0,0,1,10.384,4.551,15.833,15.833,0,0,0,13.652,2.452m-24.086-42.686H174V175.1H149.889Zm.01-23.809h24.082v-7.062H149.9ZM174.008,199H149.977v7.133h24.031Z" transform="translate(0 -66.545)" fill="#1a1818"/><path d="M152.565,0c3.219,2.6,3.328,4.628.38,7.583q-21.3,21.35-42.611,42.689c-.5.5-1.067.926-1.724,1.49.614.66,1.061,1.168,1.536,1.646q8.163,8.188,16.331,16.372c9.281,9.349,9.266,22.188-.042,31.547q-11.822,11.887-23.687,23.732c-9.182,9.156-22.228,9.16-31.367.011-5.9-5.9-11.754-11.847-18.022-18.169a30.129,30.129,0,0,1-2.33,2.737,3.852,3.852,0,0,1-5.414-5.482c.38-.435.806-.829,1.214-1.238Q96.991,52.656,147.161,2.4c.851-.852,1.8-1.6,2.708-2.4Zm-66.9,102.92h18.656V84.957H85.661Zm-.4-25.859h19.187c0-5.959.034-11.789-.049-17.618-.009-.65-.688-1.291-1.158-2.112-5.9,5.928-11.525,11.538-17.074,17.223-.527.54-.577,1.548-.906,2.506m-7.571,7.405a16.366,16.366,0,0,0-2.926,1.5c-1.184.971-2.2,2.15-3.287,3.239-4.121,4.123-8.242,8.245-12.6,12.6.81.492,1.416,1.176,2.031,1.185,5.557.083,11.116.049,16.779.049Zm7.917,39.6a12.923,12.923,0,0,0,10.5-3.439c2.627-2.441,5.144-5,7.629-7.591a7.053,7.053,0,0,0,.9-2.18H85.611Zm26.724-21.181c4.361.3,13.81-12.656,13.081-17.9H112.335Zm-.02-25.8h9.774l-9.774-9.542ZM69.148,110.864l8.553,8.568v-8.568Z" transform="translate(-21.578)" fill="#1a1818"/><path d="M14.242,194.927a18.392,18.392,0,0,1,5.19-12.665c1.732-1.821,3.964-2,5.628-.511,1.636,1.46,1.686,3.764.123,5.676-4.3,5.257-4.3,10.39,0,15.619,1.563,1.9,1.51,4.214-.131,5.672S21.109,210,19.416,208.2a18.719,18.719,0,0,1-5.174-13.275" transform="translate(-6.914 -87.744)" fill="#1a1818"/><path d="M113.766,275.365a3.932,3.932,0,0,1-4,3.829,3.838,3.838,0,0,1-3.715-3.887,3.774,3.774,0,0,1,3.967-3.8,3.855,3.855,0,0,1,3.752,3.854" transform="translate(-51.479 -131.801)" fill="#1a1818"/></g></svg>