<svg xmlns="http://www.w3.org/2000/svg" xmlns:xlink="http://www.w3.org/1999/xlink" width="181.915" height="181.965" viewBox="0 0 181.915 181.965"><defs><clipPath id="a"><rect width="181.915" height="181.965" fill="none"/></clipPath></defs><g clip-path="url(#a)"><path d="M2.112,181.965c-1.559-.84-2.481-2.037-1.971-3.89.532-1.934,2.068-2.183,3.784-2.173,4.665.029,9.33.01,14.217.01v-2.389q0-84.3.006-168.608a16.68,16.68,0,0,1,.142-2.474A2.67,2.67,0,0,1,20.792.07,14.085,14.085,0,0,1,22.741,0q39.348,0,78.695,0c3.942,0,4.7.742,4.7,4.634q0,20.787,0,41.575v2.324h2.256q20.7,0,41.39.006a17.553,17.553,0,0,1,2.477.138,2.512,2.512,0,0,1,2.264,2.364,17.758,17.758,0,0,1,.07,2.306q0,49.125-.033,98.251a3.046,3.046,0,0,0,1.742,3.04c7.017,4.241,10.395,10.582,10.392,18.755,0,.761,0,1.522,0,2.519,3.8,0,7.57.053,11.335-.023a3.7,3.7,0,0,1,3.886,2.167v3.907q-89.9,0-179.8,0M24.351,6.107v169.73c.429.031.726.027,1.014.077,1.55.271,2.268-.244,2.58-1.925a35.347,35.347,0,0,1,1.811-4.975,8.211,8.211,0,0,0,.512-2.334c.08-2.01-.066-4.033.085-6.034a2.869,2.869,0,0,1,3.653-2.829c1.891.337,2.231,1.849,2.407,3.1,2.95-.945,5.85-1.841,8.717-2.833.368-.127.664-.719.822-1.157,1.674-4.643,3.342-9.292,2.593-14.375a1.927,1.927,0,0,1,.066-.527,2.609,2.609,0,0,1,2.772-2.438,2.658,2.658,0,0,1,3.015,2.153c.115.485.243.966.375,1.49,9.566-5.742,18.433-4.66,27.056,2.459v-2.341q0-44.769,0-89.537c0-.592-.022-1.186.009-1.776.13-2.477,1.033-3.416,3.495-3.487,2.13-.062,4.263-.017,6.394-.018,2.707,0,5.413,0,8.2,0V6.107ZM148.435,151.38V54.751H88.067V150.7a2.241,2.241,0,0,0,.507-.066c6.807-3.217,13.281-2.6,19.495,1.6a2.616,2.616,0,0,0,1.925.158,17.376,17.376,0,0,1,16.318,3.2c1.234.978,2.343,2.113,3.672,3.323.548-.629,1.089-1.184,1.553-1.8a9.261,9.261,0,0,0,1.879-2.76c.631-2.366,2.508-3.354,4.7-2.215a2.711,2.711,0,0,0,1.426.393c2.913-.335,5.817-.748,8.894-1.158M102.8,156.456c-4.478-3.018-10.436-2.058-14.635,2.166-1.212,1.22-2.23,2.994-4.4,2.32-2.058-.638-2.228-2.549-2.65-4.268a14.853,14.853,0,0,0-18.018-10.636c-6.881,1.844-10.8,6.671-11.543,14.211-.259,2.627-1.089,3.172-3.656,3.623a23.782,23.782,0,0,0-7.183,2.2,13.937,13.937,0,0,0-6.977,9.719H98.007c-2.206-7.418-.486-13.772,4.791-19.339m57.642,19.456c.747-6.267-.816-11.446-5.807-15.122s-10.476-4.072-16.085-1.393a13.266,13.266,0,0,0-6.169,6.16,3.369,3.369,0,0,1-3.22,2.1,3.067,3.067,0,0,1-2.686-2.267,12.635,12.635,0,0,0-.631-1.271c-4.415-7.955-15.184-7.441-19.808-1.979-2.944,3.475-3.33,7.561-1.744,11.862a2.539,2.539,0,0,0,2.815,1.948c17.053-.065,34.106-.04,51.16-.04h2.175" transform="translate(0 -0.001)"/><path d="M196.752,33.338c0,1.061.071,2.129-.018,3.183a2.8,2.8,0,0,1-3,2.819,2.759,2.759,0,0,1-2.968-2.838c-.089-2.119-.092-4.249,0-6.368a2.854,2.854,0,0,1,2.986-2.867,2.91,2.91,0,0,1,2.984,2.887c.084,1.055.015,2.122.014,3.183" transform="translate(-105.829 -15.132)"/><path d="M149.981,196.861c0-1.12-.066-2.245.015-3.359a2.667,2.667,0,0,1,2.644-2.6,2.608,2.608,0,0,1,3.119,2.194,48.1,48.1,0,0,1,.018,7.567c-.127,1.66-1.466,2.328-3.072,2.261a2.7,2.7,0,0,1-2.718-2.708c-.085-1.114-.016-2.239-.016-3.36h.011" transform="translate(-83.212 -105.931)"/><path d="M74.138,33.342c0,1.12.078,2.246-.019,3.357a2.641,2.641,0,0,1-2.753,2.64c-1.618.047-2.9-.628-3.019-2.3a52.432,52.432,0,0,1,0-7.394,2.621,2.621,0,0,1,3.021-2.333,2.7,2.7,0,0,1,2.756,2.678c.063,1.116.012,2.239.011,3.358" transform="translate(-37.858 -15.144)"/><path d="M149.976,74.136c0-1.061-.053-2.125.012-3.182a2.7,2.7,0,0,1,2.73-2.694,2.573,2.573,0,0,1,3.065,2.259,47.524,47.524,0,0,1-.018,7.564c-.141,1.688-1.53,2.261-3.124,2.148A2.576,2.576,0,0,1,150,77.671c-.092-1.171-.018-2.356-.018-3.535h-.009" transform="translate(-83.219 -37.871)"/><path d="M149.986,115.143c0-1.12-.075-2.246.018-3.358a2.578,2.578,0,0,1,2.649-2.548c1.6-.109,2.978.474,3.116,2.161a47.732,47.732,0,0,1,.011,7.564,2.572,2.572,0,0,1-3.074,2.246,2.693,2.693,0,0,1-2.719-2.7c-.065-1.116-.012-2.239-.012-3.359h.012" transform="translate(-83.218 -60.615)"/><path d="M74.136,156.264c0,1.061.053,2.124-.012,3.181a2.7,2.7,0,0,1-2.771,2.661,2.622,2.622,0,0,1-3.008-2.351,52.03,52.03,0,0,1,0-7.394c.122-1.677,1.417-2.358,3.032-2.282a2.556,2.556,0,0,1,2.713,2.476c.108,1.227.021,2.472.021,3.709h.02" transform="translate(-37.857 -83.284)"/><path d="M74.146,237.857a34.467,34.467,0,0,1-.024,3.531,2.561,2.561,0,0,1-2.764,2.419c-1.536.053-2.829-.592-2.943-2.172a53.694,53.694,0,0,1,.016-7.741c.111-1.52,1.445-2.128,2.843-2.1a2.582,2.582,0,0,1,2.835,2.359,35.374,35.374,0,0,1,.026,3.707h.01" transform="translate(-37.894 -128.633)"/><path d="M156.032,278.845a29.979,29.979,0,0,1-.216,3.486,2.961,2.961,0,0,1-5.851-.382c-.084-2.178-.072-4.363,0-6.542a2.663,2.663,0,0,1,2.709-2.709,2.726,2.726,0,0,1,3.151,2.41,33.959,33.959,0,0,1,.207,3.736" transform="translate(-83.191 -151.325)"/><path d="M108.866,156.026c.062-1.217.035-2.465.211-3.684a2.543,2.543,0,0,1,2.715-2.271c1.529-.054,2.843.567,2.962,2.148a53.751,53.751,0,0,1,0,7.745c-.106,1.523-1.432,2.14-2.829,2.125a2.594,2.594,0,0,1-2.856-2.337c-.153-1.223-.139-2.468-.2-3.726" transform="translate(-60.416 -83.281)"/><path d="M109.035,196.938a33.81,33.81,0,0,1,.024-3.53,2.669,2.669,0,0,1,2.887-2.5c1.511.045,2.759.7,2.856,2.314a58.037,58.037,0,0,1,0,7.4,2.6,2.6,0,0,1-3.012,2.328,2.627,2.627,0,0,1-2.735-2.479c-.12-1.17-.117-2.353-.169-3.529l.152,0" transform="translate(-60.425 -105.945)"/><path d="M108.882,237.611c.051-1.118.029-2.245.171-3.351a2.678,2.678,0,0,1,2.9-2.5c1.48.073,2.762.7,2.853,2.334a58.875,58.875,0,0,1-.009,7.4c-.11,1.578-1.388,2.395-3.018,2.3a2.57,2.57,0,0,1-2.721-2.469c-.109-1.227-.022-2.471-.022-3.707l-.154,0" transform="translate(-60.425 -128.611)"/><path d="M149.942,237.82c0-1.061-.054-2.126.012-3.184a2.809,2.809,0,0,1,2.744-2.9,2.733,2.733,0,0,1,3.118,2.467,45.843,45.843,0,0,1-.024,7.224c-.145,1.693-1.461,2.495-3.172,2.337A2.668,2.668,0,0,1,149.962,241c-.064-1.057-.012-2.122-.012-3.183h-.008" transform="translate(-83.2 -128.594)"/><path d="M196.741,74.388a31.556,31.556,0,0,1-.02,3.18,2.764,2.764,0,0,1-3.118,2.667,2.705,2.705,0,0,1-2.83-2.776c-.092-2.118-.092-4.246,0-6.364a2.827,2.827,0,0,1,2.947-2.889,2.857,2.857,0,0,1,3.018,2.825c.093,1.112.017,2.238.017,3.358Z" transform="translate(-105.832 -37.851)"/><path d="M156.009,156.066a32.449,32.449,0,0,1-.181,3.527,2.845,2.845,0,0,1-3.108,2.513,2.771,2.771,0,0,1-2.777-2.864c-.082-2.12-.084-4.247,0-6.367a2.963,2.963,0,0,1,5.884-.335,31.774,31.774,0,0,1,.181,3.527" transform="translate(-83.177 -83.274)"/><path d="M149.962,33.325c0-1.12-.074-2.247.018-3.359a2.767,2.767,0,0,1,2.778-2.672,2.683,2.683,0,0,1,3.024,2.36,48.719,48.719,0,0,1-.005,7.4c-.129,1.656-1.415,2.349-3.042,2.288a2.738,2.738,0,0,1-2.773-2.651,4.483,4.483,0,0,1-.04-.529c0-.943,0-1.887,0-2.831h.044" transform="translate(-83.197 -15.143)"/><path d="M109.12,33.2c0-1.06-.084-2.129.019-3.179a2.723,2.723,0,0,1,2.9-2.7c1.569.064,2.83.769,2.911,2.483a61.825,61.825,0,0,1-.035,7.226c-.119,1.687-1.39,2.376-3,2.32a2.546,2.546,0,0,1-2.741-2.441c-.115-1.226-.023-2.47-.023-3.707h-.033" transform="translate(-60.539 -15.162)"/><path d="M108.876,115.125c.055-1.178.041-2.363.182-3.529a2.557,2.557,0,0,1,2.793-2.378c1.519-.034,2.814.579,2.926,2.187a57.606,57.606,0,0,1,.007,7.571c-.1,1.629-1.429,2.252-2.908,2.227a2.57,2.57,0,0,1-2.812-2.371c-.14-1.226-.13-2.468-.187-3.705" transform="translate(-60.421 -60.611)"/><path d="M109.121,278.722c0-1.119-.086-2.246.02-3.355a2.689,2.689,0,0,1,2.909-2.677c1.579.055,2.826.755,2.9,2.47a63.192,63.192,0,0,1-.034,7.224c-.117,1.7-1.415,2.353-3.012,2.3a2.533,2.533,0,0,1-2.738-2.434c-.107-1.167-.021-2.352-.021-3.529h-.03" transform="translate(-60.539 -151.33)"/><path d="M115.185,74.5c-.071,1.1-.071,2.282-.24,3.442-.247,1.7-1.428,2.359-3.027,2.309a2.487,2.487,0,0,1-2.736-2.425,67.3,67.3,0,0,1,0-7.059,2.593,2.593,0,0,1,2.862-2.51c1.578.053,2.744.748,2.929,2.462.133,1.227.144,2.466.214,3.782" transform="translate(-60.539 -37.879)"/><path d="M74.137,197.038c0,1.061.073,2.128-.016,3.181a2.71,2.71,0,0,1-2.866,2.734c-1.612-.008-2.844-.744-2.946-2.422a58.467,58.467,0,0,1,.006-7.223c.107-1.689,1.371-2.39,2.971-2.393a2.676,2.676,0,0,1,2.813,2.59c.105,1.169.02,2.355.02,3.533h.018" transform="translate(-37.848 -105.95)"/><path d="M74.146,115.329c0,1.119.09,2.247-.021,3.354a2.649,2.649,0,0,1-2.858,2.532c-1.49-.036-2.792-.642-2.889-2.267a57.162,57.162,0,0,1,.02-7.567c.117-1.605,1.425-2.206,2.944-2.162a2.539,2.539,0,0,1,2.768,2.4c.121,1.225.024,2.471.024,3.707h.012" transform="translate(-37.883 -60.611)"/><path d="M74.116,278.819c0,1.061.055,2.124-.012,3.18a2.617,2.617,0,0,1-2.716,2.671c-1.733.118-2.969-.688-3.1-2.412a48.982,48.982,0,0,1,.017-7.219,2.611,2.611,0,0,1,2.984-2.374,2.688,2.688,0,0,1,2.79,2.621c.1,1.168.02,2.354.02,3.532h.012" transform="translate(-37.83 -151.316)"/><path d="M74.137,319.772c0,1.119.071,2.243-.017,3.355a2.619,2.619,0,0,1-2.7,2.514,2.569,2.569,0,0,1-3.048-2.268,52.408,52.408,0,0,1,.016-7.565c.12-1.605,1.433-2.2,2.951-2.154a2.539,2.539,0,0,1,2.761,2.41c.118,1.225.024,2.471.024,3.707h.009" transform="translate(-37.874 -174.063)"/><path d="M74.114,74.4c0,1.061.056,2.124-.013,3.18a2.616,2.616,0,0,1-2.725,2.662c-1.729.113-2.963-.7-3.087-2.423a48.919,48.919,0,0,1,.022-7.219A2.607,2.607,0,0,1,71.3,68.232a2.757,2.757,0,0,1,2.8,2.629,4.143,4.143,0,0,1,.053.528c0,1,0,2,0,3.007h-.045" transform="translate(-37.829 -37.863)"/><path d="M299.6,224.033c.057-1.117.072-2.238.179-3.349a2.7,2.7,0,0,1,2.865-2.556,2.62,2.62,0,0,1,2.92,2.455,60.61,60.61,0,0,1-.01,7.227c-.1,1.594-1.26,2.314-2.807,2.356a2.7,2.7,0,0,1-2.958-2.425,4.006,4.006,0,0,1-.108-.7c-.012-1-.005-2-.005-3.006l-.076,0" transform="translate(-166.266 -121.048)"/><path d="M299.559,183.282c.081-1.28.063-2.529.261-3.741a2.588,2.588,0,0,1,2.926-2.236c1.457.023,2.655.709,2.754,2.206a58.072,58.072,0,0,1,.005,7.576c-.1,1.611-1.411,2.267-2.906,2.243a2.554,2.554,0,0,1-2.776-2.215c-.191-1.275-.185-2.58-.264-3.833" transform="translate(-166.242 -98.396)"/><path d="M305.952,142.477c-.067,1.25-.084,2.371-.2,3.482a2.7,2.7,0,0,1-2.89,2.527A2.617,2.617,0,0,1,299.974,146a58.918,58.918,0,0,1,.02-7.229c.1-1.595,1.284-2.3,2.833-2.312a2.559,2.559,0,0,1,2.883,2.272c.186,1.276.174,2.582.242,3.747" transform="translate(-166.416 -75.728)"/><path d="M306,265.165a37.111,37.111,0,0,1-.266,3.722c-.268,1.595-1.424,2.219-2.952,2.185-1.463-.032-2.64-.708-2.731-2.215a62.81,62.81,0,0,1,0-7.576c.093-1.536,1.357-2.185,2.758-2.206a2.582,2.582,0,0,1,2.927,2.238c.186,1.276.181,2.58.26,3.851" transform="translate(-166.45 -143.776)"/><path d="M305.953,306.021c-.066,1.255-.08,2.376-.2,3.486a2.642,2.642,0,0,1-2.881,2.5,2.545,2.545,0,0,1-2.9-2.449,59.832,59.832,0,0,1,.014-7.225c.1-1.613,1.306-2.3,2.829-2.314a2.554,2.554,0,0,1,2.892,2.258c.18,1.277.173,2.58.242,3.74" transform="translate(-166.417 -166.5)"/><path d="M223.987,224.01c0,1.121.063,2.246-.015,3.361a2.747,2.747,0,0,1-2.836,2.783,2.675,2.675,0,0,1-3.064-2.517,52.188,52.188,0,0,1,.015-7.064,2.743,2.743,0,0,1,2.956-2.477,2.835,2.835,0,0,1,2.92,2.73c.084,1.055.016,2.122.016,3.184h.007" transform="translate(-120.958 -121.034)"/><path d="M223.988,183.283c0,1.062.056,2.127-.012,3.185a2.822,2.822,0,0,1-2.786,2.865,2.756,2.756,0,0,1-3.11-2.488,51.05,51.05,0,0,1,0-7.064,2.7,2.7,0,0,1,3.085-2.5,2.771,2.771,0,0,1,2.813,2.816c.072,1.057.013,2.123.014,3.185" transform="translate(-120.956 -98.382)"/><path d="M224.009,265.083c0,1.12.076,2.247-.02,3.359a2.691,2.691,0,0,1-2.807,2.6c-1.638.053-2.906-.673-3.031-2.313a48.485,48.485,0,0,1,.016-7.4,2.63,2.63,0,0,1,3.069-2.289,2.735,2.735,0,0,1,2.76,2.684c.079,1.114.015,2.239.014,3.359" transform="translate(-120.99 -143.746)"/><path d="M264.9,183.335c0,1.12.077,2.246-.018,3.358a2.741,2.741,0,0,1-2.777,2.654,2.657,2.657,0,0,1-3.006-2.365,50.671,50.671,0,0,1,.012-7.394c.126-1.672,1.433-2.342,3.043-2.288a2.727,2.727,0,0,1,2.752,2.674,4.689,4.689,0,0,1,.044.529c0,.944,0,1.887,0,2.831H264.9" transform="translate(-143.72 -98.393)"/><path d="M264.875,142.421c0,1.061.061,2.127-.012,3.183a2.79,2.79,0,0,1-2.76,2.882,2.73,2.73,0,0,1-3.085-2.5,47.2,47.2,0,0,1-.01-7.051c.131-1.75,1.332-2.557,3.053-2.492a2.705,2.705,0,0,1,2.8,2.794c.076,1.056.014,2.122.016,3.183" transform="translate(-143.667 -75.719)"/><path d="M223.964,142.419c0,1.062.055,2.127-.012,3.185A2.867,2.867,0,0,1,221,148.5a2.812,2.812,0,0,1-2.979-2.676,54.2,54.2,0,0,1-.009-6.717,2.717,2.717,0,0,1,3.116-2.662,2.775,2.775,0,0,1,2.837,2.966c.053,1,.009,2,.009,3.008h-.008" transform="translate(-120.931 -75.719)"/><path d="M264.932,224.158c0,1.12.073,2.246-.017,3.358a2.654,2.654,0,0,1-2.734,2.669c-1.616.06-2.925-.607-3.043-2.278a51.655,51.655,0,0,1,.026-7.566c.123-1.6,1.478-2.237,2.964-2.171a2.6,2.6,0,0,1,2.758,2.454c.105,1.169.02,2.355.02,3.534h.027" transform="translate(-143.74 -121.072)"/><path d="M264.915,265.106c0,1.061.046,2.124-.011,3.182a2.631,2.631,0,0,1-2.65,2.743c-1.755.15-3.029-.617-3.161-2.324a47.869,47.869,0,0,1,.022-7.391,2.6,2.6,0,0,1,3.057-2.271,2.648,2.648,0,0,1,2.7,2.527c.089,1.172.017,2.355.017,3.534Z" transform="translate(-143.712 -143.748)"/><path d="M223.975,305.961c0,1.12.07,2.245-.017,3.358a2.73,2.73,0,0,1-2.756,2.673,2.664,2.664,0,0,1-3.119-2.441,49.818,49.818,0,0,1-.014-7.058,2.649,2.649,0,0,1,3.073-2.5,2.745,2.745,0,0,1,2.828,2.782c.072,1.056.013,2.121.013,3.182h-.008" transform="translate(-120.953 -166.483)"/><path d="M264.885,306.085c0,1.061.047,2.124-.011,3.181a2.65,2.65,0,0,1-2.686,2.716c-1.689.154-3-.679-3.13-2.375a46.409,46.409,0,0,1,0-7.217c.133-1.7,1.42-2.515,3.132-2.37a2.634,2.634,0,0,1,2.686,2.709c.061,1.116.012,2.238.011,3.358" transform="translate(-143.687 -166.488)"/></g></svg>