<svg xmlns="http://www.w3.org/2000/svg" xmlns:xlink="http://www.w3.org/1999/xlink" width="176" height="176" viewBox="0 0 176 176"><defs><clipPath id="a"><rect width="176" height="176" transform="translate(-0.269 -0.269)" fill="none"/></clipPath></defs><g transform="translate(0.22 0.22)"><g transform="translate(0.049 0.049)" clip-path="url(#a)"><path d="M0,173.488V87.43a3.458,3.458,0,0,1,3.741-2.055c1.936.107,3.884.025,5.827.025H11.83a75.787,75.787,0,0,1-3.7-7.63c-1.7-4.744-1.744-9.751-1.642-14.731.032-1.547,1.037-2.375,2.745-2.4,2.571-.038,5.142-.012,7.714-.013h6.874V56.113a47.662,47.662,0,0,1-5.832-.6C11.656,54.073,6.817,48.522,6.779,42.867c-.019-2.921.736-3.943,3.569-4.825a13.955,13.955,0,0,1,11.84,1.529c.5.3,1,.612,1.586.976.358-2.632.082-4.535-1.833-6.51-5.555-5.727-4.738-15.53,1.374-20.689,2.087-1.761,3.6-1.826,5.866-.251,6.835,4.746,7.742,15.644,1.524,21.513-1.962,1.851-1.641,3.662-1.533,5.963.667-.421,1.126-.736,1.608-1.011,3.909-2.226,8-3.027,12.316-1.358,2.664,1.029,3.286,2.165,3,5.026A14.487,14.487,0,0,1,31.338,55.969c-.719-.016-1.438,0-2.166,0v4.658h1.956c3.771,0,7.543-.018,11.314.009,2.124.015,3.042.911,3.027,3.043-.014,2.112-.08,4.231-.267,6.334-.4,4.53-1.312,8.928-3.883,12.805-.546.824-1.163,1.6-1.8,2.477h57.9V76.128H95.4q-15.685,0-31.37,0c-5.158,0-7.8-2.638-7.8-7.794q-.005-18.856,0-37.713a13.555,13.555,0,0,1,.021-1.371,2.406,2.406,0,0,1,2.66-2.308C60.535,27,61.365,28,61.367,29.983q.016,12.342.005,24.685V56.5H131.05c1.03-3.894,1.79-7.717,3.059-11.362,2.523-7.249,6.717-13.3,13.393-17.44,3.15-1.955,5.337-.72,5.253,2.948-.182,7.938-.056,15.884-.056,23.826v2.023h7.747c.033-.378.078-.654.078-.93q.006-24.084,0-48.169c0-1.875-.463-2.246-2.588-2.247q-46.969,0-93.938,0c-2.187,0-2.614.424-2.622,2.582-.01,2.742.011,5.485-.015,8.228a2.332,2.332,0,0,1-2.275,2.522c-1.427.146-2.7-.51-2.746-1.958A92.5,92.5,0,0,1,56.458,5.4c.242-2.818,2.5-4.3,4.914-5.4H160.46c3.185,1.345,5.228,3.452,5.223,7.187-.032,20.6,0,41.206-.024,61.809,0,4.359-2.839,7.108-7.217,7.13-1.86.01-3.72,0-5.6,0V85.4c6.418,0,12.693.046,18.965-.03,1.733-.021,2.987.469,3.735,2.06v44.915c-.923,1.158-1.93,2.1-3.592,1.485s-1.611-2-1.609-3.4q.019-10.533.005-21.067v-1.888H152.82c0,.79.021,1.467,0,2.143-.19,5.3-.051,10.635-.665,15.883-.917,7.842-5.477,12.361-13.291,13.013-6.239.521-12.543.261-18.818.345-.664.009-1.328,0-1.985,0v31.394h2.16q14.559,0,29.117,0c.627,0,1.393-.18,1.85.11.784.5,1.8,1.226,1.933,1.995.141.8-.572,1.8-1.061,2.629-.185.313-.787.378-1.2.556H79.887c-.787-.657-1.943-1.163-2.285-2-.77-1.883.611-3.282,3.035-3.285q15-.02,29.994-.006h2.085V148.609c-.657,0-1.27,0-1.883,0-2.742-.008-5.484.01-8.226-.035a2.323,2.323,0,0,1-2.412-2.387,2.351,2.351,0,0,1,2.315-2.641c2.165-.117,4.339-.065,6.509-.078,1.225-.007,2.45,0,3.654,0v-4.607H110.7q-15,0-29.995,0c-2.955,0-3.8-.833-3.684-3.791.306-8.044,4.137-13.855,11.309-17.417a33.071,33.071,0,0,1,14.8-3.088c14.168-.061,28.337-.029,42.506-.033h1.941v-7.073H56.8v2.272q0,30.594,0,61.189c0,.629.028,1.261-.032,1.884a2.406,2.406,0,0,1-2.7,2.443,2.283,2.283,0,0,1-2.376-2.559c-.053-3.256-.023-6.513-.027-9.769,0-.665,0-1.33,0-2H5.2c0,.712,0,1.325,0,1.939,0,3.256.027,6.513-.018,9.769-.026,1.867-1.275,3-2.986,2.532-.821-.224-1.467-1.091-2.192-1.667m5.324-82.96v11.538h138c-2.248-3.233-4.68-6.523-6.857-9.974A2.812,2.812,0,0,0,133.7,90.5q-63.17.051-126.342.028H5.324m46.238,43.656H5.323v21.4H51.561Zm-46.3-5.366H51.547V107.49H5.263Zm142.688-9c-.816-.078-1.2-.146-1.585-.146q-21.408,0-42.817.023a39.134,39.134,0,0,0-4.95.332c-4.3.559-8.393,1.714-11.734,4.681a13.569,13.569,0,0,0-4.6,8.93c.585.029,1.035.07,1.485.07q25.862,0,51.723-.014a22.557,22.557,0,0,0,3.912-.364c3.17-.566,5.792-2.068,6.785-5.285.812-2.628,1.186-5.392,1.782-8.229M61.588,61.828c-.086.181-.172.279-.173.378-.02,1.942-.038,3.883-.041,5.825,0,2.662.3,2.968,2.918,2.968q32.389,0,64.778,0h1.746V61.828ZM147.48,34.049a28.224,28.224,0,0,0-8.241,12.036c-3.837,10.348-4.074,20.99-2.219,31.73,1.163,6.737,3.623,12.955,8.239,18.153.616.694,1.325,1.3,2.221,2.178ZM40.228,65.89H11.221c.7,3.769,1.121,7.4,2.084,10.874,1.378,4.982,4.956,7.657,10.073,8.167a25.339,25.339,0,0,0,4.958.009c3.766-.369,6.94-1.895,8.9-5.3,2.443-4.237,2.861-8.917,2.99-13.75m112.565,36.223h17.433V90.624H152.794ZM102.8,85.25h16.36V76.215H102.8Zm21.711-9.121v9.145h8.838c-.6-2.893-1.141-5.671-1.785-8.427-.072-.307-.7-.672-1.089-.686-1.926-.07-3.856-.032-5.964-.032m28.3-5.143c2.072,0,4.063.122,6.023-.073a2.29,2.29,0,0,0,1.595-1.523c.176-2.475.076-4.971.076-7.551h-7.694ZM26.557,31.487c4.256-3.617,4.251-10.543.047-13.821-4.257,3.2-4.326,9.991-.047,13.821M29.165,50.2c5.205,2.5,12.22-3.2,11.6-7.2-4.757-1.816-10.206,1.505-11.6,7.2M12.076,43.055c.553,4.838,6.15,8.834,10.756,7.617a1.419,1.419,0,0,0,.765-1.138c-.61-4.69-7.058-8.287-11.521-6.479" transform="translate(-0.042 -0.042)"/><path d="M377.813,343.7c-.71,1.1-1.547,1.97-3.029,1.739-1.595-.249-2.176-1.25-2.171-2.77.016-4.512,0-9.024,0-13.535,0-4,.027-8-.014-11.993-.016-1.527.138-2.931,1.838-3.451,1.72-.527,2.631.578,3.371,1.9Z" transform="translate(-202.309 -170.258)"/><path d="M47.794,316.412c-3.082,0-6.164.014-9.246-.005-1.916-.012-2.937-.93-2.928-2.565s1.035-2.557,2.958-2.563q9.246-.031,18.491,0c1.982.006,3.092,1.026,3.028,2.678-.062,1.581-1.117,2.445-3.057,2.454-3.082.013-6.164,0-9.246,0" transform="translate(-19.378 -169.011)"/><path d="M47.761,257.96c-3.082,0-6.163.014-9.244-.005-1.9-.012-2.923-.948-2.892-2.588.027-1.565,1.025-2.513,2.822-2.521q9.416-.038,18.831,0c1.774.007,2.8.989,2.826,2.533.025,1.593-1.051,2.565-2.926,2.576-3.139.019-6.278.005-9.416.005" transform="translate(-19.38 -137.288)"/></g></g></svg>