<svg xmlns="http://www.w3.org/2000/svg" xmlns:xlink="http://www.w3.org/1999/xlink" width="214.333" height="197.952" viewBox="0 0 214.333 197.952"><defs><clipPath id="a"><rect width="214.333" height="197.952" fill="none"/></clipPath></defs><g clip-path="url(#a)"><path d="M25.743,87.193c0-4.346,0-8.655,0-12.963C25.755,66.641,30.378,61.964,38,61.944c13.573-.035,27.146-.08,40.718.057a4.1,4.1,0,0,0,4.229-2.737q5.542-11.333,11.162-22.628c3.221-6.515,7.815-8.106,14.283-4.956,2.468,1.2,4.932,2.408,7.518,3.671l11.828-23.92c.66-1.334,1.276-2.69,1.987-4A13.907,13.907,0,0,1,154.7,19.651c-4.008,8.558-8.306,16.98-12.476,25.462-.391.8-.757,1.6-1.229,2.6,2.518,1.259,4.914,2.568,7.4,3.675,4.455,1.982,6.692,5.279,6.353,10.544h2.4c6.264,0,12.529-.014,18.793,0,8.054.024,12.608,4.592,12.614,12.623,0,4.168,0,8.335,0,12.629,1.863.17,3.624.241,5.356.506,10.383,1.588,18.635,9.593,20.116,19.455,1.637,10.9-3.56,21.025-13.342,25.644a2.9,2.9,0,0,0-2,3.135c.1,10.291-.061,20.586.15,30.873.136,6.594-4.254,12.36-11.93,11.92-2.969-.17-5.956-.028-9.15-.028v14.257h6.916c6.861,0,13.722-.013,20.583.009,2.09.007,3.373,1.074,2.929,2.675a4.468,4.468,0,0,1-2.1,2.145c-.56.327-1.456.086-2.2.086H10.365c-.522,0-1.044,0-1.566,0-1.673.008-2.783-.708-2.753-2.48s1.173-2.435,2.826-2.435q11.409.005,22.82,0H36.57V178.7c-3.22,0-6.332.017-9.444,0-7.285-.048-11.512-4.25-11.535-11.545q-.049-15.661.02-31.322a2.753,2.753,0,0,0-1.876-3c-9.783-4.483-15-14.494-13.475-25.549,1.349-9.8,9.672-17.951,20.014-19.544,1.687-.26,3.4-.339,5.468-.537m81.429,86.528c26.168,0,52.338-.1,78.506.071,6.6.044,8.193-2.646,8.086-8.025-.212-10.657-.106-21.322-.127-31.983-.007-3.472.121-3.648,3.37-4.818A18.85,18.85,0,0,0,185.389,93.13c-8.061,2.384-13.74,10.171-13.793,19.122-.062,10.437-.012,20.876-.017,31.313,0,5.469-2.932,8.487-8.376,8.489q-56.029.023-112.057,0c-5.449,0-8.409-3.021-8.413-8.466-.007-10.512.069-21.025-.025-31.536-.1-10.917-8.811-19.85-19.046-19.707A19.047,19.047,0,0,0,5.2,107.881,18.727,18.727,0,0,0,17.51,128.964c2.38.827,3.23,2.1,3.209,4.571-.094,11.108-.047,22.218-.038,33.326,0,5.026,1.848,6.86,6.865,6.86q39.812,0,79.625,0m59.5-39.9c0-6.967-.011-13.742,0-20.517.023-11.446,4.6-19.967,15.61-24.422a2.382,2.382,0,0,0,1.264-1.708c.1-4.621.166-9.249.006-13.868-.134-3.877-2.6-6.2-6.461-6.233q-11.52-.1-23.043.027a2.724,2.724,0,0,0-2.031,1.189q-5.185,10.262-10.156,20.632a15.08,15.08,0,0,0-1.2,10.663c.942,3.435,2.093,6.815,3.241,10.189.645,1.9.85,3.67-.8,5.132-1.666,1.476-3.393.985-5.181.1Q101.114,96.788,64.268,78.628c-1.737-.855-3.114-1.955-3.037-3.992.087-2.254,1.641-3.285,3.686-3.909,3.087-.942,6.119-2.064,9.175-3.109a1.288,1.288,0,0,0-1.052-.564c-11.932-.006-23.864-.039-35.8.017-4.059.019-6.454,2.486-6.539,6.629-.085,4.174.038,8.353-.053,12.528a2.589,2.589,0,0,0,1.931,2.924c7.95,3.245,13.181,9.1,14.517,17.593.826,5.25.457,10.692.555,16.049.066,3.633.013,7.268.013,11.025ZM143.569,74.073,93.431,49.322c-1.986,3.994-3.924,7.923-5.893,11.838A22.945,22.945,0,0,1,73.914,73c-1.8.612-3.6,1.237-5.757,1.977l18.424,9.083c.455-.829.826-1.453,1.147-2.1,1.881-3.8,3.745-7.611,5.626-11.412.3-.6.525-1.508,1-1.685,1-.372,2.353-.787,3.2-.4,1.432.662,1.332,2.132.659,3.493-2.334,4.724-4.651,9.454-7.059,14.353l9.967,4.912c1.373-2.772,2.624-5.3,3.878-7.827,1.264-2.55,2.4-3.27,3.954-2.514,1.591.773,1.756,2.173.548,4.644l-3.879,7.936,9.961,4.911c2.184-4.4,4.235-8.52,6.276-12.645q2.476-5,4.931-10.015c.769-1.576,1.962-2.361,3.6-1.509,1.514.787,1.679,2.156.9,3.641-.278.526-.533,1.065-.8,1.6-3.45,7-6.9,14.009-10.419,21.158l18.28,9.009a5.084,5.084,0,0,0-.056-.8c-.377-1.128-.723-2.269-1.156-3.374a24,24,0,0,1,1.346-21.093c1.76-3.268,3.3-6.654,5.081-10.263M53.2,192.818H161.106c-2.71-4.256-5.317-8.209-7.759-12.263a3.39,3.39,0,0,0-3.371-1.9c-6.41.094-12.822.039-19.234.039q-33.214,0-66.428.025c-.823,0-2.054.093-2.4.61-2.941,4.349-5.721,8.808-8.711,13.488m-5.53-53.67c0,.972,0,1.705,0,2.439-.012,5.3.086,5.4,5.362,5.4q54.33,0,108.659,0c.82,0,1.8.257,2.422-.1.973-.556,2.205-1.417,2.426-2.359a24.393,24.393,0,0,0,.111-5.381ZM95.623,44.832l50.141,24.753c1.124-2.265,2.19-4.37,3.218-6.494,1.578-3.26.909-5.363-2.286-6.964-5.051-2.53-10.129-5.006-15.2-7.506q-12.9-6.362-25.8-12.717c-2.821-1.384-5.029-.905-6.354,1.48-1.295,2.33-2.395,4.767-3.724,7.447m40.873.675c4.686-9.547,9.334-18.764,13.736-28.1A8.686,8.686,0,0,0,145.952,5.9,8.854,8.854,0,0,0,134.1,9.824c-1.539,2.884-2.913,5.856-4.36,8.79-3.084,6.25-6.167,12.5-9.342,18.936L136.5,45.508M41.906,178.815v13.892c3.522.882,6.21.255,7.612-3.353a15.391,15.391,0,0,1,1.538-2.449c1.65-2.61,3.3-5.222,5.107-8.091Zm116.2-.027c2.488,3.908,4.785,7.516,7.082,11.125,2.167,3.4,3.162,3.775,7.194,2.708V178.7c-4.234,0-8.309,0-12.385,0-.489,0-.979.045-1.891.089" transform="translate(0 0)" fill="#1a1818"/><path d="M99.817,54.708a10.233,10.233,0,0,1,10.166,10.26,10.26,10.26,0,1,1-20.519-.223A10.163,10.163,0,0,1,99.817,54.708m-.158,15.4a5.2,5.2,0,0,0,5.322-5.162,5.347,5.347,0,0,0-5.24-5.293A5.4,5.4,0,0,0,94.4,64.861,5.236,5.236,0,0,0,99.659,70.1" transform="translate(-35.984 -22.005)" fill="#1a1818"/><path d="M273.056,74.989a9.939,9.939,0,0,1-9.943-10.128,10.052,10.052,0,1,1,20.1.2,9.969,9.969,0,0,1-10.16,9.924m.084-4.948a5.074,5.074,0,1,0-5.106-5.137,5.187,5.187,0,0,0,5.106,5.137" transform="translate(-105.829 -22.065)" fill="#1a1818"/><path d="M322.721,178.46a11.413,11.413,0,0,1-11.442,11.312A11.612,11.612,0,0,1,299.96,178.25a11.412,11.412,0,0,1,11.531-11.214,11.2,11.2,0,0,1,11.23,11.424m-17.654-.039a6.264,6.264,0,0,0,6.406,6.281,6.366,6.366,0,0,0,6.3-6.436,6.439,6.439,0,0,0-6.443-6.308,6.349,6.349,0,0,0-6.259,6.462" transform="translate(-120.65 -67.185)" fill="#1a1818"/><path d="M42.714,178.435A11.414,11.414,0,0,1,31.3,189.771a11.6,11.6,0,0,1-11.34-11.5,11.4,11.4,0,0,1,11.507-11.237,11.2,11.2,0,0,1,11.252,11.4m-11.379-6.478a6.388,6.388,0,0,0-6.3,6.447,6.3,6.3,0,0,0,6.414,6.3,6.373,6.373,0,1,0-.118-12.745" transform="translate(-8.026 -67.184)" fill="#1a1818"/><path d="M134.468,167.11a11.257,11.257,0,1,1-11.282,11.2,11.318,11.318,0,0,1,11.282-11.2m6.194,11.261a6.248,6.248,0,0,0-6.212-6.272,6.4,6.4,0,0,0-6.267,6.292,6.255,6.255,0,0,0,6.288,6.2,6.076,6.076,0,0,0,6.19-6.217" transform="translate(-49.548 -67.215)" fill="#1a1818"/></g></svg>